<svg width="209" height="209" viewBox="0 0 209 209" fill="none" xmlns="http://www.w3.org/2000/svg">
<path d="M137.876 90.6289C148.382 85.9045 163.273 81.41 177.966 84.7634C204.965 90.9258 206.068 113.682 191.787 125.249C199.68 141.667 188.768 161.891 161.769 155.729C147.658 152.508 136.58 142.435 129.096 134.089L105.198 110.554C102.732 108.125 104.122 102.054 107.398 100.945L137.876 90.6289Z" fill="#F6E334"/>
<path d="M136.429 121.63C146.674 126.899 159.472 135.739 166.011 149.317C178.027 174.268 160.922 189.318 142.975 185.365C135.06 201.772 112.445 205.85 100.429 180.899C94.1491 167.859 95.1172 152.917 96.977 141.863L100.477 108.505C100.838 105.062 106.452 102.363 109.361 104.234L136.429 121.63Z" fill="#F6E334"/>
<path d="M110.825 139.921C113.093 151.216 114.161 166.733 107.622 180.311C95.6063 205.262 73.1751 201.273 65.076 184.777C47.3133 188.818 30.0246 173.68 42.0404 148.729C48.3204 135.688 60.6057 127.129 70.408 121.691L98.6704 103.629C101.587 101.765 107.197 104.471 107.549 107.912L110.825 139.921Z" fill="#F6E334"/>
<path d="M80.0857 133.055C72.6694 141.87 61.2031 152.38 46.5105 155.734C19.5114 161.896 8.64451 141.872 16.4921 125.254C2.25751 113.886 3.31404 90.9309 30.3132 84.7685C44.4243 81.5478 58.7757 85.8164 69.1391 90.0894L100.882 100.924C104.158 102.042 105.54 108.116 103.069 110.537L80.0857 133.055Z" fill="#F6E334"/>
<path d="M67.955 103.161C56.439 102.859 41.0725 100.448 29.29 91.0514C7.63836 73.7848 16.5188 52.8037 34.4037 48.5784C34.4162 30.3617 53.0222 16.8752 74.6739 34.1418C85.9901 43.1662 91.6007 57.048 94.7214 67.8147L106.042 99.3877C107.21 102.646 103.323 107.513 99.8901 107.091L67.955 103.161Z" fill="#F6E334"/>
<path d="M82.3014 75.3717C75.3575 66.1798 67.6621 52.6622 67.6621 37.5917C67.6621 9.89827 89.6027 3.75973 104.057 15.1083C118.307 3.76013 140.452 9.89826 140.452 37.5917C140.452 52.0657 133.097 65.1074 126.625 74.2602L108.999 102.796C107.179 105.741 100.951 105.737 99.1405 102.79L82.3014 75.3717Z" fill="#F6E334"/>
<path d="M114.585 69.5948C117.442 58.4348 123.213 43.9902 134.995 34.5939C156.647 17.3273 175.126 30.6538 175.265 49.0305C193.023 53.0963 202.031 74.2369 180.379 91.5035C169.063 100.528 154.281 102.909 143.089 103.556L109.789 107.566C106.353 107.98 102.472 103.108 103.648 99.8549L114.585 69.5948Z" fill="#F6E334"/>
<path d="M99.9788 67.4457C100.465 62.2974 107.978 62.2974 108.464 67.4457C108.85 71.5371 114.233 72.7656 116.356 69.2469C119.027 64.8192 125.797 68.0793 124.001 72.9285C122.573 76.7822 126.89 80.2245 130.329 77.9754C134.657 75.1452 139.342 81.0198 135.62 84.6095C132.662 87.4622 135.057 92.4364 139.132 91.9023C144.259 91.2303 145.931 98.5558 141.02 100.175C137.117 101.462 137.117 106.983 141.02 108.269C145.931 109.889 144.259 117.214 139.132 116.542C135.057 116.008 132.662 120.982 135.62 123.835C139.342 127.425 134.657 133.299 130.329 130.469C126.89 128.22 122.573 131.662 124.001 135.516C125.797 140.365 119.027 143.625 116.356 139.198C114.233 135.679 108.85 136.907 108.464 140.999C107.978 146.147 100.465 146.147 99.9788 140.999C99.5928 136.907 94.2102 135.679 92.0873 139.198C89.4158 143.625 82.6461 140.365 84.4422 135.516C85.8696 131.662 81.5531 128.22 78.1137 130.469C73.7857 133.299 69.1009 127.425 72.8232 123.835C75.7812 120.982 73.3858 116.008 69.3111 116.542C64.1838 117.214 62.5118 109.889 67.4229 108.269C71.3258 106.983 71.3258 101.462 67.4229 100.175C62.5118 98.5558 64.1838 91.2303 69.3111 91.9023C73.3858 92.4364 75.7812 87.4622 72.8232 84.6095C69.1009 81.0198 73.7857 75.1452 78.1137 77.9754C81.5531 80.2245 85.8696 76.7822 84.4422 72.9285C82.6461 68.0793 89.4158 64.8192 92.0873 69.2469C94.2102 72.7656 99.5928 71.5371 99.9788 67.4457Z" fill="#F6E334"/>
<path fill-rule="evenodd" clip-rule="evenodd" d="M98.6226 67.3178C99.2636 60.5236 109.18 60.5236 109.821 67.3178C110.083 70.1012 113.745 70.937 115.189 68.5432C118.715 62.7 127.649 67.0024 125.278 73.4018C124.307 76.0235 127.244 78.3653 129.584 76.8352C135.295 73.1003 141.478 80.8529 136.566 85.5902C134.553 87.531 136.183 90.9149 138.955 90.5516C145.721 89.6647 147.928 99.3321 141.447 101.469C138.792 102.344 138.792 106.1 141.447 106.976C147.928 109.112 145.721 118.78 138.955 117.893C136.183 117.53 134.553 120.914 136.566 122.854C141.478 127.592 135.295 135.344 129.584 131.609C127.244 130.079 124.307 132.421 125.278 135.043C127.649 141.442 118.715 145.745 115.189 139.901C113.745 137.508 110.083 138.343 109.821 141.127C109.18 147.921 99.2636 147.921 98.6226 141.127C98.36 138.343 94.6982 137.508 93.2539 139.901C89.7285 145.745 80.7945 141.442 83.1648 135.043C84.1359 132.421 81.1994 130.079 78.8595 131.609C73.1479 135.344 66.9654 127.592 71.8776 122.854C73.89 120.914 72.2604 117.53 69.4883 117.893C62.7218 118.78 60.5153 109.112 66.9965 106.976C69.6517 106.1 69.6517 102.344 66.9965 101.469C60.5153 99.3321 62.7219 89.6647 69.4883 90.5516C72.2604 90.9149 73.89 87.531 71.8776 85.5902C66.9654 80.8529 73.1479 73.1003 78.8595 76.8352C81.1994 78.3653 84.1359 76.0235 83.1648 73.4018C80.7945 67.0023 89.7285 62.7 93.2539 68.5432C94.6982 70.937 98.36 70.1012 98.6226 67.3178ZM107.108 67.5737C106.777 64.0713 101.666 64.0713 101.335 67.5737C100.826 72.9731 93.7226 74.5944 90.9209 69.9508C89.1035 66.9386 84.498 69.1565 85.7199 72.4554C87.6036 77.5411 81.9073 82.0838 77.3682 79.1157C74.4239 77.1903 71.2368 81.1868 73.7691 83.6289C77.6728 87.3937 74.5116 93.9581 69.1342 93.2533C65.6461 92.7961 64.5086 97.7796 67.8497 98.8812C73.0003 100.579 73.0003 107.865 67.8497 109.563C64.5086 110.665 65.6461 115.648 69.1342 115.191C74.5116 114.487 77.6728 121.051 73.7691 124.816C71.2368 127.258 74.4239 131.254 77.3682 129.329C81.9073 126.361 87.6036 130.903 85.7199 135.989C84.498 139.288 89.1035 141.506 90.9209 138.494C93.7226 133.85 100.826 135.471 101.335 140.871C101.666 144.373 106.777 144.373 107.108 140.871C107.617 135.471 114.721 133.85 117.522 138.494C119.34 141.506 123.945 139.288 122.723 135.989C120.84 130.903 126.536 126.361 131.075 129.329C134.019 131.254 137.206 127.258 134.674 124.816C130.77 121.051 133.932 114.487 139.309 115.191C142.797 115.648 143.935 110.665 140.594 109.563C135.443 107.865 135.443 100.579 140.594 98.8812C143.935 97.7796 142.797 92.7961 139.309 93.2533C133.932 93.9581 130.77 87.3937 134.674 83.6289C137.206 81.1868 134.019 77.1903 131.075 79.1157C126.536 82.0838 120.84 77.5411 122.723 72.4554C123.945 69.1565 119.34 66.9386 117.522 69.9508C114.721 74.5944 107.617 72.9731 107.108 67.5737Z" fill="#F6E334"/>
</svg>
