<svg width="206" height="199" viewBox="0 0 206 199" fill="none" xmlns="http://www.w3.org/2000/svg">
<path d="M139.171 95.7639C150.603 94.3463 166.157 94.4407 179.209 101.976C203.192 115.823 197.538 137.893 180.482 144.737C183.185 162.752 166.797 178.861 142.814 165.014C130.279 157.777 122.662 144.886 117.971 134.705L102.072 105.172C100.431 102.124 103.549 96.732 107.007 96.638L139.171 95.7639Z" fill="#7ACF0E"/>
<path d="M124.324 128.89C131.267 138.082 138.963 151.6 138.963 166.67C138.963 194.363 117.022 200.502 102.568 189.153C88.3176 200.502 66.1728 194.363 66.1728 166.67C66.1728 152.196 73.5279 139.154 79.9998 130.001L97.6265 101.465C99.4455 98.5207 105.674 98.5249 107.485 101.472L124.324 128.89Z" fill="#7ACF0E"/>
<path d="M87.7231 134.04C83.2347 144.649 75.3758 158.072 62.3244 165.608C38.3412 179.454 22.0548 163.523 24.6557 145.33C7.70276 138.663 1.94611 116.416 25.9294 102.57C38.4642 95.3326 53.4362 95.1815 64.5987 96.2099L98.125 97.2071C101.585 97.31 104.696 102.706 103.048 105.748L87.7231 134.04Z" fill="#7ACF0E"/>
<path d="M65.966 104.409C54.5336 105.827 38.9793 105.732 25.9279 98.197C1.94469 84.3503 7.59885 62.2799 24.6542 55.4362C21.9515 37.4211 38.3397 21.3122 62.323 35.1589C74.8579 42.3959 82.4747 55.2864 87.1653 65.4677L103.065 95.0009C104.706 98.0486 101.588 103.441 98.1301 103.535L65.966 104.409Z" fill="#7ACF0E"/>
<path d="M80.8132 69.6285C73.8693 60.4366 66.1738 46.919 66.1738 31.8486C66.1738 4.15511 88.1144 -1.98344 102.569 9.36513C116.819 -1.98303 138.964 4.1551 138.964 31.8486C138.964 46.3226 131.609 59.3643 125.137 68.5171L107.51 97.0531C105.691 99.9979 99.4623 99.9937 97.6522 97.0464L80.8132 69.6285Z" fill="#7ACF0E"/>
<path d="M117.416 66.1332C121.904 55.5236 129.763 42.1004 142.814 34.5652C166.797 20.7184 183.084 36.6502 180.483 54.8425C197.436 61.5094 203.193 83.7565 179.209 97.6033C166.674 104.84 151.702 104.991 140.54 103.963L107.014 102.966C103.554 102.863 100.443 97.4664 102.09 94.4251L117.416 66.1332Z" fill="#7ACF0E"/>
<path d="M97.4358 61.526C98.1064 55.3924 107.026 55.3924 107.697 61.526C108.209 66.2064 114.207 67.8136 116.99 64.0161C120.638 59.0395 128.362 63.4995 125.876 69.1466C123.979 73.4558 128.37 77.8468 132.679 75.9497C138.327 73.4636 142.787 81.1885 137.81 84.836C134.012 87.6194 135.62 93.6175 140.3 94.1292C146.434 94.7998 146.434 103.72 140.3 104.39C135.62 104.902 134.012 110.9 137.81 113.683C142.787 117.331 138.327 125.056 132.679 122.57C128.37 120.673 123.979 125.064 125.876 129.373C128.362 135.02 120.638 139.48 116.99 134.503C114.207 130.706 108.209 132.313 107.697 136.993C107.026 143.127 98.1064 143.127 97.4358 136.993C96.9241 132.313 90.926 130.706 88.1426 134.503C84.4951 139.48 76.7703 135.02 79.2563 129.373C81.1534 125.064 76.7625 120.673 72.4532 122.57C66.8061 125.056 62.3462 117.331 67.3227 113.683C71.1203 110.9 69.5131 104.902 64.8326 104.39C58.699 103.72 58.699 94.7998 64.8326 94.1292C69.5131 93.6175 71.1203 87.6194 67.3227 84.836C62.3462 81.1885 66.8061 73.4636 72.4532 75.9497C76.7625 77.8468 81.1534 73.4558 79.2563 69.1466C76.7703 63.4995 84.4951 59.0395 88.1426 64.0161C90.926 67.8136 96.9241 66.2064 97.4358 61.526Z" fill="#7ACF0E"/>
<path fill-rule="evenodd" clip-rule="evenodd" d="M96.034 61.3725C96.8879 53.562 108.247 53.562 109.1 61.3725C109.472 64.7734 113.83 65.9411 115.853 63.1818C120.498 56.8447 130.334 62.524 127.169 69.715C125.79 72.8461 128.981 76.0366 132.112 74.6582C139.303 71.4924 144.982 81.3292 138.645 85.974C135.886 87.9964 137.053 92.3546 140.454 92.7264C148.265 93.5803 148.265 104.939 140.454 105.793C137.053 106.165 135.886 110.523 138.645 112.545C144.982 117.19 139.303 127.027 132.112 123.861C128.981 122.483 125.79 125.673 127.169 128.804C130.334 135.995 120.498 141.675 115.853 135.337C113.83 132.578 109.472 133.746 109.1 137.147C108.247 144.957 96.8879 144.957 96.034 137.147C95.6622 133.746 91.304 132.578 89.2816 135.337C84.6369 141.675 74.8 135.995 77.9658 128.804C79.3442 125.673 76.1537 122.483 73.0226 123.861C65.8316 127.027 60.1523 117.19 66.4894 112.545C69.2488 110.523 68.081 106.165 64.6801 105.793C56.8696 104.939 56.8696 93.5803 64.6801 92.7264C68.081 92.3546 69.2488 87.9964 66.4894 85.974C60.1523 81.3292 65.8316 71.4924 73.0226 74.6582C76.1537 76.0366 79.3442 72.8461 77.9658 69.715C74.8 62.524 84.6369 56.8447 89.2816 63.1818C91.304 65.9411 95.6622 64.7733 96.034 61.3725ZM106.295 61.6792C105.808 57.2226 99.3266 57.2226 98.8394 61.6792C98.1878 67.6393 90.5498 69.6859 87.0054 64.8501C84.3551 61.2342 78.7423 64.4748 80.5486 68.5779C82.9644 74.0654 77.373 79.6568 71.8856 77.241C67.7824 75.4346 64.5418 81.0475 68.1577 83.6978C72.9936 87.2422 70.947 94.8802 64.9868 95.5318C60.5302 96.019 60.5302 102.5 64.9868 102.987C70.947 103.639 72.9936 111.277 68.1577 114.821C64.5418 117.472 67.7824 123.085 71.8856 121.278C77.373 118.862 82.9644 124.454 80.5486 129.941C78.7423 134.044 84.3552 137.285 87.0054 133.669C90.5498 128.833 98.1878 130.88 98.8394 136.84C99.3266 141.297 105.808 141.297 106.295 136.84C106.947 130.88 114.585 128.833 118.129 133.669C120.779 137.285 126.392 134.044 124.586 129.941C122.17 124.454 127.761 118.862 133.249 121.278C137.352 123.085 140.593 117.472 136.977 114.821C132.141 111.277 134.188 103.639 140.148 102.987C144.604 102.5 144.604 96.019 140.148 95.5318C134.188 94.8802 132.141 87.2422 136.977 83.6978C140.593 81.0475 137.352 75.4346 133.249 77.241C127.761 79.6568 122.17 74.0654 124.586 68.5779C126.392 64.4748 120.779 61.2342 118.129 64.8501C114.585 69.6859 106.947 67.6393 106.295 61.6792Z" fill="#7ACF0E"/>
</svg>
