<svg width="206" height="199" viewBox="0 0 206 199" fill="none" xmlns="http://www.w3.org/2000/svg">
<path d="M139.171 95.7639C150.603 94.3463 166.157 94.4407 179.209 101.976C203.192 115.823 197.538 137.893 180.482 144.737C183.185 162.752 166.797 178.861 142.814 165.014C130.279 157.777 122.662 144.886 117.971 134.705L102.072 105.172C100.431 102.124 103.549 96.732 107.007 96.638L139.171 95.7639Z" fill="#ECA9F5"/>
<path d="M124.324 128.89C131.267 138.082 138.963 151.6 138.963 166.67C138.963 194.363 117.022 200.502 102.568 189.153C88.3176 200.502 66.1728 194.363 66.1728 166.67C66.1728 152.196 73.5279 139.154 79.9998 130.001L97.6265 101.465C99.4455 98.5207 105.674 98.5249 107.485 101.472L124.324 128.89Z" fill="#ECA9F5"/>
<path d="M87.7231 134.04C83.2347 144.649 75.3758 158.072 62.3244 165.608C38.3412 179.454 22.0548 163.523 24.6557 145.33C7.70276 138.663 1.94611 116.416 25.9294 102.57C38.4642 95.3326 53.4362 95.1815 64.5987 96.2099L98.125 97.2071C101.585 97.31 104.696 102.706 103.048 105.748L87.7231 134.04Z" fill="#ECA9F5"/>
<path d="M65.966 104.409C54.5336 105.827 38.9793 105.732 25.9279 98.197C1.94469 84.3503 7.59885 62.2799 24.6542 55.4362C21.9515 37.4211 38.3397 21.3122 62.323 35.1589C74.8579 42.3959 82.4747 55.2864 87.1653 65.4677L103.065 95.0009C104.706 98.0486 101.588 103.441 98.1301 103.535L65.966 104.409Z" fill="#ECA9F5"/>
<path d="M80.8132 69.6285C73.8693 60.4366 66.1738 46.919 66.1738 31.8486C66.1738 4.15511 88.1144 -1.98344 102.569 9.36513C116.819 -1.98303 138.964 4.1551 138.964 31.8486C138.964 46.3226 131.609 59.3643 125.137 68.5171L107.51 97.0531C105.691 99.9979 99.4623 99.9937 97.6522 97.0464L80.8132 69.6285Z" fill="#ECA9F5"/>
<path d="M117.416 66.1332C121.904 55.5236 129.763 42.1004 142.814 34.5652C166.797 20.7184 183.084 36.6502 180.483 54.8425C197.436 61.5094 203.193 83.7565 179.209 97.6033C166.674 104.84 151.702 104.991 140.54 103.963L107.014 102.966C103.554 102.863 100.443 97.4664 102.09 94.4251L117.416 66.1332Z" fill="#ECA9F5"/>
<path d="M102.567 51.2842L106.239 90.3948L136.491 65.3358L111.432 95.5876L150.542 99.2595L111.432 102.931L136.491 133.183L106.239 108.124L102.567 147.235L98.8952 108.124L68.6434 133.183L93.7024 102.931L54.5918 99.2595L93.7024 95.5876L68.6434 65.3358L98.8952 90.3948L102.567 51.2842Z" fill="#ECA9F5"/>
<circle cx="19.7545" cy="19.7545" r="19.7545" transform="matrix(-1 0 0 1 122.322 79.5049)" fill="#ECA9F5"/>
<path d="M112.657 86.1792C110.667 88.1691 110.55 91.2789 110.55 91.2789C110.55 91.2789 113.66 91.1624 115.65 89.1725C117.64 87.1826 123.521 78.3081 123.521 78.3081C123.521 78.3081 114.646 84.1894 112.657 86.1792Z" fill="#ECA9F5"/>
<path d="M116.894 91.0354C114.294 92.1123 112.997 94.9408 112.997 94.9408C112.997 94.9408 115.914 96.0232 118.514 94.9463C121.114 93.8694 129.944 87.921 129.944 87.921C129.944 87.921 119.494 89.9585 116.894 91.0354Z" fill="#ECA9F5"/>
<path d="M118.951 97.1443C116.137 97.1443 113.856 99.2609 113.856 99.2609C113.856 99.2609 116.137 101.377 118.951 101.377C121.765 101.377 132.199 99.2609 132.199 99.2609C132.199 99.2609 121.765 97.1443 118.951 97.1443Z" fill="#ECA9F5"/>
<path d="M118.513 103.575C115.913 102.498 112.996 103.58 112.996 103.58C112.996 103.58 114.293 106.409 116.893 107.486C119.493 108.563 129.943 110.6 129.943 110.6C129.943 110.6 121.113 104.652 118.513 103.575Z" fill="#ECA9F5"/>
<path d="M115.649 109.349C113.659 107.359 110.549 107.243 110.549 107.243C110.549 107.243 110.666 110.352 112.656 112.342C114.646 114.332 123.52 120.213 123.52 120.213C123.52 120.213 117.639 111.339 115.649 109.349Z" fill="#ECA9F5"/>
<path d="M110.792 113.587C109.715 110.987 106.887 109.69 106.887 109.69C106.887 109.69 105.804 112.607 106.881 115.207C107.958 117.807 113.907 126.637 113.907 126.637C113.907 126.637 111.869 116.187 110.792 113.587Z" fill="#ECA9F5"/>
<path d="M104.684 115.644C104.684 112.83 102.568 110.549 102.568 110.549C102.568 110.549 100.451 112.83 100.451 115.644C100.451 118.458 102.568 128.892 102.568 128.892C102.568 128.892 104.684 118.458 104.684 115.644Z" fill="#ECA9F5"/>
<path d="M98.2522 115.207C99.3291 112.607 98.2467 109.689 98.2467 109.689C98.2467 109.689 95.4182 110.987 94.3413 113.587C93.2644 116.187 91.2269 126.637 91.2269 126.637C91.2269 126.637 97.1753 117.807 98.2522 115.207Z" fill="#ECA9F5"/>
<path d="M92.4783 112.342C94.4681 110.352 94.5846 107.242 94.5846 107.242C94.5846 107.242 91.4749 107.359 89.485 109.348C87.4951 111.338 81.6138 120.213 81.6138 120.213C81.6138 120.213 90.4884 114.332 92.4783 112.342Z" fill="#ECA9F5"/>
<path d="M88.2404 107.485C90.8403 106.408 92.138 103.58 92.138 103.58C92.138 103.58 89.2204 102.497 86.6205 103.574C84.0206 104.651 75.1908 110.599 75.1908 110.599C75.1908 110.599 85.6405 108.562 88.2404 107.485Z" fill="#ECA9F5"/>
<path d="M86.1836 101.377C88.9978 101.377 91.279 99.2601 91.279 99.2601C91.279 99.2601 88.9978 97.1436 86.1836 97.1436C83.3695 97.1436 72.9355 99.2601 72.9355 99.2601C72.9355 99.2601 83.3695 101.377 86.1836 101.377Z" fill="#ECA9F5"/>
<path d="M86.6216 94.9456C89.2216 96.0225 92.1392 94.94 92.1392 94.94C92.1392 94.94 90.8415 92.1116 88.2416 91.0347C85.6417 89.9577 75.192 87.9203 75.192 87.9203C75.192 87.9203 84.0217 93.8686 86.6216 94.9456Z" fill="#ECA9F5"/>
<path d="M89.4859 89.1716C91.4758 91.1615 94.5855 91.278 94.5855 91.278C94.5855 91.278 94.469 88.1682 92.4791 86.1784C90.4893 84.1885 81.6147 78.3072 81.6147 78.3072C81.6147 78.3072 87.496 87.1817 89.4859 89.1716Z" fill="#ECA9F5"/>
<path d="M94.3425 84.9333C95.4194 87.5332 98.2479 88.8309 98.2479 88.8309C98.2479 88.8309 99.3303 85.9133 98.2534 83.3134C97.1765 80.7135 91.2281 71.8837 91.2281 71.8837C91.2281 71.8837 93.2656 82.3334 94.3425 84.9333Z" fill="#ECA9F5"/>
<path d="M100.45 82.876C100.45 85.6901 102.567 87.9714 102.567 87.9714C102.567 87.9714 104.684 85.6901 104.684 82.876C104.684 80.0619 102.567 69.6279 102.567 69.6279C102.567 69.6279 100.45 80.0619 100.45 82.876Z" fill="#ECA9F5"/>
<path d="M106.883 83.314C105.806 85.9139 106.888 88.8315 106.888 88.8315C106.888 88.8315 109.717 87.5339 110.793 84.934C111.87 82.3341 113.908 71.8844 113.908 71.8844C113.908 71.8844 107.959 80.7141 106.883 83.314Z" fill="#ECA9F5"/>
</svg>
