<svg width="199" height="199" viewBox="0 0 199 199" fill="none" xmlns="http://www.w3.org/2000/svg">
<path d="M77.5046 69.6285C70.5607 60.4366 62.8652 46.919 62.8652 31.8486C62.8652 4.15511 84.8058 -1.98344 99.2603 9.36513C113.51 -1.98303 135.655 4.1551 135.655 31.8486C135.655 46.3226 128.3 59.3643 121.828 68.5171L104.202 97.0531C102.383 99.9979 96.1537 99.9937 94.3436 97.0464L77.5046 69.6285Z" fill="#EA4751"/>
<path d="M92.5054 134.655C90.9158 146.064 86.7989 161.064 76.1426 171.721C56.5603 191.303 36.7054 180.129 34.5091 161.884C16.4084 159.832 5.08991 139.833 24.6722 120.25C34.9068 110.016 49.3295 105.995 60.3779 104.099L93.0198 96.385C96.3884 95.5889 100.79 99.9963 99.9858 103.36L92.5054 134.655Z" fill="#EA4751"/>
<path d="M69.628 121.015C60.4361 127.959 46.9185 135.654 31.8481 135.654C4.15462 135.654 -1.98393 113.714 9.36464 99.2592C-1.98352 85.009 4.15461 62.8642 31.8481 62.8642C46.3221 62.8642 59.3638 70.2193 68.5166 76.6912L97.0526 94.3179C99.9974 96.1369 99.9932 102.366 97.0459 104.176L69.628 121.015Z" fill="#EA4751"/>
<path d="M62.2105 92.5064C50.8008 90.9168 35.8009 86.7999 25.1445 76.1435C5.56226 56.5613 16.736 36.7063 34.9815 34.5101C37.0335 16.4094 57.0326 5.09089 76.6149 24.6731C86.8496 34.9078 90.8706 49.3305 92.7662 60.3789L100.48 93.0208C101.276 96.3894 96.8689 100.791 93.5049 99.9868L62.2105 92.5064Z" fill="#EA4751"/>
<path d="M121.015 128.89C127.959 138.082 135.654 151.6 135.654 166.67C135.654 194.363 113.714 200.502 99.2592 189.153C85.009 200.502 62.8642 194.363 62.8642 166.67C62.8642 152.196 70.2193 139.154 76.6912 130.001L94.3179 101.465C96.1369 98.5206 102.366 98.5249 104.176 101.472L121.015 128.89Z" fill="#EA4751"/>
<path d="M134.655 104.357C146.064 105.947 161.064 110.064 171.721 120.72C191.303 140.302 180.129 160.157 161.884 162.354C159.832 180.454 139.833 191.773 120.25 172.191C110.016 161.956 105.995 147.533 104.099 136.485L96.385 103.843C95.5889 100.474 99.9963 96.0729 103.36 96.877L134.655 104.357Z" fill="#EA4751"/>
<path d="M104.358 62.2096C105.947 50.7998 110.064 35.7999 120.721 25.1435C140.303 5.56128 160.158 16.735 162.354 34.9805C180.455 37.0326 191.773 57.0317 172.191 76.6139C161.956 86.8486 147.534 90.8696 136.485 92.7652L103.843 100.479C100.475 101.275 96.0734 96.8679 96.8775 93.5039L104.358 62.2096Z" fill="#EA4751"/>
<path d="M128.891 77.5036C138.083 70.5597 151.601 62.8643 166.671 62.8643C194.365 62.8643 200.503 84.8048 189.155 99.2593C200.503 113.51 194.365 135.654 166.671 135.654C152.197 135.654 139.156 128.299 130.003 121.827L101.467 104.201C98.5221 102.382 98.5263 96.1528 101.474 94.3426L128.891 77.5036Z" fill="#EA4751"/>
<path d="M95.5484 62.2597C95.926 57.7057 102.592 57.7057 102.969 62.2597C103.278 65.9884 108.277 66.9827 109.99 63.6562C112.082 59.5934 118.24 62.1442 116.846 66.4961C115.705 70.0592 119.943 72.8909 122.798 70.473C126.285 67.5199 130.998 72.2331 128.045 75.7203C125.627 78.5755 128.459 82.8134 132.022 81.6722C136.374 80.2784 138.925 86.4365 134.862 88.5282C131.535 90.2407 132.53 95.2397 136.258 95.5489C140.812 95.9265 140.812 102.592 136.258 102.97C132.53 103.279 131.535 108.278 134.862 109.99C138.925 112.082 136.374 118.24 132.022 116.846C128.459 115.705 125.627 119.943 128.045 122.798C130.998 126.285 126.285 130.999 122.798 128.046C119.943 125.628 115.705 128.459 116.846 132.023C118.24 136.374 112.082 138.925 109.99 134.862C108.277 131.536 103.278 132.53 102.969 136.259C102.592 140.813 95.926 140.813 95.5484 136.259C95.2392 132.53 90.2403 131.536 88.5277 134.862C86.4361 138.925 80.2779 136.374 81.6717 132.023C82.8129 128.459 78.575 125.628 75.7198 128.046C72.2327 130.999 67.5194 126.285 70.4725 122.798C72.8904 119.943 70.0587 115.705 66.4956 116.846C62.1437 118.24 59.5929 112.082 63.6557 109.99C66.9822 108.278 65.9879 103.279 62.2592 102.97C57.7053 102.592 57.7053 95.9265 62.2592 95.5489C65.9879 95.2397 66.9822 90.2407 63.6557 88.5282C59.5929 86.4365 62.1437 80.2784 66.4956 81.6722C70.0587 82.8134 72.8904 78.5755 70.4725 75.7203C67.5194 72.2331 72.2327 67.5199 75.7198 70.473C78.575 72.8909 82.8129 70.0592 81.6717 66.4961C80.2779 62.1442 86.4361 59.5934 88.5277 63.6562C90.2403 66.9827 95.2392 65.9884 95.5484 62.2597Z" fill="#EA4751"/>
<path fill-rule="evenodd" clip-rule="evenodd" d="M94.1898 62.1472C94.7056 55.9268 103.81 55.9268 104.326 62.1472C104.522 64.5115 107.692 65.142 108.778 63.0327C111.635 57.4832 120.046 60.9675 118.143 66.9117C117.419 69.171 120.106 70.9665 121.916 69.4334C126.68 65.3997 133.118 71.8376 129.084 76.6008C127.551 78.4113 129.346 81.0984 131.606 80.3748C137.55 78.4709 141.034 86.8825 135.485 89.7395C133.375 90.8254 134.006 93.9952 136.37 94.1912C142.59 94.7071 142.59 103.812 136.37 104.328C134.006 104.524 133.375 107.693 135.485 108.779C141.034 111.636 137.55 120.048 131.606 118.144C129.346 117.42 127.551 120.107 129.084 121.918C133.118 126.681 126.68 133.119 121.916 129.085C120.106 127.552 117.419 129.348 118.143 131.607C120.046 137.551 111.635 141.036 108.778 135.486C107.692 133.377 104.522 134.007 104.326 136.372C103.81 142.592 94.7056 142.592 94.1898 136.372C93.9937 134.007 90.824 133.377 89.7381 135.486C86.8811 141.036 78.4695 137.551 80.3733 131.607C81.097 129.348 78.4098 127.552 76.5994 129.085C71.8362 133.119 65.3982 126.681 69.4319 121.918C70.9651 120.107 69.1696 117.42 66.9102 118.144C60.966 120.048 57.4818 111.636 63.0312 108.779C65.1405 107.693 64.51 104.524 62.1457 104.328C55.9254 103.812 55.9254 94.7071 62.1457 94.1912C64.51 93.9952 65.1405 90.8254 63.0312 89.7395C57.4818 86.8825 60.966 78.4709 66.9102 80.3748C69.1696 81.0984 70.9651 78.4113 69.4319 76.6008C65.3982 71.8376 71.8362 65.3997 76.5994 69.4334C78.4098 70.9665 81.097 69.171 80.3733 66.9117C78.4695 60.9674 86.8811 57.4832 89.7381 63.0327C90.824 65.142 93.9937 64.5115 94.1898 62.1472ZM101.611 62.3724C101.371 59.4848 97.1447 59.4848 96.9052 62.3724C96.4828 67.4654 89.6547 68.8236 87.3155 64.2799C85.9893 61.7038 82.0844 63.3212 82.9683 66.0806C84.5271 70.9476 78.7385 74.8154 74.8385 71.5127C72.6273 69.6402 69.6387 72.6288 71.5113 74.84C74.8139 78.7399 70.9461 84.5285 66.0791 82.9697C63.3197 82.0859 61.7023 85.9907 64.2784 87.317C68.8222 89.6562 67.464 96.4843 62.3709 96.9067C59.4834 97.1461 59.4833 101.373 62.3709 101.612C67.464 102.034 68.8222 108.863 64.2784 111.202C61.7023 112.528 63.3197 116.433 66.0791 115.549C70.9461 113.99 74.8139 119.779 71.5113 123.679C69.6387 125.89 72.6274 128.879 74.8385 127.006C78.7385 123.703 84.5271 127.571 82.9683 132.438C82.0844 135.198 85.9892 136.815 87.3155 134.239C89.6547 129.695 96.4828 131.053 96.9052 136.146C97.1447 139.034 101.371 139.034 101.611 136.146C102.033 131.053 108.861 129.695 111.2 134.239C112.527 136.815 116.431 135.198 115.548 132.438C113.989 127.571 119.777 123.703 123.677 127.006C125.888 128.879 128.877 125.89 127.005 123.679C123.702 119.779 127.57 113.99 132.437 115.549C135.196 116.433 136.814 112.528 134.237 111.202C129.694 108.863 131.052 102.034 136.145 101.612C139.033 101.373 139.032 97.1461 136.145 96.9067C131.052 96.4843 129.694 89.6562 134.237 87.317C136.814 85.9907 135.196 82.0859 132.437 82.9697C127.57 84.5285 123.702 78.7399 127.005 74.84C128.877 72.6288 125.889 69.6402 123.677 71.5127C119.777 74.8154 113.989 70.9476 115.548 66.0806C116.431 63.3212 112.527 61.7038 111.2 64.2799C108.861 68.8236 102.033 67.4654 101.611 62.3724Z" fill="#EA4751"/>
</svg>
