<svg width="210" height="201" viewBox="0 0 210 201" fill="none" xmlns="http://www.w3.org/2000/svg">
<path d="M64.7578 31.6879C64.7578 10.0617 85.407 0.135742 104.462 0.135742C124.313 0.135742 144.165 10.0617 144.165 31.6879C144.165 59.0755 126.095 78.8047 109.403 97.9791C107.584 100.973 101.355 100.969 99.5448 97.9723C83.0827 78.8759 64.7578 58.8123 64.7578 31.6879Z" fill="#FFB54B"/>
<path d="M28.1837 115.41C7.6159 108.727 4.55674 86.0216 10.4449 67.8996C16.5794 49.0195 32.1541 33.2065 52.7219 39.8894C78.7691 48.3526 91.9486 71.6351 105.026 93.4355C107.312 96.0906 105.383 102.013 101.974 102.809C78.7248 112.564 53.9805 123.792 28.1837 115.41Z" fill="#FFB54B"/>
<path d="M96.876 178.654C84.1644 196.15 61.6245 192.043 46.209 180.843C30.1487 169.175 19.9224 149.476 32.634 131.98C48.7321 109.823 74.9477 104.483 99.7224 98.782C102.954 97.4291 107.991 101.094 107.694 104.582C109.787 129.707 112.819 156.71 96.876 178.654Z" fill="#FFB54B"/>
<path d="M177.241 131.207C189.953 148.703 179.082 168.87 163.666 180.07C147.606 191.739 125.711 195.377 112.999 177.881C96.9012 155.724 99.9238 129.141 102.158 103.818C101.869 100.326 106.911 96.6685 110.137 98.0287C134.68 103.802 161.298 109.263 177.241 131.207Z" fill="#FFB54B"/>
<path d="M156.76 40.0158C177.327 33.3329 193.149 49.9042 199.037 68.0262C205.171 86.9063 201.866 108.854 181.298 115.537C155.251 124 130.903 112.911 107.509 102.961C104.1 102.156 102.179 96.2307 104.469 93.5832C117.544 72.0257 130.963 48.3977 156.76 40.0158Z" fill="#FFB54B"/>
<g style="mix-blend-mode:multiply">
<path d="M100.247 67.1358C100.883 62.2334 107.981 62.2334 108.617 67.1358L109.27 72.1703C109.727 75.698 114.077 77.1113 116.52 74.5262L120.008 70.8371C123.404 67.2447 129.146 71.4164 126.779 75.7563L124.348 80.2131C122.645 83.3361 125.333 87.036 128.829 86.3811L133.819 85.4464C138.678 84.5363 140.871 91.2862 136.405 93.4059L131.819 95.5827C128.605 97.1081 128.605 101.681 131.819 103.207L136.405 105.384C140.871 107.503 138.678 114.253 133.819 113.343L128.829 112.408C125.333 111.753 122.645 115.453 124.348 118.576L126.779 123.033C129.146 127.373 123.404 131.545 120.008 127.952L116.52 124.263C114.077 121.678 109.727 123.091 109.27 126.619L108.617 131.654C107.981 136.556 100.883 136.556 100.247 131.654L99.5944 126.619C99.1368 123.091 94.7873 121.678 92.3436 124.263L88.856 127.952C85.46 131.545 79.7182 127.373 82.0853 123.033L84.5162 118.576C86.2195 115.453 83.5314 111.753 80.0349 112.408L75.045 113.343C70.1861 114.253 67.9929 107.503 72.4588 105.384L77.0451 103.207C80.2588 101.681 80.2588 97.1081 77.0451 95.5827L72.4588 93.4059C67.9929 91.2862 70.186 84.5363 75.045 85.4464L80.0349 86.3811C83.5314 87.036 86.2195 83.3361 84.5162 80.2131L82.0853 75.7563C79.7182 71.4164 85.46 67.2447 88.856 70.8371L92.3436 74.5262C94.7873 77.1113 99.1368 75.698 99.5944 72.1703L100.247 67.1358Z" fill="#FFB54B"/>
<path fill-rule="evenodd" clip-rule="evenodd" d="M56.5233 113.944L150.924 83.2717L151.436 84.8451L57.0345 115.518L56.5233 113.944Z" fill="#FFB54B"/>
<path d="M152.694 91.3941C148.784 92.6646 144.584 90.5247 143.313 86.6145C142.043 82.7042 144.183 78.5044 148.093 77.2339C152.003 75.9634 156.203 78.1033 157.473 82.0135C158.744 85.9238 156.604 90.1236 152.694 91.3941Z" fill="#FFB54B"/>
<path d="M59.8661 121.556C55.9558 122.826 51.756 120.686 50.4855 116.776C49.215 112.866 51.3549 108.666 55.2651 107.395C59.1754 106.125 63.3752 108.265 64.6457 112.175C65.9162 116.085 63.7763 120.285 59.8661 121.556Z" fill="#FFB54B"/>
<path fill-rule="evenodd" clip-rule="evenodd" d="M57.0345 83.2717L151.436 113.945L150.924 115.518L56.5233 84.8451L57.0345 83.2717Z" fill="#FFB54B"/>
<path d="M148.093 121.556C144.183 120.285 142.043 116.085 143.313 112.175C144.584 108.265 148.784 106.125 152.694 107.396C156.604 108.666 158.744 112.866 157.474 116.776C156.203 120.686 152.003 122.826 148.093 121.556Z" fill="#FFB54B"/>
<path d="M55.2652 91.3941C51.3549 90.1236 49.215 85.9238 50.4855 82.0136C51.756 78.1033 55.9558 75.9634 59.8661 77.2339C63.7763 78.5045 65.9162 82.7043 64.6457 86.6145C63.3752 90.5247 59.1754 92.6646 55.2652 91.3941Z" fill="#FFB54B"/>
<path fill-rule="evenodd" clip-rule="evenodd" d="M75.4771 58.7575L133.82 139.06L132.482 140.032L74.1387 59.7299L75.4771 58.7575Z" fill="#FFB54B"/>
<path d="M126.642 143.253C124.225 139.926 124.963 135.271 128.289 132.854C131.615 130.438 136.271 131.175 138.688 134.501C141.104 137.827 140.367 142.483 137.041 144.9C133.714 147.316 129.059 146.579 126.642 143.253Z" fill="#FFB54B"/>
<path d="M69.2714 64.2886C66.8547 60.9624 67.5921 56.3068 70.9183 53.8902C74.2446 51.4735 78.9001 52.2109 81.3168 55.5371C83.7334 58.8634 82.9961 63.5189 79.6698 65.9356C76.3436 68.3522 71.6881 67.6148 69.2714 64.2886Z" fill="#FFB54B"/>
<path fill-rule="evenodd" clip-rule="evenodd" d="M104.807 49.7652V149.024H103.152V49.7652H104.807Z" fill="#FFB54B"/>
<path d="M96.535 148.197C96.535 144.086 99.868 140.753 103.979 140.753C108.091 140.753 111.424 144.086 111.424 148.197C111.424 152.309 108.091 155.642 103.979 155.642C99.868 155.642 96.535 152.309 96.535 148.197Z" fill="#FFB54B"/>
<path d="M96.535 50.5924C96.535 46.4809 99.868 43.1479 103.979 43.1479C108.091 43.1479 111.424 46.4809 111.424 50.5924C111.424 54.7038 108.091 58.0368 103.979 58.0368C99.868 58.0368 96.535 54.7038 96.535 50.5924Z" fill="#FFB54B"/>
<path fill-rule="evenodd" clip-rule="evenodd" d="M133.82 59.7298L75.4771 140.032L74.1388 139.06L132.482 58.7575L133.82 59.7298Z" fill="#FFB54B"/>
<path d="M69.2715 134.501C71.6881 131.175 76.3436 130.438 79.6699 132.854C82.9961 135.271 83.7335 139.926 81.3168 143.253C78.9002 146.579 74.2446 147.316 70.9184 144.9C67.5922 142.483 66.8548 137.827 69.2715 134.501Z" fill="#FFB54B"/>
<path d="M126.642 55.5371C129.059 52.2109 133.714 51.4735 137.041 53.8902C140.367 56.3068 141.104 60.9623 138.688 64.2886C136.271 67.6148 131.615 68.3522 128.289 65.9355C124.963 63.5189 124.226 58.8633 126.642 55.5371Z" fill="#FFB54B"/>
<path fill-rule="evenodd" clip-rule="evenodd" d="M151.436 84.8451L57.0345 115.518L56.5233 113.944L150.924 83.2717L151.436 84.8451Z" fill="#FFB54B"/>
<path d="M55.2651 107.395C59.1754 106.125 63.3752 108.265 64.6457 112.175C65.9162 116.085 63.7763 120.285 59.8661 121.556C55.9558 122.826 51.756 120.686 50.4855 116.776C49.215 112.866 51.3549 108.666 55.2651 107.395Z" fill="#FFB54B"/>
<path d="M148.093 77.2339C152.003 75.9634 156.203 78.1033 157.473 82.0135C158.744 85.9238 156.604 90.1236 152.694 91.3941C148.784 92.6646 144.584 90.5247 143.313 86.6145C142.043 82.7042 144.183 78.5044 148.093 77.2339Z" fill="#FFB54B"/>
<path fill-rule="evenodd" clip-rule="evenodd" d="M150.924 115.518L56.5233 84.8451L57.0345 83.2717L151.436 113.945L150.924 115.518Z" fill="#FFB54B"/>
<path d="M59.8661 77.2339C63.7763 78.5045 65.9162 82.7043 64.6457 86.6145C63.3752 90.5247 59.1754 92.6646 55.2652 91.3941C51.3549 90.1236 49.215 85.9238 50.4855 82.0136C51.756 78.1033 55.9558 75.9634 59.8661 77.2339Z" fill="#FFB54B"/>
<path d="M152.694 107.396C156.604 108.666 158.744 112.866 157.474 116.776C156.203 120.686 152.003 122.826 148.093 121.556C144.183 120.285 142.043 116.085 143.313 112.175C144.584 108.265 148.784 106.125 152.694 107.396Z" fill="#FFB54B"/>
<path fill-rule="evenodd" clip-rule="evenodd" d="M132.482 140.032L74.1387 59.7299L75.4771 58.7575L133.82 139.06L132.482 140.032Z" fill="#FFB54B"/>
<path d="M81.3168 55.5371C83.7334 58.8634 82.9961 63.5189 79.6698 65.9356C76.3436 68.3522 71.6881 67.6148 69.2714 64.2886C66.8547 60.9624 67.5921 56.3068 70.9183 53.8902C74.2446 51.4735 78.9001 52.2109 81.3168 55.5371Z" fill="#FFB54B"/>
<path d="M138.688 134.501C141.104 137.827 140.367 142.483 137.041 144.9C133.714 147.316 129.059 146.579 126.642 143.253C124.225 139.926 124.963 135.271 128.289 132.854C131.615 130.438 136.271 131.175 138.688 134.501Z" fill="#FFB54B"/>
<path fill-rule="evenodd" clip-rule="evenodd" d="M103.152 149.024V49.7652H104.807V149.024H103.152Z" fill="#FFB54B"/>
<path d="M111.424 50.5924C111.424 54.7038 108.091 58.0368 103.979 58.0368C99.868 58.0368 96.535 54.7038 96.535 50.5924C96.535 46.4809 99.868 43.1479 103.979 43.1479C108.091 43.1479 111.424 46.4809 111.424 50.5924Z" fill="#FFB54B"/>
<path d="M111.424 148.197C111.424 152.309 108.091 155.642 103.979 155.642C99.868 155.642 96.535 152.309 96.535 148.197C96.535 144.086 99.868 140.753 103.979 140.753C108.091 140.753 111.424 144.086 111.424 148.197Z" fill="#FFB54B"/>
<path fill-rule="evenodd" clip-rule="evenodd" d="M74.1388 139.06L132.482 58.7575L133.82 59.7298L75.4771 140.032L74.1388 139.06Z" fill="#FFB54B"/>
<path d="M138.688 64.2886C136.271 67.6148 131.615 68.3522 128.289 65.9355C124.963 63.5189 124.226 58.8633 126.642 55.5371C129.059 52.2109 133.714 51.4735 137.041 53.8902C140.367 56.3068 141.104 60.9623 138.688 64.2886Z" fill="#FFB54B"/>
<path d="M81.3168 143.253C78.9002 146.579 74.2446 147.316 70.9184 144.9C67.5922 142.483 66.8548 137.827 69.2715 134.501C71.6881 131.175 76.3436 130.438 79.6699 132.854C82.9961 135.271 83.7335 139.926 81.3168 143.253Z" fill="#FFB54B"/>
</g>
</svg>
