<svg width="272" height="272" viewBox="0 0 272 272" fill="none" xmlns="http://www.w3.org/2000/svg">
<path d="M135.085 57.1175C145.898 38.3886 168.744 40.1171 185.246 49.6444C202.438 59.5702 214.667 78.0923 203.854 96.8212C190.16 120.54 164.646 128.59 140.603 136.85C137.531 138.533 132.139 135.415 132.069 131.915C127.361 107.146 121.523 80.6079 135.085 57.1175Z" fill="#D963EA"/>
<path d="M61.55 111.336C47.0792 95.2641 55.7829 74.0707 69.9432 61.3207C84.6958 48.0373 106.09 42.1302 120.561 58.2016C138.887 78.5546 138.66 105.308 139.085 130.726C139.737 134.168 135.105 138.333 131.755 137.317C106.743 134.141 79.6998 131.493 61.55 111.336Z" fill="#D963EA"/>
<path d="M89.4161 200.453C69.6596 209.249 52.193 194.423 44.4428 177.015C36.3684 158.88 37.3617 136.707 57.1182 127.911C82.1381 116.771 107.511 125.255 131.817 132.705C135.292 133.149 137.822 138.841 135.821 141.713C125.071 164.519 114.196 189.421 89.4161 200.453Z" fill="#D963EA"/>
<path d="M182.737 199.545C184.998 221.053 165.499 233.083 146.549 235.074C126.806 237.15 106.025 229.353 103.765 207.845C100.902 180.608 116.811 159.098 131.407 138.284C132.903 135.116 139.099 134.469 141.212 137.26C159.58 154.531 179.902 172.569 182.737 199.545Z" fill="#D963EA"/>
<path d="M210.596 110.331C231.75 114.827 237.166 137.089 233.204 155.727C229.077 175.145 215.24 192.499 194.087 188.003C167.297 182.309 151.756 160.531 136.471 140.217C133.921 137.816 135.22 131.724 138.528 130.576C160.63 118.444 184.065 104.691 210.596 110.331Z" fill="#D963EA"/>
<g style="mix-blend-mode:multiply">
<path d="M148.097 105.561C151.099 101.634 157.246 105.182 155.345 109.746L153.394 114.432C152.026 117.716 155.086 121.115 158.495 120.098L163.36 118.647C168.097 117.234 170.984 123.718 166.764 126.293L162.43 128.937C159.394 130.79 159.872 135.338 163.227 136.519L168.016 138.205C172.679 139.846 171.203 146.788 166.276 146.391L161.216 145.983C157.67 145.697 155.383 149.658 157.404 152.585L160.287 156.764C163.095 160.832 157.821 165.581 154.068 162.364L150.214 159.059C147.513 156.744 143.335 158.604 143.249 162.16L143.126 167.236C143.006 172.178 135.947 172.919 134.802 168.11L133.627 163.172C132.803 159.711 128.329 158.76 126.169 161.587L123.086 165.62C120.084 169.548 113.938 165.999 115.838 161.436L117.79 156.749C119.158 153.465 116.098 150.066 112.689 151.083L107.824 152.534C103.087 153.947 100.2 147.464 104.42 144.889L108.753 142.245C111.79 140.392 111.312 135.843 107.957 134.662L103.168 132.977C98.5048 131.336 99.9804 124.393 104.908 124.791L109.968 125.199C113.514 125.484 115.801 121.524 113.78 118.596L110.897 114.418C108.089 110.349 113.363 105.6 117.116 108.818L120.97 112.122C123.671 114.437 127.849 112.577 127.935 109.021L128.058 103.946C128.178 99.0038 135.237 98.262 136.382 103.071L137.557 108.01C138.381 111.47 142.854 112.421 145.015 109.595L148.097 105.561Z" fill="#D963EA"/>
<path fill-rule="evenodd" clip-rule="evenodd" d="M86.8276 124.237L183.918 144.874L183.574 146.492L86.4836 125.855L86.8276 124.237Z" fill="#D963EA"/>
<path d="M181.389 152.793C177.367 151.938 174.8 147.985 175.655 143.963C176.51 139.942 180.463 137.375 184.485 138.229C188.506 139.084 191.073 143.037 190.218 147.059C189.364 151.081 185.411 153.648 181.389 152.793Z" fill="#D963EA"/>
<path d="M85.9169 132.5C81.8953 131.645 79.3281 127.692 80.1829 123.67C81.0377 119.649 84.9909 117.081 89.0125 117.936C93.0341 118.791 95.6013 122.744 94.7465 126.766C93.8916 130.787 89.9385 133.354 85.9169 132.5Z" fill="#D963EA"/>
<path fill-rule="evenodd" clip-rule="evenodd" d="M102.607 97.9291L169.024 171.693L167.795 172.8L101.377 99.036L102.607 97.9291Z" fill="#D963EA"/>
<path d="M162.324 176.613C159.573 173.558 159.819 168.851 162.875 166.1C165.93 163.348 170.637 163.595 173.388 166.651C176.139 169.706 175.893 174.413 172.837 177.164C169.782 179.915 165.075 179.669 162.324 176.613Z" fill="#D963EA"/>
<path d="M97.0132 104.079C94.2621 101.023 94.5088 96.316 97.5642 93.565C100.62 90.8139 105.327 91.0605 108.078 94.1159C110.829 97.1714 110.582 101.878 107.527 104.63C104.471 107.381 99.7643 107.134 97.0132 104.079Z" fill="#D963EA"/>
<path fill-rule="evenodd" clip-rule="evenodd" d="M130.836 85.9204L141.211 184.636L139.566 184.809L129.19 86.0933L130.836 85.9204Z" fill="#D963EA"/>
<path d="M132.898 184.678C132.468 180.589 135.435 176.926 139.524 176.496C143.613 176.066 147.276 179.033 147.706 183.122C148.135 187.21 145.169 190.874 141.08 191.303C136.991 191.733 133.328 188.767 132.898 184.678Z" fill="#D963EA"/>
<path d="M122.696 87.6076C122.266 83.5187 125.232 79.8556 129.321 79.4258C133.41 78.996 137.073 81.9624 137.503 86.0513C137.933 90.1402 134.966 93.8034 130.878 94.2331C126.789 94.6629 123.125 91.6966 122.696 87.6076Z" fill="#D963EA"/>
<path fill-rule="evenodd" clip-rule="evenodd" d="M160.732 92.7976L111.102 178.759L109.669 177.931L159.299 91.9705L160.732 92.7976Z" fill="#D963EA"/>
<path d="M104.352 173.906C106.408 170.346 110.961 169.126 114.522 171.182C118.082 173.237 119.302 177.79 117.246 181.351C115.191 184.912 110.638 186.132 107.077 184.076C103.517 182.02 102.297 177.467 104.352 173.906Z" fill="#D963EA"/>
<path d="M153.155 89.3782C155.211 85.8175 159.763 84.5976 163.324 86.6533C166.885 88.709 168.105 93.262 166.049 96.8226C163.993 100.383 159.44 101.603 155.88 99.5475C152.319 97.4917 151.099 92.9388 153.155 89.3782Z" fill="#D963EA"/>
<path fill-rule="evenodd" clip-rule="evenodd" d="M180.876 115.934L90.1982 156.306L89.5253 154.795L180.203 114.423L180.876 115.934Z" fill="#D963EA"/>
<path d="M87.5895 148.413C91.3455 146.741 95.746 148.43 97.4182 152.186C99.0905 155.942 97.4013 160.343 93.6453 162.015C89.8893 163.687 85.4889 161.998 83.8166 158.242C82.1443 154.486 83.8335 150.086 87.5895 148.413Z" fill="#D963EA"/>
<path d="M176.756 108.714C180.512 107.042 184.913 108.731 186.585 112.487C188.257 116.243 186.568 120.643 182.812 122.316C179.056 123.988 174.655 122.299 172.983 118.543C171.311 114.787 173 110.386 176.756 108.714Z" fill="#D963EA"/>
<path fill-rule="evenodd" clip-rule="evenodd" d="M183.574 146.492L86.4836 125.855L86.8276 124.237L183.918 144.874L183.574 146.492Z" fill="#D963EA"/>
<path d="M89.0125 117.936C93.0341 118.791 95.6013 122.744 94.7465 126.766C93.8916 130.787 89.9385 133.354 85.9169 132.5C81.8953 131.645 79.3281 127.692 80.1829 123.67C81.0377 119.649 84.9909 117.081 89.0125 117.936Z" fill="#D963EA"/>
<path d="M184.485 138.229C188.506 139.084 191.073 143.037 190.218 147.059C189.364 151.081 185.411 153.648 181.389 152.793C177.367 151.938 174.8 147.985 175.655 143.963C176.51 139.942 180.463 137.375 184.485 138.229Z" fill="#D963EA"/>
<path fill-rule="evenodd" clip-rule="evenodd" d="M167.795 172.8L101.377 99.036L102.607 97.9291L169.024 171.693L167.795 172.8Z" fill="#D963EA"/>
<path d="M108.078 94.1159C110.829 97.1714 110.582 101.878 107.527 104.63C104.471 107.381 99.7643 107.134 97.0132 104.079C94.2621 101.023 94.5088 96.316 97.5642 93.565C100.62 90.8139 105.327 91.0605 108.078 94.1159Z" fill="#D963EA"/>
<path d="M173.388 166.651C176.139 169.706 175.893 174.413 172.837 177.164C169.782 179.915 165.075 179.669 162.324 176.613C159.573 173.558 159.819 168.851 162.875 166.1C165.93 163.348 170.637 163.595 173.388 166.651Z" fill="#D963EA"/>
<path fill-rule="evenodd" clip-rule="evenodd" d="M139.566 184.809L129.19 86.0933L130.836 85.9204L141.211 184.636L139.566 184.809Z" fill="#D963EA"/>
<path d="M137.503 86.0513C137.933 90.1402 134.966 93.8034 130.878 94.2331C126.789 94.6629 123.125 91.6966 122.696 87.6076C122.266 83.5187 125.232 79.8556 129.321 79.4258C133.41 78.996 137.073 81.9624 137.503 86.0513Z" fill="#D963EA"/>
<path d="M147.706 183.122C148.135 187.21 145.169 190.874 141.08 191.303C136.991 191.733 133.328 188.767 132.898 184.678C132.468 180.589 135.435 176.926 139.524 176.496C143.613 176.066 147.276 179.033 147.706 183.122Z" fill="#D963EA"/>
<path fill-rule="evenodd" clip-rule="evenodd" d="M109.669 177.931L159.299 91.9705L160.732 92.7976L111.102 178.759L109.669 177.931Z" fill="#D963EA"/>
<path d="M166.049 96.8226C163.993 100.383 159.44 101.603 155.88 99.5475C152.319 97.4917 151.099 92.9388 153.155 89.3782C155.211 85.8175 159.763 84.5976 163.324 86.6533C166.885 88.709 168.105 93.262 166.049 96.8226Z" fill="#D963EA"/>
<path d="M117.246 181.351C115.191 184.912 110.638 186.132 107.077 184.076C103.517 182.02 102.297 177.467 104.352 173.906C106.408 170.346 110.961 169.126 114.522 171.182C118.082 173.237 119.302 177.79 117.246 181.351Z" fill="#D963EA"/>
<path fill-rule="evenodd" clip-rule="evenodd" d="M89.5253 154.795L180.203 114.423L180.876 115.934L90.1982 156.306L89.5253 154.795Z" fill="#D963EA"/>
<path d="M182.812 122.316C179.056 123.988 174.655 122.299 172.983 118.543C171.311 114.787 173 110.386 176.756 108.714C180.512 107.042 184.913 108.731 186.585 112.487C188.257 116.243 186.568 120.643 182.812 122.316Z" fill="#D963EA"/>
<path d="M93.6453 162.015C89.8893 163.687 85.4889 161.998 83.8166 158.242C82.1443 154.486 83.8335 150.086 87.5895 148.413C91.3455 146.741 95.746 148.43 97.4182 152.186C99.0905 155.942 97.4013 160.343 93.6453 162.015Z" fill="#D963EA"/>
</g>
</svg>
