<svg width="272" height="272" viewBox="0 0 272 272" fill="none" xmlns="http://www.w3.org/2000/svg">
<path d="M135.085 57.1175C145.898 38.3886 168.744 40.1171 185.246 49.6444C202.438 59.5702 214.667 78.0923 203.854 96.8212C190.16 120.54 164.646 128.59 140.603 136.85C137.531 138.533 132.139 135.415 132.069 131.915C127.361 107.146 121.523 80.6079 135.085 57.1175Z" fill="#E45367"/>
<path d="M57.1199 136.096C38.391 125.283 40.1195 102.437 49.6468 85.9353C59.5727 68.7433 78.0947 56.514 96.8236 67.3271C120.542 81.0209 128.593 106.535 136.852 130.578C138.536 133.65 135.417 139.042 131.917 139.112C107.148 143.82 80.6103 149.658 57.1199 136.096Z" fill="#E45367"/>
<path d="M136.096 214.064C125.283 232.793 102.438 231.064 85.9358 221.537C68.7438 211.611 56.5144 193.089 67.3276 174.36C81.0214 150.642 106.535 142.591 130.578 134.331C133.651 132.648 139.043 135.766 139.112 139.266C143.821 164.035 149.659 190.573 136.096 214.064Z" fill="#E45367"/>
<path d="M214.064 135.085C232.793 145.898 231.064 168.744 221.537 185.246C211.611 202.438 193.089 214.667 174.36 203.854C150.642 190.16 142.591 164.646 134.331 140.603C132.648 137.531 135.766 132.139 139.266 132.069C164.035 127.361 190.573 121.523 214.064 135.085Z" fill="#E45367"/>
<g style="mix-blend-mode:multiply">
<path d="M159.068 118.042C162.165 114.115 157.068 109.018 153.141 112.115L147.438 116.615C144.848 118.658 141.021 117.072 140.634 113.796L139.783 106.582C139.196 101.615 131.988 101.615 131.402 106.582L130.55 113.796C130.164 117.072 126.336 118.658 123.746 116.615L118.043 112.115C114.116 109.018 109.019 114.115 112.117 118.042L116.616 123.745C118.659 126.335 117.074 130.162 113.798 130.549L106.583 131.4C101.616 131.986 101.616 139.195 106.583 139.781L113.798 140.633C117.074 141.019 118.659 144.847 116.616 147.437L112.117 153.14C109.019 157.066 114.116 162.164 118.043 159.066L123.746 154.567C126.336 152.524 130.164 154.109 130.55 157.385L131.402 164.6C131.988 169.566 139.196 169.566 139.783 164.6L140.634 157.385C141.021 154.109 144.848 152.524 147.438 154.567L153.141 159.066C157.068 162.164 162.165 157.066 159.068 153.14L154.568 147.437C152.525 144.847 154.11 141.019 157.387 140.633L164.601 139.781C169.568 139.195 169.568 131.986 164.601 131.4L157.387 130.549C154.11 130.162 152.525 126.335 154.568 123.745L159.068 118.042Z" fill="#E45367"/>
<path fill-rule="evenodd" clip-rule="evenodd" d="M171.27 170.099L101.083 99.9125L99.9132 101.082L170.1 171.269L171.27 170.099Z" fill="#E45367"/>
<path d="M95.819 106.346C98.7262 109.254 103.44 109.254 106.347 106.346C109.254 103.439 109.254 98.7255 106.347 95.8183C103.44 92.911 98.7262 92.911 95.819 95.8182C92.9118 98.7255 92.9118 103.439 95.819 106.346Z" fill="#E45367"/>
<path d="M164.836 175.363C167.743 178.271 172.457 178.271 175.364 175.363C178.271 172.456 178.271 167.743 175.364 164.835C172.457 161.928 167.743 161.928 164.836 164.835C161.929 167.743 161.929 172.456 164.836 175.363Z" fill="#E45367"/>
<path fill-rule="evenodd" clip-rule="evenodd" d="M185.221 134.764L85.962 134.764V136.418L185.221 136.418L185.221 134.764Z" fill="#E45367"/>
<path d="M86.7891 143.035C90.9006 143.035 94.2336 139.702 94.2336 135.591C94.2336 131.479 90.9006 128.146 86.7891 128.146C82.6777 128.146 79.3447 131.479 79.3447 135.591C79.3447 139.702 82.6777 143.035 86.7891 143.035Z" fill="#E45367"/>
<path d="M184.394 143.035C188.506 143.035 191.839 139.702 191.839 135.591C191.839 131.479 188.506 128.146 184.394 128.146C180.283 128.146 176.95 131.479 176.95 135.591C176.95 139.702 180.283 143.035 184.394 143.035Z" fill="#E45367"/>
<path fill-rule="evenodd" clip-rule="evenodd" d="M170.1 99.9125L99.9132 170.099L101.083 171.269L171.27 101.082L170.1 99.9125Z" fill="#E45367"/>
<path d="M106.347 175.363C109.254 172.456 109.254 167.743 106.347 164.835C103.44 161.928 98.7262 161.928 95.819 164.835C92.9118 167.743 92.9118 172.456 95.819 175.363C98.7262 178.271 103.44 178.271 106.347 175.363Z" fill="#E45367"/>
<path d="M175.364 106.346C178.271 103.439 178.271 98.7255 175.364 95.8182C172.457 92.911 167.743 92.911 164.836 95.8183C161.929 98.7255 161.929 103.439 164.836 106.346C167.743 109.254 172.457 109.254 175.364 106.346Z" fill="#E45367"/>
<path fill-rule="evenodd" clip-rule="evenodd" d="M134.764 85.9612L134.764 185.22L136.419 185.22L136.419 85.9612L134.764 85.9612Z" fill="#E45367"/>
<path d="M143.036 184.393C143.036 180.282 139.703 176.949 135.592 176.949C131.48 176.949 128.147 180.282 128.147 184.393C128.147 188.505 131.48 191.838 135.592 191.838C139.703 191.838 143.036 188.505 143.036 184.393Z" fill="#E45367"/>
<path d="M143.036 86.7884C143.036 82.6769 139.703 79.3439 135.592 79.3439C131.48 79.3439 128.147 82.6769 128.147 86.7884C128.147 90.8998 131.48 94.2328 135.592 94.2328C139.703 94.2328 143.036 90.8998 143.036 86.7884Z" fill="#E45367"/>
<path fill-rule="evenodd" clip-rule="evenodd" d="M99.9132 101.082L170.1 171.269L171.27 170.099L101.083 99.9125L99.9132 101.082Z" fill="#E45367"/>
<path d="M175.364 164.835C172.457 161.928 167.743 161.928 164.836 164.835C161.929 167.743 161.929 172.456 164.836 175.363C167.743 178.271 172.457 178.271 175.364 175.363C178.271 172.456 178.271 167.743 175.364 164.835Z" fill="#E45367"/>
<path d="M106.347 95.8183C103.44 92.911 98.7262 92.911 95.819 95.8182C92.9118 98.7255 92.9118 103.439 95.819 106.346C98.7262 109.254 103.44 109.254 106.347 106.346C109.254 103.439 109.254 98.7255 106.347 95.8183Z" fill="#E45367"/>
<path fill-rule="evenodd" clip-rule="evenodd" d="M85.962 136.418L185.221 136.418L185.221 134.764L85.962 134.764V136.418Z" fill="#E45367"/>
<path d="M184.394 128.146C180.283 128.146 176.95 131.479 176.95 135.591C176.95 139.702 180.283 143.035 184.394 143.035C188.506 143.035 191.839 139.702 191.839 135.591C191.839 131.479 188.506 128.146 184.394 128.146Z" fill="#E45367"/>
<path d="M86.7891 128.146C82.6777 128.146 79.3447 131.479 79.3447 135.591C79.3447 139.702 82.6777 143.035 86.7891 143.035C90.9006 143.035 94.2336 139.702 94.2336 135.591C94.2336 131.479 90.9006 128.146 86.7891 128.146Z" fill="#E45367"/>
<path fill-rule="evenodd" clip-rule="evenodd" d="M101.083 171.269L171.27 101.082L170.1 99.9125L99.9132 170.099L101.083 171.269Z" fill="#E45367"/>
<path d="M164.836 95.8183C161.929 98.7255 161.929 103.439 164.836 106.346C167.743 109.254 172.457 109.254 175.364 106.346C178.271 103.439 178.271 98.7255 175.364 95.8182C172.457 92.911 167.743 92.911 164.836 95.8183Z" fill="#E45367"/>
<path d="M95.819 164.835C92.9118 167.743 92.9118 172.456 95.819 175.363C98.7262 178.271 103.44 178.271 106.347 175.363C109.254 172.456 109.254 167.743 106.347 164.835C103.44 161.928 98.7262 161.928 95.819 164.835Z" fill="#E45367"/>
<path fill-rule="evenodd" clip-rule="evenodd" d="M136.419 185.22L136.419 85.9612L134.764 85.9612L134.764 185.22L136.419 185.22Z" fill="#E45367"/>
<path d="M128.147 86.7884C128.147 90.8998 131.48 94.2328 135.592 94.2328C139.703 94.2328 143.036 90.8998 143.036 86.7884C143.036 82.6769 139.703 79.3439 135.592 79.3439C131.48 79.3439 128.147 82.6769 128.147 86.7884Z" fill="#E45367"/>
<path d="M128.147 184.393C128.147 188.505 131.48 191.838 135.592 191.838C139.703 191.838 143.036 188.505 143.036 184.393C143.036 180.282 139.703 176.949 135.592 176.949C131.48 176.949 128.147 180.282 128.147 184.393Z" fill="#E45367"/>
</g>
</svg>
