<svg width="199" height="199" viewBox="0 0 199 199" fill="none" xmlns="http://www.w3.org/2000/svg">
<path d="M59.5859 31.5522C59.5859 9.92593 80.2352 -1.64868e-09 99.2897 0C119.141 1.71764e-09 138.993 9.92593 138.993 31.5522C138.993 58.9398 120.923 78.669 104.231 97.8434C102.412 100.837 96.1831 100.833 94.373 97.8366C77.9108 78.7401 59.5859 58.6766 59.5859 31.5522Z" fill="#FF91A0"/>
<path d="M31.5522 138.933C9.92593 138.933 -1.64867e-09 118.284 0 99.2293C1.71765e-09 79.3776 9.92593 59.5257 31.5522 59.5257C58.9398 59.5257 78.669 77.5959 97.8434 94.2881C100.837 96.1071 100.833 102.336 97.8366 104.146C78.7401 120.608 58.6766 138.933 31.5522 138.933Z" fill="#FF91A0"/>
<path d="M138.934 166.966C138.934 188.593 118.284 198.519 99.2298 198.519C79.3781 198.519 59.5262 188.593 59.5262 166.966C59.5262 139.579 77.5964 119.85 94.2886 100.675C96.1076 97.6812 102.336 97.6855 104.147 100.682C120.609 119.778 138.934 139.842 138.934 166.966Z" fill="#FF91A0"/>
<path d="M166.967 59.5854C188.594 59.5854 198.52 80.2347 198.52 99.2892C198.52 119.141 188.594 138.993 166.967 138.993C139.58 138.993 119.851 120.923 100.676 104.23C97.6822 102.411 97.6865 96.1826 100.683 94.3725C119.779 77.9103 139.843 59.5855 166.967 59.5854Z" fill="#FF91A0"/>
<path d="M113.816 44.929L97.79 88.1062L71.1349 50.5481L90.3336 92.4112L44.928 84.7016L88.1052 100.728L50.5471 127.383L92.4102 108.184L84.7006 153.59L100.727 110.413L127.382 147.971L108.183 106.108L153.589 113.817L110.412 97.791L147.97 71.1359L106.107 90.3347L113.816 44.929Z" fill="#FF91A0"/>
<circle cx="99.2578" cy="99.2592" r="23.1605" transform="rotate(15 99.2578 99.2592)" fill="#FF91A0"/>
<path d="M91.8024 81.3849C93.4521 84.2422 92.6404 87.7992 92.6404 87.7992C92.6404 87.7992 89.1541 86.7236 87.5044 83.8664C85.8547 81.0091 81.8873 69.1743 81.8873 69.1743C81.8873 69.1743 90.1528 78.5276 91.8024 81.3849Z" fill="#FF91A0"/>
<path d="M85.5294 85.5986C88.1469 87.6071 88.7582 91.204 88.7582 91.204C88.7582 91.204 85.1256 91.5445 82.5081 89.536C79.8906 87.5275 71.6962 78.1119 71.6962 78.1119C71.6962 78.1119 82.9118 83.5901 85.5294 85.5986Z" fill="#FF91A0"/>
<path d="M81.3461 91.8922C84.533 92.7461 86.4742 95.8353 86.4742 95.8353C86.4742 95.8353 83.2485 97.54 80.0616 96.6861C76.8747 95.8321 65.7008 90.2691 65.7008 90.2691C65.7008 90.2691 78.1592 91.0383 81.3461 91.8922Z" fill="#FF91A0"/>
<path d="M79.8902 99.3075C83.1613 98.8769 86.137 100.988 86.137 100.988C86.137 100.988 83.8091 103.797 80.538 104.228C77.2669 104.659 64.8148 103.795 64.8148 103.795C64.8148 103.795 76.6191 99.7382 79.8902 99.3075Z" fill="#FF91A0"/>
<path d="M81.3819 106.716C84.2392 105.066 87.7963 105.878 87.7963 105.878C87.7963 105.878 86.7207 109.364 83.8634 111.014C81.0061 112.663 69.1714 116.631 69.1714 116.631C69.1714 116.631 78.5247 108.365 81.3819 106.716Z" fill="#FF91A0"/>
<path d="M85.5962 112.989C87.6047 110.371 91.2016 109.76 91.2016 109.76C91.2016 109.76 91.542 113.392 89.5336 116.01C87.5251 118.627 78.1094 126.822 78.1094 126.822C78.1094 126.822 83.5877 115.606 85.5962 112.989Z" fill="#FF91A0"/>
<path d="M91.8902 117.172C92.7442 113.985 95.8333 112.044 95.8333 112.044C95.8333 112.044 97.538 115.27 96.6841 118.456C95.8302 121.643 90.2671 132.817 90.2671 132.817C90.2671 132.817 91.0363 120.359 91.8902 117.172Z" fill="#FF91A0"/>
<path d="M99.306 118.628C98.8754 115.357 100.987 112.382 100.987 112.382C100.987 112.382 103.796 114.709 104.227 117.981C104.657 121.252 103.794 133.704 103.794 133.704C103.794 133.704 99.7367 121.899 99.306 118.628Z" fill="#FF91A0"/>
<path d="M106.713 117.136C105.064 114.278 105.875 110.721 105.875 110.721C105.875 110.721 109.362 111.797 111.011 114.654C112.661 117.511 116.628 129.346 116.628 129.346C116.628 129.346 108.363 119.993 106.713 117.136Z" fill="#FF91A0"/>
<path d="M112.986 112.922C110.369 110.913 109.757 107.317 109.757 107.317C109.757 107.317 113.39 106.976 116.008 108.985C118.625 110.993 126.819 120.409 126.819 120.409C126.819 120.409 115.604 114.93 112.986 112.922Z" fill="#FF91A0"/>
<path d="M117.17 106.628C113.983 105.774 112.041 102.685 112.041 102.685C112.041 102.685 115.267 100.981 118.454 101.834C121.641 102.688 132.815 108.251 132.815 108.251C132.815 108.251 120.356 107.482 117.17 106.628Z" fill="#FF91A0"/>
<path d="M118.625 99.213C115.354 99.6437 112.379 97.5325 112.379 97.5325C112.379 97.5325 114.707 94.7231 117.978 94.2925C121.249 93.8619 133.701 94.7254 133.701 94.7254C133.701 94.7254 121.896 98.7824 118.625 99.213Z" fill="#FF91A0"/>
<path d="M117.134 91.8044C114.276 93.4541 110.719 92.6423 110.719 92.6423C110.719 92.6423 111.795 89.156 114.652 87.5064C117.509 85.8567 129.344 81.8893 129.344 81.8893C129.344 81.8893 119.991 90.1547 117.134 91.8044Z" fill="#FF91A0"/>
<path d="M112.919 85.5308C110.911 88.1483 107.314 88.7596 107.314 88.7596C107.314 88.7596 106.974 85.1271 108.982 82.5096C110.991 79.892 120.406 71.6976 120.406 71.6976C120.406 71.6976 114.928 82.9133 112.919 85.5308Z" fill="#FF91A0"/>
<path d="M106.627 81.3476C105.773 84.5344 102.684 86.4757 102.684 86.4757C102.684 86.4757 100.98 83.2499 101.833 80.063C102.687 76.8762 108.25 65.7023 108.25 65.7023C108.25 65.7023 107.481 78.1607 106.627 81.3476Z" fill="#FF91A0"/>
<path d="M99.2115 79.8927C99.6422 83.1638 97.531 86.1394 97.531 86.1394C97.531 86.1394 94.7217 83.8116 94.291 80.5405C93.8604 77.2694 94.7239 64.8172 94.7239 64.8172C94.7239 64.8172 98.7809 76.6216 99.2115 79.8927Z" fill="#FF91A0"/>
</svg>
