<svg width="199" height="199" viewBox="0 0 199 199" fill="none" xmlns="http://www.w3.org/2000/svg">
<path d="M59.5859 31.5522C59.5859 9.92593 80.2352 -1.64867e-09 99.2897 0C119.141 1.71765e-09 138.993 9.92593 138.993 31.5522C138.993 58.9398 120.923 78.669 104.231 97.8434C102.412 100.837 96.1831 100.833 94.373 97.8366C77.9108 78.7401 59.5859 58.6766 59.5859 31.5522Z" fill="#FFB54B"/>
<path d="M78.2522 174.249C62.9601 189.541 41.3402 181.958 27.8666 168.485C13.8293 154.447 6.81057 133.391 22.1026 118.099C41.4686 98.7333 68.1968 97.5603 93.5583 95.805C96.9616 94.9743 101.363 99.3818 100.524 102.781C98.6614 127.924 97.432 155.069 78.2522 174.249Z" fill="#FFB54B"/>
<path d="M31.5522 138.933C9.92593 138.933 2.44591e-07 118.284 4.73463e-07 99.2293C7.1191e-07 79.3776 9.92593 59.5257 31.5522 59.5257C58.9398 59.5257 78.669 77.5959 97.8434 94.2881C100.837 96.1071 100.833 102.336 97.8366 104.146C78.7401 120.608 58.6766 138.933 31.5522 138.933Z" fill="#FFB54B"/>
<path d="M22.6154 78.2527C7.32338 62.9606 14.9059 41.3407 28.3795 27.8671C42.4168 13.8298 63.4729 6.81107 78.765 22.1031C98.1309 41.4691 99.304 68.1973 101.059 93.5588C101.89 96.9621 97.4825 101.364 94.0837 100.525C68.94 98.6619 41.7953 97.4325 22.6154 78.2527Z" fill="#FFB54B"/>
<path d="M138.934 166.966C138.934 188.593 118.284 198.519 99.2298 198.519C79.3781 198.519 59.5262 188.593 59.5262 166.966C59.5262 139.579 77.5964 119.85 94.2886 100.675C96.1076 97.6812 102.336 97.6855 104.147 100.682C120.609 119.778 138.934 139.842 138.934 166.966Z" fill="#FFB54B"/>
<path d="M174.25 118.611C189.542 133.903 181.959 155.523 168.486 168.997C154.448 183.034 133.392 190.053 118.1 174.761C98.7343 155.395 97.5613 128.666 95.806 103.305C94.9752 99.9017 99.3827 95.5003 102.781 96.3391C127.925 98.2019 155.07 99.4313 174.25 118.611Z" fill="#FFB54B"/>
<path d="M118.611 22.6154C133.903 7.32338 155.523 14.9059 168.997 28.3795C183.034 42.4168 190.053 63.4729 174.761 78.765C155.395 98.1309 128.666 99.304 103.305 101.059C99.9017 101.89 95.5003 97.4825 96.3391 94.0837C98.2019 68.94 99.4313 41.7953 118.611 22.6154Z" fill="#FFB54B"/>
<path d="M166.967 59.5854C188.594 59.5854 198.52 80.2347 198.52 99.2892C198.52 119.141 188.594 138.993 166.967 138.993C139.58 138.993 119.851 120.923 100.676 104.23C97.6822 102.411 97.6865 96.1826 100.683 94.3725C119.779 77.9103 139.843 59.5854 166.967 59.5854Z" fill="#FFB54B"/>
<g style="mix-blend-mode:multiply">
<path d="M94.6755 68.4014C94.9736 64.807 100.235 64.807 100.533 68.4014C100.777 71.3443 104.722 72.1292 106.074 69.5036C107.725 66.2969 112.586 68.3102 111.485 71.745C110.585 74.5574 113.93 76.7924 116.183 74.8839C118.935 72.5531 122.656 76.2732 120.325 79.0256C118.416 81.2792 120.651 84.6241 123.464 83.7233C126.899 82.6232 128.912 87.4838 125.705 89.1347C123.08 90.4864 123.864 94.4319 126.807 94.676C130.402 94.9741 130.402 100.235 126.807 100.533C123.864 100.777 123.08 104.723 125.705 106.075C128.912 107.725 126.899 112.586 123.464 111.486C120.651 110.585 118.416 113.93 120.325 116.184C122.656 118.936 118.935 122.656 116.183 120.325C113.93 118.417 110.585 120.652 111.485 123.464C112.586 126.899 107.725 128.912 106.074 125.706C104.722 123.08 100.777 123.865 100.533 126.808C100.235 130.402 94.9736 130.402 94.6755 126.808C94.4315 123.865 90.4859 123.08 89.1342 125.706C87.4833 128.912 82.6227 126.899 83.7228 123.464C84.6236 120.652 81.2787 118.417 79.0251 120.325C76.2727 122.656 72.5526 118.936 74.8835 116.184C76.7919 113.93 74.5569 110.585 71.7446 111.486C68.3097 112.586 66.2964 107.725 69.5031 106.075C72.1287 104.723 71.3438 100.777 68.4009 100.533C64.8065 100.235 64.8065 94.9741 68.4009 94.676C71.3438 94.4319 72.1287 90.4864 69.5031 89.1347C66.2964 87.4838 68.3097 82.6232 71.7446 83.7233C74.5569 84.6241 76.7919 81.2792 74.8835 79.0256C72.5526 76.2732 76.2727 72.5531 79.0251 74.8839C81.2787 76.7924 84.6236 74.5574 83.7228 71.745C82.6227 68.3102 87.4833 66.2969 89.1342 69.5036C90.4859 72.1292 94.4315 71.3443 94.6755 68.4014Z" fill="#FFB54B"/>
<path fill-rule="evenodd" clip-rule="evenodd" d="M61.926 132.114L132.113 61.9269L133.283 63.0967L63.0957 133.284L61.926 132.114Z" fill="#FFB54B"/>
<path d="M137.377 68.3607C134.47 71.268 129.756 71.268 126.849 68.3607C123.942 65.4535 123.942 60.7399 126.849 57.8327C129.756 54.9255 134.47 54.9255 137.377 57.8327C140.284 60.7399 140.284 65.4535 137.377 68.3607Z" fill="#FFB54B"/>
<path d="M68.3597 137.378C65.4525 140.285 60.739 140.285 57.8317 137.378C54.9245 134.471 54.9245 129.757 57.8317 126.85C60.739 123.943 65.4525 123.943 68.3597 126.85C71.267 129.757 71.267 134.471 68.3597 137.378Z" fill="#FFB54B"/>
<path fill-rule="evenodd" clip-rule="evenodd" d="M51.436 115.834L143.14 77.8487L143.773 79.3771L52.0691 117.362L51.436 115.834Z" fill="#FFB54B"/>
<path d="M145.541 85.8072C141.742 87.3806 137.388 85.5768 135.814 81.7783C134.241 77.9798 136.045 73.625 139.843 72.0516C143.642 70.4782 147.996 72.282 149.57 76.0805C151.143 79.879 149.339 84.2338 145.541 85.8072Z" fill="#FFB54B"/>
<path d="M55.3656 123.159C51.5671 124.732 47.2123 122.929 45.639 119.13C44.0656 115.332 45.8694 110.977 49.6679 109.403C53.4663 107.83 57.8211 109.634 59.3945 113.432C60.9679 117.231 59.1641 121.586 55.3656 123.159Z" fill="#FFB54B"/>
<path fill-rule="evenodd" clip-rule="evenodd" d="M47.9747 96.7782L147.234 96.7781V98.4325L47.9747 98.4325V96.7782Z" fill="#FFB54B"/>
<path d="M146.407 105.05C142.295 105.05 138.962 101.717 138.962 97.6053C138.962 93.4939 142.295 90.1609 146.407 90.1609C150.518 90.1609 153.851 93.4939 153.851 97.6053C153.851 101.717 150.518 105.05 146.407 105.05Z" fill="#FFB54B"/>
<path d="M48.8019 105.05C44.6904 105.05 41.3574 101.717 41.3574 97.6053C41.3574 93.4939 44.6904 90.1609 48.8019 90.1609C52.9133 90.1609 56.2463 93.4939 56.2463 97.6053C56.2463 101.717 52.9133 105.05 48.8019 105.05Z" fill="#FFB54B"/>
<path fill-rule="evenodd" clip-rule="evenodd" d="M52.0691 77.8487L143.773 115.834L143.14 117.362L51.436 79.377L52.0691 77.8487Z" fill="#FFB54B"/>
<path d="M139.843 123.159C136.045 121.586 134.241 117.231 135.814 113.432C137.388 109.634 141.742 107.83 145.541 109.403C149.339 110.977 151.143 115.332 149.57 119.13C147.996 122.929 143.642 124.732 139.843 123.159Z" fill="#FFB54B"/>
<path d="M49.6679 85.8072C45.8694 84.2338 44.0656 79.879 45.6389 76.0805C47.2123 72.282 51.5671 70.4782 55.3656 72.0516C59.1641 73.625 60.9679 77.9798 59.3945 81.7783C57.8211 85.5767 53.4663 87.3805 49.6679 85.8072Z" fill="#FFB54B"/>
<path fill-rule="evenodd" clip-rule="evenodd" d="M63.0956 61.9269L133.282 132.114L132.113 133.284L61.9258 63.0967L63.0956 61.9269Z" fill="#FFB54B"/>
<path d="M126.849 137.378C123.941 134.471 123.941 129.757 126.849 126.85C129.756 123.943 134.469 123.943 137.377 126.85C140.284 129.757 140.284 134.471 137.377 137.378C134.469 140.285 129.756 140.285 126.849 137.378Z" fill="#FFB54B"/>
<path d="M57.8316 68.3607C54.9243 65.4535 54.9243 60.7399 57.8316 57.8327C60.7388 54.9255 65.4524 54.9254 68.3596 57.8327C71.2669 60.7399 71.2669 65.4535 68.3596 68.3607C65.4524 71.268 60.7388 71.268 57.8316 68.3607Z" fill="#FFB54B"/>
<path fill-rule="evenodd" clip-rule="evenodd" d="M79.3759 51.437L117.361 143.141L115.832 143.774L77.8475 52.07L79.3759 51.437Z" fill="#FFB54B"/>
<path d="M109.402 145.542C107.829 141.743 109.633 137.389 113.431 135.815C117.23 134.242 121.584 136.046 123.158 139.844C124.731 143.643 122.927 147.997 119.129 149.571C115.33 151.144 110.976 149.34 109.402 145.542Z" fill="#FFB54B"/>
<path d="M72.0505 55.3666C70.4771 51.5681 72.2809 47.2133 76.0794 45.6399C79.8779 44.0665 84.2326 45.8703 85.806 49.6688C87.3794 53.4673 85.5756 57.8221 81.7771 59.3955C77.9786 60.9688 73.6239 59.165 72.0505 55.3666Z" fill="#FFB54B"/>
<path fill-rule="evenodd" clip-rule="evenodd" d="M98.4313 47.9757L98.4313 147.235H96.777L96.777 47.9757H98.4313Z" fill="#FFB54B"/>
<path d="M90.1597 146.408C90.1597 142.296 93.4927 138.963 97.6041 138.963C101.716 138.963 105.049 142.296 105.049 146.408C105.049 150.519 101.716 153.852 97.6041 153.852C93.4927 153.852 90.1597 150.519 90.1597 146.408Z" fill="#FFB54B"/>
<path d="M90.1597 48.8028C90.1597 44.6914 93.4927 41.3584 97.6041 41.3584C101.716 41.3584 105.049 44.6914 105.049 48.8028C105.049 52.9143 101.716 56.2473 97.6041 56.2473C93.4927 56.2473 90.1597 52.9143 90.1597 48.8028Z" fill="#FFB54B"/>
<path fill-rule="evenodd" clip-rule="evenodd" d="M117.361 52.0699L79.3759 143.774L77.8475 143.14L115.832 51.4368L117.361 52.0699Z" fill="#FFB54B"/>
<path d="M72.0505 139.844C73.6239 136.045 77.9786 134.242 81.7771 135.815C85.5756 137.388 87.3794 141.743 85.806 145.542C84.2326 149.34 79.8779 151.144 76.0794 149.571C72.2809 147.997 70.4771 143.642 72.0505 139.844Z" fill="#FFB54B"/>
<path d="M109.402 49.6687C110.976 45.8702 115.33 44.0664 119.129 45.6398C122.927 47.2132 124.731 51.568 123.158 55.3665C121.584 59.1649 117.23 60.9687 113.431 59.3954C109.633 57.822 107.829 53.4672 109.402 49.6687Z" fill="#FFB54B"/>
<path fill-rule="evenodd" clip-rule="evenodd" d="M133.283 63.0967L63.0957 133.284L61.926 132.114L132.113 61.9269L133.283 63.0967Z" fill="#FFB54B"/>
<path d="M57.8317 126.85C60.739 123.943 65.4525 123.943 68.3597 126.85C71.267 129.757 71.267 134.471 68.3597 137.378C65.4525 140.285 60.739 140.285 57.8317 137.378C54.9245 134.471 54.9245 129.757 57.8317 126.85Z" fill="#FFB54B"/>
<path d="M126.849 57.8327C129.756 54.9255 134.47 54.9255 137.377 57.8327C140.284 60.7399 140.284 65.4535 137.377 68.3607C134.47 71.268 129.756 71.268 126.849 68.3607C123.942 65.4535 123.942 60.7399 126.849 57.8327Z" fill="#FFB54B"/>
<path fill-rule="evenodd" clip-rule="evenodd" d="M143.773 79.3771L52.0691 117.362L51.436 115.834L143.14 77.8487L143.773 79.3771Z" fill="#FFB54B"/>
<path d="M49.6679 109.403C53.4663 107.83 57.8211 109.634 59.3945 113.432C60.9679 117.231 59.1641 121.586 55.3656 123.159C51.5671 124.732 47.2123 122.929 45.639 119.13C44.0656 115.332 45.8694 110.977 49.6679 109.403Z" fill="#FFB54B"/>
<path d="M139.843 72.0516C143.642 70.4782 147.996 72.282 149.57 76.0805C151.143 79.879 149.339 84.2338 145.541 85.8072C141.742 87.3806 137.388 85.5768 135.814 81.7783C134.241 77.9798 136.045 73.625 139.843 72.0516Z" fill="#FFB54B"/>
<path fill-rule="evenodd" clip-rule="evenodd" d="M147.234 98.4325L47.9747 98.4325V96.7782L147.234 96.7781V98.4325Z" fill="#FFB54B"/>
<path d="M48.8019 90.1609C52.9133 90.1609 56.2463 93.4939 56.2463 97.6053C56.2463 101.717 52.9133 105.05 48.8019 105.05C44.6904 105.05 41.3574 101.717 41.3574 97.6053C41.3574 93.4939 44.6904 90.1609 48.8019 90.1609Z" fill="#FFB54B"/>
<path d="M146.407 90.1609C150.518 90.1609 153.851 93.4939 153.851 97.6053C153.851 101.717 150.518 105.05 146.407 105.05C142.295 105.05 138.962 101.717 138.962 97.6053C138.962 93.4939 142.295 90.1609 146.407 90.1609Z" fill="#FFB54B"/>
<path fill-rule="evenodd" clip-rule="evenodd" d="M143.14 117.362L51.436 79.377L52.0691 77.8487L143.773 115.834L143.14 117.362Z" fill="#FFB54B"/>
<path d="M55.3656 72.0516C59.1641 73.625 60.9679 77.9798 59.3945 81.7783C57.8211 85.5767 53.4663 87.3805 49.6679 85.8072C45.8694 84.2338 44.0656 79.879 45.6389 76.0805C47.2123 72.282 51.5671 70.4782 55.3656 72.0516Z" fill="#FFB54B"/>
<path d="M145.541 109.403C149.339 110.977 151.143 115.332 149.57 119.13C147.996 122.929 143.642 124.732 139.843 123.159C136.045 121.586 134.241 117.231 135.814 113.432C137.388 109.634 141.742 107.83 145.541 109.403Z" fill="#FFB54B"/>
<path fill-rule="evenodd" clip-rule="evenodd" d="M132.113 133.284L61.9258 63.0967L63.0956 61.9269L133.282 132.114L132.113 133.284Z" fill="#FFB54B"/>
<path d="M68.3596 57.8327C71.2669 60.7399 71.2669 65.4535 68.3596 68.3607C65.4524 71.268 60.7388 71.268 57.8316 68.3607C54.9243 65.4535 54.9243 60.7399 57.8316 57.8327C60.7388 54.9255 65.4524 54.9254 68.3596 57.8327Z" fill="#FFB54B"/>
<path d="M137.377 126.85C140.284 129.757 140.284 134.471 137.377 137.378C134.469 140.285 129.756 140.285 126.849 137.378C123.941 134.471 123.941 129.757 126.849 126.85C129.756 123.943 134.469 123.943 137.377 126.85Z" fill="#FFB54B"/>
<path fill-rule="evenodd" clip-rule="evenodd" d="M115.832 143.774L77.8475 52.07L79.3759 51.437L117.361 143.141L115.832 143.774Z" fill="#FFB54B"/>
<path d="M85.806 49.6688C87.3794 53.4673 85.5756 57.8221 81.7771 59.3955C77.9786 60.9688 73.6239 59.165 72.0505 55.3666C70.4771 51.5681 72.2809 47.2133 76.0794 45.6399C79.8779 44.0665 84.2326 45.8703 85.806 49.6688Z" fill="#FFB54B"/>
<path d="M123.158 139.844C124.731 143.643 122.927 147.997 119.129 149.571C115.33 151.144 110.976 149.34 109.402 145.542C107.829 141.743 109.633 137.389 113.431 135.815C117.23 134.242 121.584 136.046 123.158 139.844Z" fill="#FFB54B"/>
<path fill-rule="evenodd" clip-rule="evenodd" d="M96.777 147.235L96.777 47.9757H98.4313L98.4313 147.235H96.777Z" fill="#FFB54B"/>
<path d="M105.049 48.8028C105.049 52.9143 101.716 56.2473 97.6041 56.2473C93.4927 56.2473 90.1597 52.9143 90.1597 48.8028C90.1597 44.6914 93.4927 41.3584 97.6041 41.3584C101.716 41.3584 105.049 44.6914 105.049 48.8028Z" fill="#FFB54B"/>
<path d="M105.049 146.408C105.049 150.519 101.716 153.852 97.6041 153.852C93.4927 153.852 90.1597 150.519 90.1597 146.408C90.1597 142.296 93.4927 138.963 97.6041 138.963C101.716 138.963 105.049 142.296 105.049 146.408Z" fill="#FFB54B"/>
<path fill-rule="evenodd" clip-rule="evenodd" d="M77.8475 143.14L115.832 51.4368L117.361 52.0699L79.3759 143.774L77.8475 143.14Z" fill="#FFB54B"/>
<path d="M123.158 55.3665C121.584 59.1649 117.23 60.9687 113.431 59.3954C109.633 57.822 107.829 53.4672 109.402 49.6687C110.976 45.8702 115.33 44.0664 119.129 45.6398C122.927 47.2132 124.731 51.568 123.158 55.3665Z" fill="#FFB54B"/>
<path d="M85.806 145.542C84.2326 149.34 79.8779 151.144 76.0794 149.571C72.2809 147.997 70.4771 143.642 72.0505 139.844C73.6239 136.045 77.9786 134.242 81.7771 135.815C85.5756 137.388 87.3794 141.743 85.806 145.542Z" fill="#FFB54B"/>
</g>
</svg>
