<svg width="209" height="208" viewBox="0 0 209 208" fill="none" xmlns="http://www.w3.org/2000/svg">
<path d="M138.761 88.8115C149.417 84.1212 163.181 83.3557 177.499 86.6235C198.583 91.4358 205.137 107.325 200.897 125.901C196.48 145.255 183.858 155.95 162.774 151.137C148.428 147.863 136.401 140.967 128.769 132.587L104.408 108.947C101.893 106.507 103.284 100.435 106.608 99.3373L138.761 88.8115Z" fill="#D25EE1"/>
<path d="M137.429 121.522C147.74 126.929 156.921 137.213 163.292 150.444C172.676 169.929 164.34 184.96 147.173 193.227C129.287 201.841 113.056 198.64 103.673 179.155C97.2881 165.897 95.1809 152.196 96.9745 141.004L100.268 107.217C100.608 103.731 106.222 101.032 109.153 102.946L137.429 121.522Z" fill="#D25EE1"/>
<path d="M111.024 140.877C113.226 152.309 110.909 165.899 104.538 179.13C95.1544 198.615 78.2053 201.469 61.0378 193.202C43.152 184.589 35.5347 169.903 44.918 150.419C51.3027 137.161 60.7013 126.971 70.5697 121.395L99.0385 102.904C101.976 100.996 107.587 103.702 107.917 107.188L111.024 140.877Z" fill="#D25EE1"/>
<path d="M79.432 132.3C71.8664 141.149 59.7972 147.811 45.4798 151.079C24.3958 155.891 11.5963 144.42 7.35631 125.843C2.93889 106.489 9.67097 91.3776 30.755 86.5653C45.1013 83.2909 58.9283 84.2855 69.4405 88.5245L101.647 99.2536C104.971 100.361 106.353 106.434 103.834 108.866L79.432 132.3Z" fill="#D25EE1"/>
<path d="M66.4393 102.251C54.8035 101.853 42.07 96.5709 30.5884 87.4146C13.6803 73.9309 14.6687 56.7716 26.549 41.8741C38.9263 26.3535 54.9384 22.1949 71.8465 35.6786C83.3513 44.8534 91.1948 56.284 94.4348 67.1457L106.127 99.0152C107.333 102.304 103.447 107.171 99.9752 106.718L66.4393 102.251Z" fill="#D25EE1"/>
<path d="M81.8293 73.3572C74.8854 64.0121 71.0762 50.7631 71.0762 36.0776C71.0762 14.4513 85.1081 4.52539 104.163 4.52539C124.014 4.52539 137.249 14.4513 137.249 36.0776C137.249 50.7928 133.203 64.0518 126.731 73.3572L109.104 102.369C107.285 105.363 101.056 105.358 99.2459 102.362L81.8293 73.3572Z" fill="#D25EE1"/>
<path d="M114.017 67.3768C116.993 56.1212 124.977 44.8824 136.458 35.7262C153.367 22.2424 169.876 27.0243 181.756 41.9218C194.133 57.4424 194.625 73.9784 177.717 87.4622C166.212 96.637 153.322 101.74 142.012 102.482L108.34 106.789C104.865 107.234 100.985 102.361 102.199 99.0778L114.017 67.3768Z" fill="#D25EE1"/>
<g style="mix-blend-mode:multiply">
<path d="M100.949 71.5833C101.282 67.566 107.162 67.566 107.495 71.5833C107.768 74.8725 112.178 75.7496 113.689 72.8152C115.534 69.2312 120.966 71.4814 119.737 75.3203C118.73 78.4635 122.468 80.9615 124.987 78.8285C128.063 76.2234 132.221 80.3812 129.616 83.4574C127.483 85.9761 129.981 89.7145 133.124 88.7078C136.963 87.4782 139.213 92.9107 135.629 94.7558C132.695 96.2665 133.572 100.676 136.861 100.949C140.878 101.282 140.878 107.162 136.861 107.495C133.572 107.768 132.695 112.178 135.629 113.689C139.213 115.534 136.963 120.966 133.124 119.737C129.981 118.73 127.483 122.468 129.616 124.987C132.221 128.063 128.063 132.221 124.987 129.616C122.468 127.483 118.73 129.981 119.737 133.124C120.966 136.963 115.534 139.213 113.689 135.629C112.178 132.695 107.768 133.572 107.495 136.861C107.162 140.878 101.282 140.878 100.949 136.861C100.676 133.572 96.2665 132.695 94.7558 135.629C92.9107 139.213 87.4783 136.963 88.7078 133.124C89.7145 129.981 85.9761 127.483 83.4574 129.616C80.3812 132.221 76.2234 128.063 78.8285 124.987C80.9615 122.468 78.4635 118.73 75.3203 119.737C71.4814 120.966 69.2312 115.534 72.8152 113.689C75.7496 112.178 74.8725 107.768 71.5833 107.495C67.566 107.162 67.566 101.282 71.5833 100.949C74.8725 100.676 75.7496 96.2665 72.8152 94.7558C69.2312 92.9107 71.4814 87.4782 75.3203 88.7078C78.4635 89.7145 80.9615 85.9761 78.8285 83.4574C76.2234 80.3812 80.3812 76.2234 83.4574 78.8285C85.9761 80.9614 89.7145 78.4635 88.7078 75.3203C87.4783 71.4814 92.9107 69.2312 94.7558 72.8152C96.2665 75.7496 100.676 74.8725 100.949 71.5833Z" fill="#D25EE1"/>
<path fill-rule="evenodd" clip-rule="evenodd" d="M64.3458 142.791L142.79 64.3468L144.097 65.6542L65.6532 144.098L64.3458 142.791Z" fill="#D25EE1"/>
<path d="M148.673 71.5375C145.424 74.7867 140.156 74.7867 136.907 71.5375C133.657 68.2882 133.657 63.0201 136.907 59.7709C140.156 56.5216 145.424 56.5216 148.673 59.7708C151.923 63.0201 151.923 68.2882 148.673 71.5375Z" fill="#D25EE1"/>
<path d="M71.5365 148.674C68.2872 151.924 63.0191 151.924 59.7699 148.674C56.5206 145.425 56.5206 140.157 59.7699 136.908C63.0191 133.658 68.2872 133.658 71.5365 136.908C74.7858 140.157 74.7858 145.425 71.5365 148.674Z" fill="#D25EE1"/>
<path fill-rule="evenodd" clip-rule="evenodd" d="M52.6217 124.595L155.114 82.1416L155.822 83.8498L53.3293 126.304L52.6217 124.595Z" fill="#D25EE1"/>
<path d="M157.798 91.0364C153.552 92.7949 148.685 90.7789 146.927 86.5335C145.168 82.2882 147.184 77.4211 151.43 75.6626C155.675 73.9041 160.542 75.9201 162.301 80.1655C164.059 84.4109 162.043 89.2779 157.798 91.0364Z" fill="#D25EE1"/>
<path d="M57.0136 132.783C52.7682 134.541 47.9011 132.525 46.1427 128.28C44.3842 124.034 46.4002 119.167 50.6456 117.409C54.8909 115.65 59.758 117.666 61.5165 121.912C63.275 126.157 61.259 131.024 57.0136 132.783Z" fill="#D25EE1"/>
<path fill-rule="evenodd" clip-rule="evenodd" d="M48.7532 103.298L159.69 103.298V105.147L48.7532 105.147V103.298Z" fill="#D25EE1"/>
<path d="M158.766 112.543C154.17 112.543 150.445 108.818 150.445 104.223C150.445 99.6274 154.17 95.9023 158.766 95.9023C163.361 95.9023 167.086 99.6274 167.086 104.223C167.086 108.818 163.361 112.543 158.766 112.543Z" fill="#D25EE1"/>
<path d="M49.6777 112.543C45.0825 112.543 41.3574 108.818 41.3574 104.223C41.3574 99.6274 45.0825 95.9023 49.6777 95.9023C54.2728 95.9023 57.9979 99.6274 57.9979 104.223C57.9979 108.818 54.2728 112.543 49.6777 112.543Z" fill="#D25EE1"/>
<path fill-rule="evenodd" clip-rule="evenodd" d="M53.3293 82.1416L155.822 124.595L155.114 126.303L52.6217 83.8498L53.3293 82.1416Z" fill="#D25EE1"/>
<path d="M151.43 132.783C147.184 131.024 145.168 126.157 146.927 121.912C148.685 117.666 153.552 115.65 157.798 117.409C162.043 119.167 164.059 124.034 162.301 128.28C160.542 132.525 155.675 134.541 151.43 132.783Z" fill="#D25EE1"/>
<path d="M50.6456 91.0364C46.4002 89.2779 44.3842 84.4108 46.1427 80.1655C47.9011 75.9201 52.7682 73.9041 57.0136 75.6626C61.259 77.4211 63.275 82.2882 61.5165 86.5335C59.758 90.7789 54.8909 92.7949 50.6456 91.0364Z" fill="#D25EE1"/>
<path fill-rule="evenodd" clip-rule="evenodd" d="M65.653 64.3467L144.097 142.791L142.79 144.098L64.3456 65.6541L65.653 64.3467Z" fill="#D25EE1"/>
<path d="M136.907 148.674C133.657 145.425 133.657 140.157 136.907 136.908C140.156 133.658 145.424 133.658 148.673 136.908C151.922 140.157 151.922 145.425 148.673 148.674C145.424 151.923 140.156 151.923 136.907 148.674Z" fill="#D25EE1"/>
<path d="M59.7697 71.5375C56.5205 68.2882 56.5205 63.0201 59.7697 59.7708C63.019 56.5216 68.2871 56.5216 71.5363 59.7708C74.7856 63.0201 74.7856 68.2882 71.5363 71.5375C68.2871 74.7867 63.019 74.7867 59.7697 71.5375Z" fill="#D25EE1"/>
<path fill-rule="evenodd" clip-rule="evenodd" d="M83.8487 52.6227L126.302 155.115L124.594 155.822L82.1404 53.3302L83.8487 52.6227Z" fill="#D25EE1"/>
<path d="M117.408 157.799C115.649 153.553 117.665 148.686 121.91 146.928C126.156 145.169 131.023 147.185 132.781 151.431C134.54 155.676 132.524 160.543 128.278 162.301C124.033 164.06 119.166 162.044 117.408 157.799Z" fill="#D25EE1"/>
<path d="M75.6614 57.0146C73.9029 52.7692 75.9189 47.9021 80.1643 46.1436C84.4097 44.3851 89.2768 46.4012 91.0353 50.6465C92.7937 54.8919 90.7777 59.759 86.5324 61.5175C82.287 63.276 77.4199 61.2599 75.6614 57.0146Z" fill="#D25EE1"/>
<path fill-rule="evenodd" clip-rule="evenodd" d="M105.146 48.7542L105.146 159.691H103.297L103.297 48.7542H105.146Z" fill="#D25EE1"/>
<path d="M95.9011 158.766C95.9011 154.171 99.6262 150.446 104.221 150.446C108.817 150.446 112.542 154.171 112.542 158.766C112.542 163.362 108.817 167.087 104.221 167.087C99.6262 167.087 95.9011 163.362 95.9011 158.766Z" fill="#D25EE1"/>
<path d="M95.9011 49.6787C95.9011 45.0835 99.6262 41.3584 104.221 41.3584C108.817 41.3584 112.542 45.0835 112.542 49.6787C112.542 54.2738 108.817 57.9989 104.221 57.9989C99.6262 57.9989 95.9011 54.2738 95.9011 49.6787Z" fill="#D25EE1"/>
<path fill-rule="evenodd" clip-rule="evenodd" d="M126.302 53.3301L83.8487 155.822L82.1405 155.115L124.594 52.6225L126.302 53.3301Z" fill="#D25EE1"/>
<path d="M75.6614 151.43C77.4199 147.185 82.287 145.169 86.5324 146.928C90.7778 148.686 92.7938 153.553 91.0353 157.798C89.2768 162.044 84.4097 164.06 80.1643 162.301C75.919 160.543 73.903 155.676 75.6614 151.43Z" fill="#D25EE1"/>
<path d="M117.408 50.6464C119.166 46.401 124.033 44.385 128.279 46.1435C132.524 47.902 134.54 52.7691 132.781 57.0145C131.023 61.2598 126.156 63.2758 121.91 61.5173C117.665 59.7589 115.649 54.8918 117.408 50.6464Z" fill="#D25EE1"/>
<path fill-rule="evenodd" clip-rule="evenodd" d="M144.097 65.6542L65.6532 144.098L64.3458 142.791L142.79 64.3468L144.097 65.6542Z" fill="#D25EE1"/>
<path d="M59.7699 136.908C63.0191 133.658 68.2872 133.658 71.5365 136.908C74.7858 140.157 74.7858 145.425 71.5365 148.674C68.2872 151.924 63.0191 151.924 59.7699 148.674C56.5206 145.425 56.5206 140.157 59.7699 136.908Z" fill="#D25EE1"/>
<path d="M136.907 59.7709C140.156 56.5216 145.424 56.5216 148.673 59.7708C151.923 63.0201 151.923 68.2882 148.673 71.5375C145.424 74.7867 140.156 74.7867 136.907 71.5375C133.657 68.2882 133.657 63.0201 136.907 59.7709Z" fill="#D25EE1"/>
<path fill-rule="evenodd" clip-rule="evenodd" d="M155.822 83.8498L53.3293 126.304L52.6217 124.595L155.114 82.1416L155.822 83.8498Z" fill="#D25EE1"/>
<path d="M50.6456 117.409C54.8909 115.65 59.758 117.666 61.5165 121.912C63.275 126.157 61.259 131.024 57.0136 132.783C52.7682 134.541 47.9011 132.525 46.1427 128.28C44.3842 124.034 46.4002 119.167 50.6456 117.409Z" fill="#D25EE1"/>
<path d="M151.43 75.6626C155.675 73.9041 160.542 75.9201 162.301 80.1655C164.059 84.4109 162.043 89.2779 157.798 91.0364C153.552 92.7949 148.685 90.7789 146.927 86.5335C145.168 82.2882 147.184 77.4211 151.43 75.6626Z" fill="#D25EE1"/>
<path fill-rule="evenodd" clip-rule="evenodd" d="M159.69 105.147L48.7532 105.147V103.298L159.69 103.298V105.147Z" fill="#D25EE1"/>
<path d="M49.6777 95.9023C54.2728 95.9023 57.9979 99.6274 57.9979 104.223C57.9979 108.818 54.2728 112.543 49.6777 112.543C45.0825 112.543 41.3574 108.818 41.3574 104.223C41.3574 99.6274 45.0825 95.9023 49.6777 95.9023Z" fill="#D25EE1"/>
<path d="M158.766 95.9023C163.361 95.9023 167.086 99.6274 167.086 104.223C167.086 108.818 163.361 112.543 158.766 112.543C154.17 112.543 150.445 108.818 150.445 104.223C150.445 99.6274 154.17 95.9023 158.766 95.9023Z" fill="#D25EE1"/>
<path fill-rule="evenodd" clip-rule="evenodd" d="M155.114 126.303L52.6217 83.8498L53.3293 82.1416L155.822 124.595L155.114 126.303Z" fill="#D25EE1"/>
<path d="M57.0136 75.6626C61.259 77.4211 63.275 82.2882 61.5165 86.5335C59.758 90.7789 54.8909 92.7949 50.6456 91.0364C46.4002 89.2779 44.3842 84.4108 46.1427 80.1655C47.9011 75.9201 52.7682 73.9041 57.0136 75.6626Z" fill="#D25EE1"/>
<path d="M157.798 117.409C162.043 119.167 164.059 124.034 162.301 128.28C160.542 132.525 155.675 134.541 151.43 132.783C147.184 131.024 145.168 126.157 146.927 121.912C148.685 117.666 153.552 115.65 157.798 117.409Z" fill="#D25EE1"/>
<path fill-rule="evenodd" clip-rule="evenodd" d="M142.79 144.098L64.3456 65.6541L65.653 64.3467L144.097 142.791L142.79 144.098Z" fill="#D25EE1"/>
<path d="M71.5363 59.7708C74.7856 63.0201 74.7856 68.2882 71.5363 71.5375C68.2871 74.7867 63.019 74.7867 59.7697 71.5375C56.5205 68.2882 56.5205 63.0201 59.7697 59.7708C63.019 56.5216 68.2871 56.5216 71.5363 59.7708Z" fill="#D25EE1"/>
<path d="M148.673 136.908C151.922 140.157 151.922 145.425 148.673 148.674C145.424 151.923 140.156 151.923 136.907 148.674C133.657 145.425 133.657 140.157 136.907 136.908C140.156 133.658 145.424 133.658 148.673 136.908Z" fill="#D25EE1"/>
<path fill-rule="evenodd" clip-rule="evenodd" d="M124.594 155.822L82.1404 53.3302L83.8487 52.6227L126.302 155.115L124.594 155.822Z" fill="#D25EE1"/>
<path d="M91.0353 50.6465C92.7937 54.8919 90.7777 59.759 86.5324 61.5175C82.287 63.276 77.4199 61.2599 75.6614 57.0146C73.9029 52.7692 75.9189 47.9021 80.1643 46.1436C84.4097 44.3851 89.2768 46.4012 91.0353 50.6465Z" fill="#D25EE1"/>
<path d="M132.781 151.431C134.54 155.676 132.524 160.543 128.278 162.301C124.033 164.06 119.166 162.044 117.408 157.799C115.649 153.553 117.665 148.686 121.91 146.928C126.156 145.169 131.023 147.185 132.781 151.431Z" fill="#D25EE1"/>
<path fill-rule="evenodd" clip-rule="evenodd" d="M103.297 159.691L103.297 48.7542H105.146L105.146 159.691H103.297Z" fill="#D25EE1"/>
<path d="M112.542 49.6787C112.542 54.2738 108.817 57.9989 104.221 57.9989C99.6262 57.9989 95.9011 54.2738 95.9011 49.6787C95.9011 45.0835 99.6262 41.3584 104.221 41.3584C108.817 41.3584 112.542 45.0835 112.542 49.6787Z" fill="#D25EE1"/>
<path d="M112.542 158.766C112.542 163.362 108.817 167.087 104.221 167.087C99.6262 167.087 95.9011 163.362 95.9011 158.766C95.9011 154.171 99.6262 150.446 104.221 150.446C108.817 150.446 112.542 154.171 112.542 158.766Z" fill="#D25EE1"/>
<path fill-rule="evenodd" clip-rule="evenodd" d="M82.1405 155.115L124.594 52.6225L126.302 53.3301L83.8487 155.822L82.1405 155.115Z" fill="#D25EE1"/>
<path d="M132.781 57.0145C131.023 61.2598 126.156 63.2758 121.91 61.5173C117.665 59.7589 115.649 54.8918 117.408 50.6464C119.166 46.401 124.033 44.385 128.279 46.1435C132.524 47.902 134.54 52.7691 132.781 57.0145Z" fill="#D25EE1"/>
<path d="M91.0353 157.798C89.2768 162.044 84.4097 164.06 80.1643 162.301C75.919 160.543 73.903 155.676 75.6614 151.43C77.4199 147.185 82.287 145.169 86.5324 146.928C90.7778 148.686 92.7938 153.553 91.0353 157.798Z" fill="#D25EE1"/>
</g>
</svg>
