<svg width="206" height="199" viewBox="0 0 206 199" fill="none" xmlns="http://www.w3.org/2000/svg">
<path d="M80.2648 68.8318C73.3209 59.4867 69.5117 46.2377 69.5117 31.5522C69.5117 9.92592 83.5437 -1.64867e-09 102.598 0C122.45 1.71764e-09 135.685 9.92592 135.685 31.5522C135.685 46.2674 131.638 59.5264 125.166 68.8318L107.539 97.8434C105.72 100.837 99.4916 100.833 97.6815 97.8366L80.2648 68.8318Z" fill="#F69841"/>
<path d="M117.833 65.2601C122.454 54.5739 132.023 44.6506 144.741 37.3078C163.47 26.4947 179.082 33.6838 188.61 50.1855C198.536 67.3775 196.557 83.8021 177.828 94.6152C165.084 101.973 151.578 105.098 140.284 104.146L106.345 103.386C102.843 103.308 99.7324 97.9116 101.422 94.8457L117.833 65.2601Z" fill="#F69841"/>
<path d="M140.134 95.6881C151.7 94.347 165.078 97.6727 177.796 105.015C196.525 115.829 198.105 132.944 188.578 149.445C178.652 166.637 163.439 173.136 144.71 162.323C131.966 154.965 122.506 144.831 117.684 134.574L101.372 104.803C99.6891 101.731 102.807 96.3383 106.307 96.2689L140.134 95.6881Z" fill="#F69841"/>
<path d="M124.872 129.687C131.816 139.032 135.625 152.281 135.625 166.966C135.625 188.593 121.593 198.519 102.539 198.519C82.6868 198.519 69.4522 188.593 69.4522 166.966C69.4522 152.251 73.4986 138.992 79.9706 129.687L97.5972 100.675C99.4163 97.6813 105.645 97.6855 107.455 100.682L124.872 129.687Z" fill="#F69841"/>
<path d="M65.0023 104.485C53.4372 105.826 40.0586 102.5 27.3406 95.1574C8.61173 84.3443 7.0316 67.2293 16.5589 50.7276C26.4847 33.5355 41.6982 27.037 60.427 37.8501C73.1708 45.2077 82.6302 55.3415 87.4529 65.5991L103.764 95.37C105.448 98.4423 102.33 103.835 98.8295 103.904L65.0023 104.485Z" fill="#F69841"/>
<path d="M87.3058 134.912C82.6847 145.598 73.1153 155.522 60.3973 162.865C41.6684 173.678 26.0563 166.489 16.529 149.987C6.60317 132.795 8.58195 116.37 27.3108 105.557C40.0546 98.1996 53.5605 95.0744 64.8552 96.0266L98.7933 96.7859C102.296 96.8643 105.406 102.261 103.716 105.327L87.3058 134.912Z" fill="#F69841"/>
<g style="mix-blend-mode:multiply">
<path d="M89.257 80.4956C85.1131 74.7328 82.8398 66.5625 82.8398 57.5065C82.8398 44.1703 91.2137 38.0493 102.585 38.0493C114.432 38.0493 122.33 44.1703 122.33 57.5065C122.33 66.5809 119.915 74.7573 116.053 80.4956L105.534 98.3861C104.448 100.232 100.731 100.23 99.6508 98.3819L89.257 80.4956Z" fill="#F69841"/>
<path d="M111.676 78.2935C114.434 71.7037 120.144 65.5843 127.734 61.0562C138.911 54.3881 148.228 58.8214 153.914 68.9974C159.837 79.5992 158.656 89.7277 147.479 96.3958C139.874 100.933 131.814 102.86 125.074 102.273L104.82 101.805C102.73 101.756 100.874 98.4285 101.882 96.5379L111.676 78.2935Z" fill="#F69841"/>
<path d="M124.985 97.0571C131.887 96.2302 139.871 98.281 147.461 102.809C158.638 109.477 159.581 120.031 153.895 130.207C147.972 140.809 138.893 144.817 127.716 138.149C120.11 133.611 114.465 127.362 111.587 121.037L101.853 102.678C100.848 100.783 102.709 97.4581 104.798 97.4153L124.985 97.0571Z" fill="#F69841"/>
<path d="M115.878 118.023C120.022 123.786 122.295 131.956 122.295 141.012C122.295 154.348 113.921 160.469 102.55 160.469C90.7028 160.469 82.8047 154.348 82.8047 141.012C82.8047 131.938 85.2195 123.761 89.0818 118.023L99.6009 100.133C100.686 98.2862 104.404 98.2889 105.484 100.137L115.878 118.023Z" fill="#F69841"/>
<path d="M80.1496 102.481C73.2478 103.308 65.2638 101.258 57.674 96.7296C46.4971 90.0615 45.5541 79.5072 51.2398 69.3312C57.1633 58.7294 66.2422 54.7219 77.4192 61.39C85.0243 65.9272 90.6695 72.1764 93.5475 78.5019L103.282 96.8607C104.286 98.7552 102.425 102.08 100.337 102.123L80.1496 102.481Z" fill="#F69841"/>
<path d="M93.4589 121.245C90.7011 127.835 84.9904 133.954 77.4006 138.482C66.2237 145.15 56.9068 140.717 51.2212 130.541C45.2977 119.939 46.4786 109.811 57.6555 103.143C65.2606 98.6056 73.3206 96.6784 80.061 97.2656L100.314 97.7339C102.404 97.7822 104.261 101.11 103.252 103.001L93.4589 121.245Z" fill="#F69841"/>
<ellipse cx="7.46689" cy="7.59028" rx="7.46689" ry="7.59028" transform="matrix(0.85878 0.512344 -0.487757 0.87298 99.6055 88.5474)" fill="#F69841"/>
</g>
</svg>
