<svg width="272" height="272" viewBox="0 0 272 272" fill="none" xmlns="http://www.w3.org/2000/svg">
<path d="M162.507 163.074C170.39 171.642 175.563 184.42 177.098 199.025C179.359 220.533 166.441 231.872 147.491 233.863C127.748 235.938 113.549 227.45 111.288 205.942C109.75 191.308 112.388 177.698 117.852 167.768L132.35 137.072C133.846 133.905 140.041 133.258 142.154 136.049L162.507 163.074Z" fill="#E41FDD"/>
<path d="M117.349 168.211C111.636 178.355 101.082 187.224 87.6661 193.197C67.9096 201.994 53.1345 193.212 45.3843 175.805C37.3099 157.669 40.9947 141.542 60.7512 132.745C74.1943 126.76 87.9528 125.064 99.0861 127.191L132.759 131.494C136.234 131.938 138.763 137.63 136.762 140.503L117.349 168.211Z" fill="#E41FDD"/>
<path d="M100.344 126.206C88.9301 123.907 77.234 116.61 67.4075 105.697C52.9367 89.6254 56.7227 72.8598 70.883 60.1098C85.6357 46.8265 102.113 45.3471 116.583 61.4186C126.43 72.3541 132.295 84.9151 133.712 96.1609L140.025 129.515C140.677 132.957 136.045 137.122 132.695 136.107L100.344 126.206Z" fill="#E41FDD"/>
<path d="M132.43 96.8773C131.089 85.3122 134.414 71.9336 141.757 59.2156C152.57 40.4867 169.685 38.9066 186.187 48.4339C203.379 58.3597 209.878 73.5732 199.064 92.302C191.707 105.046 181.573 114.505 171.315 119.328L141.545 135.639C138.472 137.323 133.08 134.205 133.011 130.704L132.43 96.8773Z" fill="#E41FDD"/>
<path d="M171.462 118.36C182.047 113.511 195.798 112.539 210.163 115.593C231.316 120.089 238.108 135.878 234.146 154.516C230.019 173.934 217.558 184.816 196.405 180.32C182.011 177.26 169.883 170.545 162.127 162.28L137.414 139.007C134.863 136.605 136.163 130.513 139.47 129.366L171.462 118.36Z" fill="#E41FDD"/>
<g style="mix-blend-mode:multiply">
<path d="M149.471 150.804C153.662 155.479 156.336 162.522 157.015 170.618C158.014 182.541 150.877 188.977 140.562 190.284C129.815 191.647 122.192 187.083 121.193 175.16C120.513 167.047 122.091 159.46 125.164 153.885L133.365 136.681C134.212 134.906 137.584 134.48 138.702 136.008L149.471 150.804Z" fill="#E41FDD"/>
<path d="M124.886 154.137C121.675 159.832 115.848 164.871 108.497 168.331C97.6716 173.427 89.7391 168.706 85.7142 159.12C81.5209 149.132 83.6938 140.134 94.519 135.038C101.885 131.571 109.377 130.482 115.401 131.546L133.647 133.578C135.53 133.788 136.843 136.923 135.726 138.539L124.886 154.137Z" fill="#E41FDD"/>
<path d="M116.095 130.985C109.92 129.83 103.644 125.901 98.4223 119.943C90.7325 111.17 92.9672 101.817 100.795 94.5842C108.949 87.049 117.915 86.0522 125.605 94.8256C130.837 100.795 133.89 107.71 134.54 113.942L137.615 132.402C137.932 134.307 135.372 136.67 133.563 136.141L116.095 130.985Z" fill="#E41FDD"/>
<path d="M133.835 114.353C133.23 107.943 135.179 100.477 139.302 93.3341C145.375 82.8159 154.689 81.7563 163.551 86.8731C172.784 92.2039 176.153 100.585 170.08 111.104C165.948 118.261 160.343 123.623 154.72 126.41L138.375 135.787C136.688 136.755 133.792 135.08 133.792 133.137L133.835 114.353Z" fill="#E41FDD"/>
<path d="M154.808 125.871C160.609 123.065 168.089 122.379 175.86 123.923C187.303 126.196 190.824 134.894 188.474 145.289C186.026 156.119 179.142 162.295 167.699 160.023C159.913 158.476 153.396 154.875 149.271 150.367L136.094 137.702C134.734 136.395 135.505 132.997 137.313 132.324L154.808 125.871Z" fill="#E41FDD"/>
<ellipse cx="7.05924" cy="7.21863" rx="7.05924" ry="7.21863" transform="matrix(0.482967 0.875638 -0.856304 0.516471 137.576 125.713)" fill="#E41FDD"/>
</g>
</svg>
