<svg width="199" height="199" viewBox="0 0 199 199" fill="none" xmlns="http://www.w3.org/2000/svg">
<path d="M121.563 129.687C128.507 139.032 132.316 152.281 132.316 166.966C132.316 188.593 118.284 198.519 99.2299 198.519C79.3782 198.519 66.1436 188.593 66.1436 166.966C66.1436 152.251 70.19 138.992 76.662 129.687L94.2887 100.675C96.1077 97.6813 102.337 97.6855 104.147 100.682L121.563 129.687Z" fill="#E27FF0"/>
<path d="M68.8318 121.563C59.4867 128.507 46.2377 132.316 31.5522 132.316C9.92593 132.316 -1.64867e-09 118.284 0 99.2294C1.71765e-09 79.3777 9.92593 66.1431 31.5522 66.1431C46.2674 66.1431 59.5265 70.1895 68.8318 76.6615L97.8434 94.2882C100.837 96.1072 100.833 102.336 97.8366 104.146L68.8318 121.563Z" fill="#E27FF0"/>
<path d="M76.9562 68.8318C70.0123 59.4867 66.2031 46.2377 66.2031 31.5522C66.2031 9.92592 80.2351 -1.64867e-09 99.2896 0C119.141 1.71764e-09 132.376 9.92592 132.376 31.5522C132.376 46.2674 128.33 59.5264 121.858 68.8318L104.231 97.8434C102.412 100.837 96.183 100.833 94.3729 97.8366L76.9562 68.8318Z" fill="#E27FF0"/>
<path d="M129.688 76.9557C139.033 70.0118 152.282 66.2026 166.967 66.2026C188.594 66.2026 198.52 80.2346 198.52 99.2891C198.52 119.141 188.594 132.375 166.967 132.375C152.252 132.375 138.993 128.329 129.688 121.857L100.676 104.23C97.6822 102.411 97.6865 96.1825 100.683 94.3724L129.688 76.9557Z" fill="#E27FF0"/>
<path d="M95.0688 70.2505C95.6549 65.2837 102.864 65.2837 103.45 70.2505L104.301 77.4648C104.688 80.7409 108.515 82.3263 111.105 80.2831L116.808 75.7838C120.735 72.6862 125.832 77.7836 122.735 81.7101L118.235 87.4134C116.192 90.0033 117.778 93.8308 121.054 94.2174L128.268 95.0687C133.235 95.6549 133.235 102.864 128.268 103.45L121.054 104.301C117.778 104.688 116.192 108.515 118.235 111.105L122.735 116.808C125.832 120.735 120.735 125.832 116.808 122.735L111.105 118.235C108.515 116.192 104.688 117.778 104.301 121.054L103.45 128.268C102.864 133.235 95.6549 133.235 95.0688 128.268L94.2174 121.054C93.8308 117.778 90.0033 116.192 87.4134 118.235L81.7101 122.735C77.7836 125.832 72.6862 120.735 75.7838 116.808L80.2831 111.105C82.3263 108.515 80.7409 104.688 77.4648 104.301L70.2505 103.45C65.2837 102.864 65.2837 95.6549 70.2505 95.0687L77.4648 94.2174C80.7409 93.8308 82.3263 90.0033 80.2831 87.4134L75.7838 81.7101C72.6862 77.7836 77.7836 72.6862 81.7101 75.7838L87.4134 80.2831C90.0033 82.3263 93.8308 80.7409 94.2174 77.4648L95.0688 70.2505Z" fill="#E27FF0"/>
<path fill-rule="evenodd" clip-rule="evenodd" d="M49.629 98.4319H148.888V100.086H49.629V98.4319Z" fill="#E27FF0"/>
<path d="M148.061 106.704C143.95 106.704 140.617 103.371 140.617 99.2591C140.617 95.1477 143.95 91.8147 148.061 91.8147C152.173 91.8147 155.506 95.1477 155.506 99.2591C155.506 103.371 152.173 106.704 148.061 106.704Z" fill="#E27FF0"/>
<path d="M50.4562 106.704C46.3447 106.704 43.0117 103.371 43.0117 99.2591C43.0117 95.1477 46.3447 91.8147 50.4562 91.8147C54.5676 91.8147 57.9006 95.1477 57.9006 99.2591C57.9006 103.371 54.5676 106.704 50.4562 106.704Z" fill="#E27FF0"/>
<path fill-rule="evenodd" clip-rule="evenodd" d="M64.7501 63.5807L134.937 133.768L133.767 134.937L63.5803 64.7505L64.7501 63.5807Z" fill="#E27FF0"/>
<path d="M128.503 139.032C125.596 136.124 125.596 131.411 128.503 128.504C131.41 125.596 136.124 125.596 139.031 128.504C141.938 131.411 141.938 136.124 139.031 139.032C136.124 141.939 131.41 141.939 128.503 139.032Z" fill="#E27FF0"/>
<path d="M59.4861 70.0145C56.5788 67.1073 56.5788 62.3937 59.4861 59.4865C62.3933 56.5793 67.1069 56.5793 70.0141 59.4865C72.9214 62.3937 72.9214 67.1073 70.0141 70.0145C67.1069 72.9218 62.3933 72.9218 59.4861 70.0145Z" fill="#E27FF0"/>
<path fill-rule="evenodd" clip-rule="evenodd" d="M100.086 49.6295V148.889H98.4315V49.6295H100.086Z" fill="#E27FF0"/>
<path d="M91.8142 148.062C91.8142 143.95 95.1472 140.617 99.2586 140.617C103.37 140.617 106.703 143.95 106.703 148.062C106.703 152.173 103.37 155.506 99.2586 155.506C95.1472 155.506 91.8142 152.173 91.8142 148.062Z" fill="#E27FF0"/>
<path d="M91.8142 50.4566C91.8142 46.3452 95.1472 43.0122 99.2586 43.0122C103.37 43.0122 106.703 46.3452 106.703 50.4566C106.703 54.5681 103.37 57.9011 99.2586 57.9011C95.1472 57.9011 91.8142 54.5681 91.8142 50.4566Z" fill="#E27FF0"/>
<path fill-rule="evenodd" clip-rule="evenodd" d="M134.937 64.7506L64.7501 134.937L63.5803 133.768L133.767 63.5808L134.937 64.7506Z" fill="#E27FF0"/>
<path d="M59.4861 128.504C62.3933 125.596 67.1069 125.596 70.0141 128.504C72.9213 131.411 72.9213 136.124 70.0141 139.032C67.1069 141.939 62.3933 141.939 59.4861 139.032C56.5788 136.124 56.5788 131.411 59.4861 128.504Z" fill="#E27FF0"/>
<path d="M128.503 59.4866C131.41 56.5793 136.124 56.5793 139.031 59.4866C141.938 62.3938 141.938 67.1074 139.031 70.0146C136.124 72.9218 131.41 72.9218 128.503 70.0146C125.596 67.1074 125.596 62.3938 128.503 59.4866Z" fill="#E27FF0"/>
<path fill-rule="evenodd" clip-rule="evenodd" d="M148.888 100.086H49.629V98.4319H148.888V100.086Z" fill="#E27FF0"/>
<path d="M50.4562 91.8147C54.5676 91.8147 57.9006 95.1477 57.9006 99.2591C57.9006 103.371 54.5676 106.704 50.4562 106.704C46.3447 106.704 43.0117 103.371 43.0117 99.2591C43.0117 95.1477 46.3447 91.8147 50.4562 91.8147Z" fill="#E27FF0"/>
<path d="M148.061 91.8147C152.173 91.8147 155.506 95.1477 155.506 99.2591C155.506 103.371 152.173 106.704 148.061 106.704C143.95 106.704 140.617 103.371 140.617 99.2591C140.617 95.1477 143.95 91.8147 148.061 91.8147Z" fill="#E27FF0"/>
<path fill-rule="evenodd" clip-rule="evenodd" d="M133.767 134.937L63.5803 64.7505L64.7501 63.5807L134.937 133.768L133.767 134.937Z" fill="#E27FF0"/>
<path d="M70.0141 59.4865C72.9214 62.3937 72.9214 67.1073 70.0141 70.0145C67.1069 72.9218 62.3933 72.9218 59.4861 70.0145C56.5788 67.1073 56.5788 62.3937 59.4861 59.4865C62.3933 56.5793 67.1069 56.5793 70.0141 59.4865Z" fill="#E27FF0"/>
<path d="M139.031 128.504C141.938 131.411 141.938 136.124 139.031 139.032C136.124 141.939 131.41 141.939 128.503 139.032C125.596 136.124 125.596 131.411 128.503 128.504C131.41 125.596 136.124 125.596 139.031 128.504Z" fill="#E27FF0"/>
<path fill-rule="evenodd" clip-rule="evenodd" d="M98.4315 148.889V49.6295H100.086V148.889H98.4315Z" fill="#E27FF0"/>
<path d="M106.703 50.4566C106.703 54.5681 103.37 57.9011 99.2586 57.9011C95.1472 57.9011 91.8142 54.5681 91.8142 50.4566C91.8142 46.3452 95.1472 43.0122 99.2586 43.0122C103.37 43.0122 106.703 46.3452 106.703 50.4566Z" fill="#E27FF0"/>
<path d="M106.703 148.062C106.703 152.173 103.37 155.506 99.2586 155.506C95.1472 155.506 91.8142 152.173 91.8142 148.062C91.8142 143.95 95.1472 140.617 99.2586 140.617C103.37 140.617 106.703 143.95 106.703 148.062Z" fill="#E27FF0"/>
<path fill-rule="evenodd" clip-rule="evenodd" d="M63.5803 133.768L133.767 63.5808L134.937 64.7506L64.7501 134.937L63.5803 133.768Z" fill="#E27FF0"/>
<path d="M139.031 70.0146C136.124 72.9218 131.41 72.9218 128.503 70.0146C125.596 67.1074 125.596 62.3938 128.503 59.4866C131.41 56.5793 136.124 56.5793 139.031 59.4866C141.938 62.3938 141.938 67.1074 139.031 70.0146Z" fill="#E27FF0"/>
<path d="M70.0141 139.032C67.1069 141.939 62.3933 141.939 59.4861 139.032C56.5788 136.124 56.5788 131.411 59.4861 128.504C62.3933 125.596 67.1069 125.596 70.0141 128.504C72.9213 131.411 72.9213 136.124 70.0141 139.032Z" fill="#E27FF0"/>
</svg>
