<svg width="199" height="199" viewBox="0 0 199 199" fill="none" xmlns="http://www.w3.org/2000/svg">
<path d="M76.9562 68.8318C70.0123 59.4867 66.2031 46.2377 66.2031 31.5522C66.2031 9.92592 80.2351 -1.64867e-09 99.2896 0C119.141 1.71765e-09 132.376 9.92592 132.376 31.5522C132.376 46.2674 128.33 59.5264 121.858 68.8318L104.231 97.8434C102.412 100.837 96.183 100.833 94.3729 97.8366L76.9562 68.8318Z" fill="#41F689"/>
<path d="M61.2614 92.3305C49.7433 90.6326 37.6813 83.9577 27.2971 73.5734C12.005 58.2814 14.9084 41.3406 28.382 27.867C42.4193 13.8298 58.7963 11.4901 74.0883 26.7822C84.4936 37.1874 91.0079 49.4243 93.0114 60.5805L101.062 93.5587C101.893 96.962 97.485 101.363 94.0863 100.525L61.2614 92.3305Z" fill="#41F689"/>
<path d="M129.688 76.9557C139.033 70.0118 152.282 66.2026 166.967 66.2026C188.594 66.2026 198.52 80.2346 198.52 99.2891C198.52 119.141 188.594 132.375 166.967 132.375C152.252 132.375 138.993 128.329 129.688 121.857L100.676 104.23C97.6822 102.411 97.6865 96.1825 100.683 94.3724L129.688 76.9557Z" fill="#41F689"/>
<path d="M104.536 61.2589C106.234 49.7408 112.909 37.6789 123.293 27.2946C138.585 12.0026 155.526 14.906 168.999 28.3796C183.036 42.4168 185.376 58.7938 170.084 74.0859C159.679 84.4911 147.442 91.0054 136.286 93.0089L103.307 101.059C99.9042 101.89 95.5028 97.4826 96.3416 94.0838L104.536 61.2589Z" fill="#41F689"/>
<path d="M121.563 129.687C128.507 139.032 132.316 152.281 132.316 166.966C132.316 188.593 118.284 198.519 99.2299 198.519C79.3782 198.519 66.1436 188.593 66.1436 166.966C66.1436 152.251 70.19 138.992 76.662 129.687L94.2887 100.675C96.1077 97.6813 102.337 97.6855 104.147 100.682L121.563 129.687Z" fill="#41F689"/>
<path d="M135.606 104.533C147.124 106.231 159.186 112.906 169.57 123.29C184.862 138.582 181.959 155.523 168.485 168.997C154.448 183.034 138.071 185.374 122.779 170.082C112.374 159.676 105.859 147.44 103.856 136.283L95.8055 103.305C94.9747 99.9018 99.3822 95.5003 102.781 96.3392L135.606 104.533Z" fill="#41F689"/>
<path d="M68.8318 121.563C59.4867 128.507 46.2377 132.316 31.5522 132.316C9.92593 132.316 1.83842e-06 118.284 4.33877e-06 99.2294C6.94372e-06 79.3777 9.92593 66.1431 31.5522 66.1431C46.2674 66.1431 59.5265 70.1895 68.8318 76.6615L97.8434 94.2882C100.837 96.1072 100.833 102.336 97.8366 104.146L68.8318 121.563Z" fill="#41F689"/>
<path d="M92.3315 135.605C90.6336 147.123 83.9587 159.185 73.5744 169.57C58.2824 184.862 41.3416 181.958 27.868 168.485C13.8307 154.447 11.4911 138.07 26.7832 122.778C37.1884 112.373 49.4252 105.859 60.5815 103.855L93.5597 95.805C96.963 94.9742 101.364 99.3817 100.526 102.78L92.3315 135.605Z" fill="#41F689"/>
<g style="mix-blend-mode:multiply">
<path d="M83.6463 77.9601C78.7856 71.4185 76.1191 62.1442 76.1191 51.8644C76.1191 36.726 85.9415 29.7778 99.2797 29.7778C113.176 29.7778 122.44 36.726 122.44 51.8643C122.44 62.165 119.608 71.4463 115.077 77.9601L102.739 98.2682C101.465 100.364 97.105 100.361 95.838 98.2634L83.6463 77.9601Z" fill="#41F689"/>
<path d="M72.6601 94.4096C64.5975 93.2211 56.1541 88.5486 48.8851 81.2796C38.1807 70.5752 40.213 58.7167 49.6446 49.2851C59.4707 39.459 70.9346 37.8213 81.639 48.5258C88.9227 55.8094 93.4827 64.3752 94.8851 72.1846L100.52 95.2693C101.102 97.6516 98.0167 100.733 95.6375 100.145L72.6601 94.4096Z" fill="#41F689"/>
<path d="M120.558 83.6468C127.1 78.7861 136.374 76.1196 146.654 76.1196C161.792 76.1196 168.74 85.942 168.74 99.2802C168.74 113.176 161.792 122.441 146.654 122.441C136.353 122.441 127.072 119.608 120.558 115.078L100.25 102.739C98.1541 101.466 98.1571 97.1055 100.255 95.8384L120.558 83.6468Z" fill="#41F689"/>
<path d="M102.952 72.6591C104.14 64.5965 108.813 56.1531 116.082 48.8841C126.786 38.1797 138.645 40.2121 148.076 49.6436C157.902 59.4697 159.54 70.9336 148.836 81.638C141.552 88.9217 132.986 93.4817 125.177 94.8841L102.092 100.519C99.7097 101.101 96.6287 98.0157 97.2159 95.6366L102.952 72.6591Z" fill="#41F689"/>
<path d="M114.871 120.558C119.732 127.1 122.398 136.374 122.398 146.654C122.398 161.793 112.576 168.741 99.2379 168.741C85.3417 168.741 76.0774 161.793 76.0774 146.654C76.0774 136.354 78.91 127.072 83.4403 120.558L95.779 100.25C97.0523 98.1546 101.413 98.1576 102.68 100.255L114.871 120.558Z" fill="#41F689"/>
<path d="M124.699 102.951C132.762 104.14 141.205 108.812 148.474 116.081C159.179 126.786 157.146 138.644 147.715 148.076C137.889 157.902 126.425 159.54 115.72 148.835C108.437 141.551 103.877 132.986 102.474 125.176L96.839 102.092C96.2575 99.7092 99.3427 96.6282 101.722 97.2154L124.699 102.951Z" fill="#41F689"/>
<path d="M77.9596 114.872C71.418 119.732 62.1437 122.399 51.8639 122.399C36.7255 122.399 29.7773 112.577 29.7773 99.2384C29.7773 85.3422 36.7255 76.0779 51.8639 76.0779C62.1645 76.0779 71.4459 78.9105 77.9596 83.4408L98.2677 95.7795C100.363 97.0528 100.36 101.413 98.263 102.68L77.9596 114.872Z" fill="#41F689"/>
<path d="M94.4076 124.701C93.2191 132.764 88.5466 141.207 81.2777 148.476C70.5732 159.181 58.7147 157.148 49.2832 147.717C39.4571 137.891 37.8194 126.427 48.5238 115.722C55.8075 108.439 64.3733 103.879 72.1826 102.476L95.2674 96.841C97.6497 96.2594 100.731 99.3447 100.143 101.724L94.4076 124.701Z" fill="#41F689"/>
<ellipse cx="98.9788" cy="98.9784" rx="8.2716" ry="8.2716" transform="rotate(30 98.9788 98.9784)" fill="#41F689"/>
</g>
</svg>
