<svg width="244" height="244" viewBox="0 0 244 244" fill="none" xmlns="http://www.w3.org/2000/svg">
<path d="M155.893 158.897C172.049 167.435 204.228 177.196 209.351 167.503C214.474 157.809 188.282 136.72 172.127 128.182C155.971 119.644 126.717 111.429 121.594 121.122C116.471 130.815 139.738 150.358 155.893 158.897Z" fill="#D25EE1"/>
<path d="M113.444 171.49C116.841 189.445 129.273 220.689 140.046 218.651C150.819 216.612 150.977 182.986 147.579 165.032C144.182 147.077 132.365 119.084 121.593 121.122C110.82 123.16 110.047 153.536 113.444 171.49Z" fill="#D25EE1"/>
<path d="M77.1355 146.155C65.2162 160.006 48.5396 189.206 56.8499 196.357C65.1602 203.509 91.5487 182.667 103.468 168.816C115.387 154.966 129.906 128.273 121.596 121.122C113.285 113.97 89.0549 132.305 77.1355 146.155Z" fill="#D25EE1"/>
<path d="M74.3025 101.969C56.0422 101.286 22.8149 106.454 22.405 117.41C21.995 128.366 54.7432 136.002 73.0036 136.686C91.2639 137.369 121.185 132.078 121.595 121.121C122.005 110.165 92.5629 102.652 74.3025 101.969Z" fill="#D25EE1"/>
<path d="M107.083 72.2059C96.2318 57.5034 71.4746 34.7473 62.6531 41.2579C53.8316 47.7684 68.2795 78.1332 79.1304 92.8357C89.9814 107.538 112.774 127.632 121.595 121.122C130.417 114.611 117.934 86.9085 107.083 72.2059Z" fill="#D25EE1"/>
<path d="M150.79 79.2765C155.52 61.626 157.875 28.0818 147.285 25.2442C136.695 22.4065 121.963 52.6344 117.233 70.2849C112.504 87.9354 111.005 118.284 121.595 121.121C132.185 123.959 146.061 96.927 150.79 79.2765Z" fill="#D25EE1"/>
<path d="M172.511 117.858C189.26 110.551 216.954 91.4782 212.57 81.4292C208.186 71.3801 175.367 78.709 158.619 86.0162C141.87 93.3235 117.208 111.073 121.593 121.122C125.977 131.171 155.763 125.166 172.511 117.858Z" fill="#D25EE1"/>
<g style="mix-blend-mode:multiply">
<circle cx="121.568" cy="121.567" r="21.2629" transform="rotate(15 121.568 121.567)" fill="#D25EE1"/>
<path d="M136.812 130.3C133.848 129.506 132.607 124.525 132.607 124.525C132.607 124.525 136.172 120.832 139.136 121.626C142.1 122.42 151.928 129.702 151.928 129.702C151.928 129.702 139.776 131.095 136.812 130.3Z" fill="#D25EE1"/>
<path d="M126.171 138.522C124.637 135.865 127.282 131.465 127.282 131.465C127.282 131.465 132.415 131.374 133.949 134.032C135.483 136.689 137.283 148.788 137.283 148.788C137.283 148.788 127.706 141.18 126.171 138.522Z" fill="#D25EE1"/>
<path d="M112.834 136.812C113.628 133.848 118.609 132.607 118.609 132.607C118.609 132.607 122.303 136.172 121.508 139.137C120.714 142.101 113.432 151.928 113.432 151.928C113.432 151.928 112.04 139.776 112.834 136.812Z" fill="#D25EE1"/>
<path d="M104.612 126.171C107.27 124.637 111.669 127.282 111.669 127.282C111.669 127.282 111.76 132.415 109.102 133.949C106.445 135.483 94.3466 137.283 94.3466 137.283C94.3466 137.283 101.955 127.706 104.612 126.171Z" fill="#D25EE1"/>
<path d="M106.321 112.833C109.285 113.628 110.526 118.609 110.526 118.609C110.526 118.609 106.961 122.302 103.997 121.508C101.033 120.714 91.2051 113.432 91.2051 113.432C91.2051 113.432 103.357 112.039 106.321 112.833Z" fill="#D25EE1"/>
<path d="M116.963 104.612C118.498 107.269 115.853 111.669 115.853 111.669C115.853 111.669 110.72 111.759 109.186 109.102C107.652 106.444 105.852 94.3462 105.852 94.3462C105.852 94.3462 115.429 101.954 116.963 104.612Z" fill="#D25EE1"/>
<path d="M130.301 106.322C129.507 109.286 124.526 110.527 124.526 110.527C124.526 110.527 120.832 106.962 121.626 103.998C122.421 101.034 129.703 91.2061 129.703 91.2061C129.703 91.2061 131.095 103.358 130.301 106.322Z" fill="#D25EE1"/>
<path d="M138.523 116.962C135.865 118.497 131.466 115.852 131.466 115.852C131.466 115.852 131.375 110.719 134.032 109.185C136.69 107.651 148.788 105.851 148.788 105.851C148.788 105.851 141.18 115.428 138.523 116.962Z" fill="#D25EE1"/>
</g>
</svg>
