<svg width="272" height="272" viewBox="0 0 272 272" fill="none" xmlns="http://www.w3.org/2000/svg">
<path d="M174.623 102.728C183.759 86.9033 194.717 55.1118 185.222 49.6299C175.727 44.148 153.673 69.533 144.536 85.3579C135.4 101.183 126.097 130.109 135.592 135.591C145.087 141.073 165.486 118.553 174.623 102.728Z" fill="#87C12F"/>
<path d="M183.356 153.452C201.629 153.452 234.64 147.045 234.64 136.081C234.64 125.117 201.629 118.711 183.356 118.711C165.083 118.711 135.381 125.117 135.381 136.081C135.381 147.045 165.083 153.452 183.356 153.452Z" fill="#87C12F"/>
<path d="M144.327 186.315C153.464 202.14 175.517 227.525 185.012 222.043C194.507 216.561 183.55 184.769 174.413 168.944C165.277 153.119 144.878 130.6 135.383 136.082C125.888 141.564 135.191 170.49 144.327 186.315Z" fill="#87C12F"/>
<path d="M96.5608 168.453C87.4242 184.278 76.467 216.069 85.962 221.551C95.457 227.033 117.511 201.648 126.647 185.823C135.784 169.998 145.087 141.072 135.592 135.59C126.097 130.108 105.697 152.628 96.5608 168.453Z" fill="#87C12F"/>
<path d="M126.03 86.2991C116.894 70.4741 94.8401 45.0892 85.3452 50.5711C75.8502 56.053 86.8074 87.8445 95.944 103.669C105.081 119.494 125.48 142.014 134.975 136.532C144.47 131.05 135.167 102.124 126.03 86.2991Z" fill="#87C12F"/>
<path d="M86.9993 119.162C68.7262 119.162 35.7153 125.569 35.7153 136.532C35.7153 147.496 68.7262 153.903 86.9993 153.903C105.272 153.903 134.975 147.496 134.975 136.533C134.975 125.569 105.272 119.162 86.9993 119.162Z" fill="#87C12F"/>
<g style="mix-blend-mode:multiply">
<ellipse cx="135.591" cy="135.59" rx="22.382" ry="22.382" transform="rotate(30 135.591 135.59)" fill="#87C12F"/>
<path d="M148.714 148.624C145.916 147.009 146.012 141.606 146.012 141.606C146.012 141.606 150.643 138.822 153.44 140.437C156.238 142.052 164.246 152.133 164.246 152.133C164.246 152.133 151.511 150.239 148.714 148.624Z" fill="#87C12F"/>
<path d="M135.654 154.085C134.818 150.965 138.706 147.212 138.706 147.212C138.706 147.212 143.949 148.518 144.785 151.638C145.621 154.758 144.155 167.55 144.155 167.55C144.155 167.55 136.49 157.205 135.654 154.085Z" fill="#87C12F"/>
<path d="M122.559 148.712C124.174 145.914 129.577 146.01 129.577 146.01C129.577 146.01 132.361 150.641 130.746 153.438C129.131 156.236 119.049 164.244 119.049 164.244C119.049 164.244 120.944 151.509 122.559 148.712Z" fill="#87C12F"/>
<path d="M117.097 135.653C120.217 134.817 123.97 138.705 123.97 138.705C123.97 138.705 122.664 143.948 119.544 144.784C116.424 145.62 103.632 144.154 103.632 144.154C103.632 144.154 113.977 136.489 117.097 135.653Z" fill="#87C12F"/>
<path d="M122.47 122.557C125.267 124.172 125.172 129.575 125.172 129.575C125.172 129.575 120.541 132.359 117.743 130.744C114.946 129.129 106.938 119.047 106.938 119.047C106.938 119.047 119.673 120.942 122.47 122.557Z" fill="#87C12F"/>
<path d="M135.53 117.097C136.366 120.217 132.478 123.969 132.478 123.969C132.478 123.969 127.235 122.663 126.399 119.543C125.563 116.423 127.028 103.632 127.028 103.632C127.028 103.632 134.694 113.977 135.53 117.097Z" fill="#87C12F"/>
<path d="M148.625 122.469C147.01 125.267 141.607 125.171 141.607 125.171C141.607 125.171 138.823 120.54 140.438 117.743C142.053 114.945 152.134 106.937 152.134 106.937C152.134 106.937 150.24 119.672 148.625 122.469Z" fill="#87C12F"/>
<path d="M154.087 135.528C150.967 136.364 147.214 132.476 147.214 132.476C147.214 132.476 148.52 127.233 151.64 126.397C154.76 125.561 167.551 127.027 167.551 127.027C167.551 127.027 157.207 134.692 154.087 135.528Z" fill="#87C12F"/>
</g>
</svg>
