<svg width="244" height="244" viewBox="0 0 244 244" fill="none" xmlns="http://www.w3.org/2000/svg">
<path d="M150.763 79.7228C155.492 62.0723 157.848 28.5281 147.258 25.6905C136.667 22.8528 121.935 53.0807 117.206 70.7312C112.477 88.3817 110.977 118.73 121.567 121.568C132.158 124.405 146.034 97.3732 150.763 79.7228Z" fill="#FF513A"/>
<path d="M112.241 70.0056C103.105 54.1807 81.0511 28.7957 71.5561 34.2776C62.0611 39.7596 73.0184 71.551 82.1549 87.376C91.2915 103.201 111.691 125.721 121.186 120.239C130.681 114.757 121.378 85.8306 112.241 70.0056Z" fill="#FF513A"/>
<path d="M163.412 150.762C181.062 155.492 214.606 157.848 217.444 147.257C220.281 136.667 190.054 121.935 172.403 117.206C154.753 112.476 124.404 110.977 121.567 121.567C118.729 132.157 145.761 146.033 163.412 150.762Z" fill="#FF513A"/>
<path d="M171.531 111.812C187.356 102.675 212.741 80.6214 207.259 71.1264C201.778 61.6314 169.986 72.5887 154.161 81.7252C138.336 90.8618 115.817 111.261 121.298 120.756C126.78 130.251 155.706 120.948 171.531 111.812Z" fill="#FF513A"/>
<path d="M92.3738 163.412C87.6443 181.062 85.2887 214.607 95.879 217.444C106.469 220.282 121.201 190.054 125.931 172.404C130.66 154.753 132.16 124.405 121.569 121.567C110.979 118.73 97.1032 145.762 92.3738 163.412Z" fill="#FF513A"/>
<path d="M129.726 171.102C138.862 186.927 160.916 212.312 170.411 206.83C179.906 201.348 168.948 169.557 159.812 153.732C150.675 137.907 130.276 115.387 120.781 120.869C111.286 126.351 120.589 155.277 129.726 171.102Z" fill="#FF513A"/>
<path d="M79.7232 92.3718C62.0728 87.6424 28.5286 85.2868 25.691 95.8771C22.8533 106.467 53.0812 121.199 70.7317 125.929C88.3822 130.658 118.73 132.158 121.568 121.567C124.406 110.977 97.3737 97.1012 79.7232 92.3718Z" fill="#FF513A"/>
<path d="M70.4353 129.297C54.6103 138.433 29.2254 160.487 34.7073 169.982C40.1892 179.477 71.9807 168.52 87.8057 159.383C103.631 150.247 126.15 129.847 120.668 120.352C115.186 110.857 86.2603 120.16 70.4353 129.297Z" fill="#FF513A"/>
<g style="mix-blend-mode:multiply">
<ellipse cx="121.567" cy="121.567" rx="22.382" ry="22.382" transform="rotate(15 121.567 121.567)" fill="#FF513A"/>
<path d="M137.615 130.76C134.495 129.924 133.189 124.681 133.189 124.681C133.189 124.681 136.942 120.793 140.062 121.629C143.182 122.465 153.527 130.131 153.527 130.131C153.527 130.131 140.735 131.596 137.615 130.76Z" fill="#FF513A"/>
<path d="M126.415 139.415C124.8 136.618 127.584 131.987 127.584 131.987C127.584 131.987 132.987 131.891 134.602 134.688C136.217 137.486 138.112 150.221 138.112 150.221C138.112 150.221 128.03 142.212 126.415 139.415Z" fill="#FF513A"/>
<path d="M112.375 137.615C113.211 134.495 118.454 133.189 118.454 133.189C118.454 133.189 122.342 136.941 121.506 140.061C120.67 143.181 113.005 153.526 113.005 153.526C113.005 153.526 111.539 140.735 112.375 137.615Z" fill="#FF513A"/>
<path d="M103.72 126.414C106.517 124.799 111.148 127.583 111.148 127.583C111.148 127.583 111.244 132.986 108.446 134.601C105.649 136.216 92.914 138.111 92.914 138.111C92.914 138.111 100.922 128.029 103.72 126.414Z" fill="#FF513A"/>
<path d="M105.52 112.374C108.64 113.21 109.946 118.453 109.946 118.453C109.946 118.453 106.193 122.341 103.073 121.505C99.953 120.669 89.6081 113.004 89.6081 113.004C89.6081 113.004 102.4 111.538 105.52 112.374Z" fill="#FF513A"/>
<path d="M116.722 103.719C118.337 106.517 115.553 111.148 115.553 111.148C115.553 111.148 110.15 111.243 108.535 108.446C106.92 105.649 105.025 92.9135 105.025 92.9135C105.025 92.9135 115.107 100.922 116.722 103.719Z" fill="#FF513A"/>
<path d="M130.762 105.52C129.926 108.64 124.683 109.946 124.683 109.946C124.683 109.946 120.795 106.194 121.631 103.073C122.467 99.9535 130.132 89.6086 130.132 89.6086C130.132 89.6086 131.598 102.4 130.762 105.52Z" fill="#FF513A"/>
<path d="M139.415 116.721C136.618 118.336 131.987 115.552 131.987 115.552C131.987 115.552 131.891 110.149 134.688 108.534C137.486 106.919 150.221 105.024 150.221 105.024C150.221 105.024 142.212 115.106 139.415 116.721Z" fill="#FF513A"/>
</g>
</svg>
