<svg width="199" height="199" viewBox="0 0 199 199" fill="none" xmlns="http://www.w3.org/2000/svg">
<ellipse cx="99.2593" cy="99.2592" rx="99.2593" ry="99.2592" fill="#FFAC4B"/>
<g style="mix-blend-mode:multiply">
<path d="M99.2586 43.0122L103.564 88.866L139.031 59.4865L109.652 94.9542L155.506 99.2591L109.652 103.564L139.031 139.032L103.564 109.652L99.2586 155.506L94.9537 109.652L59.4861 139.032L88.8656 103.564L43.0117 99.2591L88.8656 94.9542L59.4861 59.4865L94.9537 88.866L99.2586 43.0122Z" fill="#FFAC4B"/>
<ellipse cx="23.1605" cy="23.1605" rx="23.1605" ry="23.1605" transform="matrix(-1 0 0 1 122.42 76.0986)" fill="#FFAC4B"/>
<path d="M111.086 83.9233C108.753 86.2563 108.616 89.9022 108.616 89.9022C108.616 89.9022 112.262 89.7656 114.595 87.4327C116.928 85.0997 123.823 74.695 123.823 74.695C123.823 74.695 113.419 81.5903 111.086 83.9233Z" fill="#FFAC4B"/>
<path d="M116.056 89.6175C113.007 90.8801 111.486 94.1963 111.486 94.1963C111.486 94.1963 114.907 95.4653 117.955 94.2027C121.003 92.9401 131.355 85.9662 131.355 85.9662C131.355 85.9662 119.104 88.3549 116.056 89.6175Z" fill="#FFAC4B"/>
<path d="M118.468 96.7787C115.168 96.7787 112.494 99.2602 112.494 99.2602C112.494 99.2602 115.168 101.742 118.468 101.742C121.767 101.742 134 99.2602 134 99.2602C134 99.2602 121.767 96.7787 118.468 96.7787Z" fill="#FFAC4B"/>
<path d="M117.956 104.319C114.907 103.056 111.487 104.325 111.487 104.325C111.487 104.325 113.008 107.641 116.056 108.904C119.105 110.166 131.356 112.555 131.356 112.555C131.356 112.555 121.004 105.581 117.956 104.319Z" fill="#FFAC4B"/>
<path d="M114.597 111.088C112.264 108.755 108.618 108.619 108.618 108.619C108.618 108.619 108.754 112.265 111.087 114.598C113.42 116.931 123.825 123.826 123.825 123.826C123.825 123.826 116.93 113.421 114.597 111.088Z" fill="#FFAC4B"/>
<path d="M108.903 116.057C107.64 113.009 104.324 111.487 104.324 111.487C104.324 111.487 103.055 114.908 104.318 117.956C105.58 121.004 112.554 131.357 112.554 131.357C112.554 131.357 110.166 119.105 108.903 116.057Z" fill="#FFAC4B"/>
<path d="M101.74 118.469C101.74 115.169 99.2588 112.495 99.2588 112.495C99.2588 112.495 96.7773 115.169 96.7773 118.469C96.7773 121.768 99.2588 134.001 99.2588 134.001C99.2588 134.001 101.74 121.768 101.74 118.469Z" fill="#FFAC4B"/>
<path d="M94.201 117.956C95.4636 114.908 94.1945 111.487 94.1945 111.487C94.1945 111.487 90.8784 113.009 89.6158 116.057C88.3532 119.105 85.9645 131.356 85.9645 131.356C85.9645 131.356 92.9384 121.004 94.201 117.956Z" fill="#FFAC4B"/>
<path d="M87.4317 114.597C89.7647 112.264 89.9013 108.618 89.9013 108.618C89.9013 108.618 86.2554 108.755 83.9224 111.088C81.5894 113.421 74.6941 123.825 74.6941 123.825C74.6941 123.825 85.0988 116.93 87.4317 114.597Z" fill="#FFAC4B"/>
<path d="M82.462 108.903C85.5102 107.64 87.0316 104.324 87.0316 104.324C87.0316 104.324 83.611 103.055 80.5628 104.318C77.5146 105.58 67.1625 112.554 67.1625 112.554C67.1625 112.554 79.4139 110.166 82.462 108.903Z" fill="#FFAC4B"/>
<path d="M80.0498 101.741C83.3491 101.741 86.0237 99.2598 86.0237 99.2598C86.0237 99.2598 83.3491 96.7783 80.0498 96.7783C76.7505 96.7783 64.5176 99.2598 64.5176 99.2598C64.5176 99.2598 76.7505 101.741 80.0498 101.741Z" fill="#FFAC4B"/>
<path d="M80.562 94.2015C83.6102 95.4641 87.0308 94.195 87.0308 94.195C87.0308 94.195 85.5094 90.8789 82.4612 89.6163C79.4131 88.3537 67.1617 85.965 67.1617 85.965C67.1617 85.965 77.5138 92.9389 80.562 94.2015Z" fill="#FFAC4B"/>
<path d="M83.9209 87.4317C86.2538 89.7647 89.8998 89.9013 89.8998 89.9013C89.8998 89.9013 89.7632 86.2554 87.4302 83.9224C85.0972 81.5894 74.6926 74.6941 74.6926 74.6941C74.6926 74.6941 81.5879 85.0988 83.9209 87.4317Z" fill="#FFAC4B"/>
<path d="M89.6146 82.463C90.8772 85.5112 94.1933 87.0326 94.1933 87.0326C94.1933 87.0326 95.4624 83.6119 94.1998 80.5638C92.9372 77.5156 85.9633 67.1635 85.9633 67.1635C85.9633 67.1635 88.352 79.4149 89.6146 82.463Z" fill="#FFAC4B"/>
<path d="M96.7773 80.0508C96.7773 83.3501 99.2588 86.0247 99.2588 86.0247C99.2588 86.0247 101.74 83.3501 101.74 80.0508C101.74 76.7515 99.2588 64.5186 99.2588 64.5186C99.2588 64.5186 96.7773 76.7515 96.7773 80.0508Z" fill="#FFAC4B"/>
<path d="M104.317 80.5644C103.054 83.6126 104.323 87.0333 104.323 87.0333C104.323 87.0333 107.639 85.5119 108.902 82.4637C110.164 79.4155 112.553 67.1641 112.553 67.1641C112.553 67.1641 105.579 77.5163 104.317 80.5644Z" fill="#FFAC4B"/>
</g>
</svg>
