<svg width="244" height="244" viewBox="0 0 244 244" fill="none" xmlns="http://www.w3.org/2000/svg">
<path d="M107.9 86.4038C103.611 75.5799 103.361 61.7965 107.162 47.6113C112.759 26.722 128.882 20.766 147.287 25.6977C166.462 30.8357 176.677 43.8488 171.08 64.7381C167.271 78.9519 159.931 90.7119 151.271 98.0251L126.736 121.486C124.204 123.907 118.189 122.291 117.216 118.928L107.9 86.4038Z" fill="#87C12F"/>
<path d="M84.4959 123.038C72.8765 123.771 59.6903 119.75 47.374 111.752C29.2367 99.9734 28.5545 82.7992 38.9323 66.8187C49.7443 50.1697 65.277 44.4762 83.4143 56.2547C95.7555 64.2692 104.672 74.8842 108.951 85.3801L123.682 115.964C125.202 119.12 121.806 124.342 118.307 124.228L84.4959 123.038Z" fill="#87C12F"/>
<path d="M111.794 159.21C108.901 170.487 101.002 181.785 89.589 191.027C72.7823 204.637 56.2378 199.979 44.2464 185.171C31.7533 169.743 31.1383 153.211 47.9451 139.601C59.381 130.341 72.2317 125.141 83.5363 124.315L117.175 119.756C120.647 119.285 124.563 124.129 123.374 127.421L111.794 159.21Z" fill="#87C12F"/>
<path d="M154.085 142.56C163.917 148.796 172.221 159.8 177.484 173.51C185.234 193.7 175.691 207.995 157.902 214.824C139.369 221.938 123.456 217.414 115.706 197.225C110.433 183.487 109.459 169.658 112.166 158.652L118.225 125.25C118.85 121.803 124.667 119.575 127.431 121.724L154.085 142.56Z" fill="#87C12F"/>
<path d="M151.161 97.0522C160.13 89.6287 173.162 85.1313 187.827 84.3627C209.424 83.2309 220.07 96.7241 221.068 115.753C222.107 135.577 212.887 149.313 191.29 150.445C176.595 151.215 163.143 147.868 153.511 141.892L123.617 125.808C120.532 124.148 120.21 117.927 123.108 115.963L151.161 97.0522Z" fill="#87C12F"/>
<g style="mix-blend-mode:multiply">
<path d="M104.745 110.312C98.5289 119.603 101.022 132.174 110.313 138.39C119.604 144.607 132.175 142.114 138.391 132.823C144.608 123.532 142.115 110.961 132.824 104.744C123.533 98.5281 110.961 101.021 104.745 110.312Z" fill="#87C12F"/>
<path fill-rule="evenodd" clip-rule="evenodd" d="M47.6564 99.3613L193.74 140.656L193.052 143.091L46.9682 101.796L47.6564 99.3613Z" fill="#87C12F"/>
<path d="M193.581 145.87C191.564 145.3 190.391 143.202 190.961 141.185C191.532 139.168 193.629 137.996 195.646 138.566C197.663 139.136 198.836 141.233 198.266 143.25C197.695 145.267 195.598 146.44 193.581 145.87Z" fill="#87C12F"/>
<path d="M47.4973 104.575C45.4803 104.005 44.3074 101.907 44.8776 99.8905C45.4477 97.8735 47.545 96.7006 49.562 97.2707C51.579 97.8409 52.7519 99.9382 52.1818 101.955C51.6116 103.972 49.5143 105.145 47.4973 104.575Z" fill="#87C12F"/>
<path fill-rule="evenodd" clip-rule="evenodd" d="M74.8272 60.1565L168.739 179.431L166.751 180.996L72.8393 61.7217L74.8272 60.1565Z" fill="#87C12F"/>
<path d="M165.546 183.555C164.249 181.908 164.533 179.522 166.18 178.225C167.827 176.929 170.213 177.213 171.509 178.86C172.806 180.506 172.522 182.893 170.875 184.189C169.228 185.486 166.842 185.202 165.546 183.555Z" fill="#87C12F"/>
<path d="M71.634 64.2809C70.3373 62.634 70.6212 60.2479 72.268 58.9512C73.9149 57.6546 76.301 57.9385 77.5977 59.5853C78.8943 61.2321 78.6104 63.6183 76.9636 64.9149C75.3168 66.2116 72.9306 65.9277 71.634 64.2809Z" fill="#87C12F"/>
<path fill-rule="evenodd" clip-rule="evenodd" d="M119.853 44.4098L125.721 196.105L123.193 196.202L117.324 44.5077L119.853 44.4098Z" fill="#87C12F"/>
<path d="M120.714 197.564C120.633 195.47 122.265 193.706 124.359 193.625C126.454 193.544 128.217 195.177 128.298 197.271C128.379 199.365 126.747 201.129 124.653 201.21C122.558 201.291 120.795 199.659 120.714 197.564Z" fill="#87C12F"/>
<path d="M114.845 45.8696C114.764 43.7751 116.396 42.0115 118.491 41.9305C120.585 41.8495 122.349 43.4817 122.43 45.5762C122.511 47.6706 120.879 49.4342 118.784 49.5152C116.69 49.5963 114.926 47.964 114.845 45.8696Z" fill="#87C12F"/>
<path fill-rule="evenodd" clip-rule="evenodd" d="M165.535 58.1354L81.1187 184.308L79.0159 182.902L163.432 56.7284L165.535 58.1354Z" fill="#87C12F"/>
<path d="M76.2095 182.546C77.3751 180.804 79.7322 180.337 81.4742 181.502C83.2163 182.668 83.6837 185.025 82.5182 186.767C81.3526 188.509 78.9955 188.976 77.2534 187.811C75.5113 186.645 75.044 184.288 76.2095 182.546Z" fill="#87C12F"/>
<path d="M160.626 56.3729C161.791 54.6309 164.148 54.1635 165.89 55.329C167.633 56.4946 168.1 58.8517 166.934 60.5937C165.769 62.3358 163.412 62.8032 161.67 61.6377C159.928 60.4721 159.46 58.115 160.626 56.3729Z" fill="#87C12F"/>
<path fill-rule="evenodd" clip-rule="evenodd" d="M194.425 96.0911L51.9678 148.549L51.0935 146.174L193.55 93.7169L194.425 96.0911Z" fill="#87C12F"/>
<path d="M49.0321 144.237C50.999 143.513 53.1807 144.52 53.905 146.487C54.6292 148.454 53.6219 150.636 51.655 151.36C49.6881 152.084 47.5064 151.077 46.7821 149.11C46.0578 147.143 47.0652 144.962 49.0321 144.237Z" fill="#87C12F"/>
<path d="M191.489 91.7797C193.456 91.0554 195.638 92.0628 196.362 94.0297C197.086 95.9966 196.079 98.1783 194.112 98.9026C192.145 99.6269 189.963 98.6195 189.239 96.6526C188.515 94.6857 189.522 92.504 191.489 91.7797Z" fill="#87C12F"/>
<path fill-rule="evenodd" clip-rule="evenodd" d="M195.487 143.779L49.4033 102.484L50.0916 100.049L196.175 141.344L195.487 143.779Z" fill="#87C12F"/>
<path d="M49.562 97.2707C51.579 97.8409 52.7519 99.9382 52.1818 101.955C51.6116 103.972 49.5143 105.145 47.4973 104.575C45.4803 104.005 44.3074 101.907 44.8776 99.8905C45.4477 97.8735 47.545 96.7006 49.562 97.2707Z" fill="#87C12F"/>
<path d="M195.646 138.566C197.663 139.136 198.836 141.233 198.266 143.25C197.695 145.267 195.598 146.44 193.581 145.87C191.564 145.3 190.391 143.202 190.961 141.185C191.532 139.168 193.629 137.996 195.646 138.566Z" fill="#87C12F"/>
<path fill-rule="evenodd" clip-rule="evenodd" d="M168.316 182.984L74.4047 63.7095L76.3926 62.1443L170.304 181.419L168.316 182.984Z" fill="#87C12F"/>
<path d="M77.5977 59.5853C78.8943 61.2321 78.6104 63.6183 76.9636 64.9149C75.3168 66.2116 72.9306 65.9277 71.634 64.2809C70.3373 62.634 70.6212 60.2479 72.268 58.9512C73.9149 57.6546 76.301 57.9385 77.5977 59.5853Z" fill="#87C12F"/>
<path d="M171.509 178.86C172.806 180.506 172.522 182.893 170.875 184.189C169.228 185.486 166.842 185.202 165.546 183.555C164.249 181.908 164.533 179.522 166.18 178.225C167.827 176.929 170.213 177.213 171.509 178.86Z" fill="#87C12F"/>
<path fill-rule="evenodd" clip-rule="evenodd" d="M123.291 198.731L117.422 47.0362L119.95 46.9384L125.819 198.633L123.291 198.731Z" fill="#87C12F"/>
<path d="M122.43 45.5762C122.511 47.6706 120.879 49.4342 118.784 49.5152C116.69 49.5963 114.926 47.964 114.845 45.8696C114.764 43.7751 116.396 42.0115 118.491 41.9305C120.585 41.8495 122.349 43.4817 122.43 45.5762Z" fill="#87C12F"/>
<path d="M128.298 197.271C128.379 199.365 126.747 201.129 124.653 201.21C122.558 201.291 120.795 199.659 120.714 197.564C120.633 195.47 122.265 193.706 124.359 193.625C126.454 193.544 128.217 195.177 128.298 197.271Z" fill="#87C12F"/>
<path fill-rule="evenodd" clip-rule="evenodd" d="M77.6086 185.005L162.025 58.8319L164.128 60.2388L79.7115 186.412L77.6086 185.005Z" fill="#87C12F"/>
<path d="M166.934 60.5937C165.769 62.3358 163.412 62.8032 161.67 61.6377C159.928 60.4721 159.46 58.115 160.626 56.3729C161.791 54.6309 164.148 54.1635 165.89 55.329C167.633 56.4946 168.1 58.8517 166.934 60.5937Z" fill="#87C12F"/>
<path d="M82.5182 186.767C81.3526 188.509 78.9955 188.976 77.2534 187.811C75.5113 186.645 75.044 184.288 76.2095 182.546C77.3751 180.804 79.7322 180.337 81.4742 181.502C83.2163 182.668 83.6837 185.025 82.5182 186.767Z" fill="#87C12F"/>
<path fill-rule="evenodd" clip-rule="evenodd" d="M48.7188 147.049L191.176 94.5915L192.05 96.9658L49.5931 149.423L48.7188 147.049Z" fill="#87C12F"/>
<path d="M194.112 98.9026C192.145 99.6269 189.963 98.6195 189.239 96.6526C188.515 94.6857 189.522 92.504 191.489 91.7797C193.456 91.0554 195.638 92.0628 196.362 94.0297C197.086 95.9966 196.079 98.1783 194.112 98.9026Z" fill="#87C12F"/>
<path d="M51.655 151.36C49.6881 152.084 47.5064 151.077 46.7821 149.11C46.0578 147.143 47.0652 144.962 49.0321 144.237C50.999 143.513 53.1807 144.52 53.905 146.487C54.6292 148.454 53.6219 150.636 51.655 151.36Z" fill="#87C12F"/>
<circle cx="10.1206" cy="10.1206" r="10.1206" transform="matrix(-0.831135 -0.556071 -0.556071 0.831135 135.607 118.784)" fill="#87C12F"/>
</g>
</svg>
