<svg width="219" height="219" viewBox="0 0 219 219" fill="none" xmlns="http://www.w3.org/2000/svg">
<path d="M86.839 78.7161C79.8951 69.371 76.0859 56.122 76.0859 41.4365C76.0859 19.8102 90.1179 9.88428 109.172 9.88428C129.024 9.88428 142.259 19.8102 142.259 41.4364C142.259 56.1517 138.212 69.4107 131.74 78.7161L114.114 107.728C112.295 110.722 106.066 110.717 104.256 107.721L86.839 78.7161Z" fill="#F43507"/>
<path d="M73.7175 120.159C62.684 123.875 48.9063 123.403 34.9395 118.865C14.3718 112.183 9.26775 95.7701 15.1559 77.6481C21.2904 58.768 34.8203 49.2484 55.3881 55.9313C69.3831 60.4785 80.7428 68.4242 87.5928 77.4549L109.737 103.184C112.023 105.839 110.094 111.762 106.685 112.557L73.7175 120.159Z" fill="#F43507"/>
<path d="M109.446 148.033C109.571 159.675 104.865 172.632 96.2334 184.513C83.5218 202.009 66.3354 201.792 50.92 190.592C34.8596 178.923 29.9869 163.114 42.6984 145.618C51.3478 133.713 62.415 125.365 73.1204 121.641L104.433 108.53C107.665 107.177 112.701 110.842 112.405 114.33L109.446 148.033Z" fill="#F43507"/>
<path d="M145.987 121.006C157.097 124.484 167.967 132.964 176.599 144.845C189.31 162.341 183.792 178.619 168.377 189.819C152.317 201.487 135.775 201.236 123.064 183.74C114.414 171.835 109.894 158.73 109.661 147.398L106.869 113.566C106.58 110.075 111.622 106.417 114.848 107.777L145.987 121.006Z" fill="#F43507"/>
<path d="M131.383 77.8046C138.125 68.3128 149.549 60.5958 163.516 56.0578C184.083 49.3749 197.86 59.6528 203.748 77.7747C209.882 96.6548 204.532 112.309 183.964 118.992C169.969 123.539 156.109 123.788 145.259 120.508L112.22 112.709C108.811 111.905 106.89 105.979 109.18 103.332L131.383 77.8046Z" fill="#F43507"/>
<g style="mix-blend-mode:multiply">
<path d="M89.982 102.626C86.3823 113.209 92.0437 124.707 102.627 128.307C113.211 131.906 124.708 126.245 128.308 115.661C131.908 105.078 126.246 93.5803 115.663 89.9806C105.079 86.3809 93.5817 92.0423 89.982 102.626Z" fill="#F43507"/>
<path fill-rule="evenodd" clip-rule="evenodd" d="M32.0043 106.824L183.798 108.903L183.764 111.432L31.9696 109.354L32.0043 106.824Z" fill="#F43507"/>
<path d="M184.994 113.98C182.898 113.951 181.222 112.229 181.251 110.133C181.28 108.037 183.002 106.361 185.098 106.39C187.194 106.419 188.869 108.141 188.841 110.237C188.812 112.333 187.09 114.008 184.994 113.98Z" fill="#F43507"/>
<path d="M33.1999 111.901C31.1041 111.872 29.4283 110.15 29.457 108.054C29.4857 105.958 31.208 104.283 33.3039 104.311C35.3997 104.34 37.0754 106.062 37.0467 108.158C37.018 110.254 35.2958 111.93 33.1999 111.901Z" fill="#F43507"/>
<path fill-rule="evenodd" clip-rule="evenodd" d="M48.1022 61.9227L169.684 152.827L168.169 154.853L46.5872 63.9491L48.1022 61.9227Z" fill="#F43507"/>
<path d="M167.667 157.637C165.989 156.382 165.645 154.003 166.901 152.325C168.156 150.646 170.534 150.303 172.213 151.558C173.891 152.813 174.235 155.191 172.98 156.87C171.725 158.549 169.346 158.892 167.667 157.637Z" fill="#F43507"/>
<path d="M46.0853 66.733C44.4066 65.4778 44.0632 63.0995 45.3183 61.4208C46.5735 59.7421 48.9518 59.3987 50.6305 60.6539C52.3092 61.909 52.6526 64.2873 51.3975 65.966C50.1423 67.6447 47.764 67.9881 46.0853 66.733Z" fill="#F43507"/>
<path fill-rule="evenodd" clip-rule="evenodd" d="M87.518 35.0591L132.448 180.066L130.031 180.815L85.1012 35.8079L87.518 35.0591Z" fill="#F43507"/>
<path d="M127.989 182.772C127.369 180.77 128.489 178.644 130.491 178.024C132.493 177.403 134.619 178.524 135.239 180.526C135.86 182.528 134.739 184.654 132.737 185.274C130.735 185.894 128.609 184.774 127.989 182.772Z" fill="#F43507"/>
<path d="M83.0588 37.7652C82.4385 35.763 83.5586 33.6371 85.5607 33.0167C87.5629 32.3964 89.6888 33.5165 90.3092 35.5187C90.9295 37.5208 89.8094 39.6467 87.8073 40.2671C85.8051 40.8874 83.6792 39.7673 83.0588 37.7652Z" fill="#F43507"/>
<path fill-rule="evenodd" clip-rule="evenodd" d="M135.196 36.4935L86.3123 180.216L83.917 179.401L132.801 35.6788L135.196 36.4935Z" fill="#F43507"/>
<path d="M81.1142 179.784C81.7892 177.8 83.945 176.738 85.9294 177.413C87.9138 178.088 88.9753 180.244 88.3003 182.228C87.6254 184.213 85.4696 185.274 83.4852 184.599C81.5008 183.924 80.4393 181.768 81.1142 179.784Z" fill="#F43507"/>
<path d="M129.998 36.0617C130.673 34.0773 132.829 33.0158 134.813 33.6907C136.798 34.3657 137.859 36.5215 137.184 38.5059C136.509 40.4903 134.353 41.5518 132.369 40.8769C130.385 40.2019 129.323 38.0461 129.998 36.0617Z" fill="#F43507"/>
<path fill-rule="evenodd" clip-rule="evenodd" d="M172.925 65.6787L48.8994 153.219L47.4404 151.152L171.466 63.6116L172.925 65.6787Z" fill="#F43507"/>
<path d="M44.9478 149.815C46.6603 148.606 49.0283 149.014 50.237 150.727C51.4457 152.439 51.0373 154.807 49.3249 156.016C47.6124 157.225 45.2444 156.816 44.0357 155.104C42.827 153.391 43.2354 151.023 44.9478 149.815Z" fill="#F43507"/>
<path d="M168.974 62.2741C170.686 61.0654 173.054 61.4737 174.263 63.1862C175.471 64.8986 175.063 67.2667 173.351 68.4753C171.638 69.684 169.27 69.2757 168.061 67.5632C166.853 65.8508 167.261 63.4827 168.974 62.2741Z" fill="#F43507"/>
<path fill-rule="evenodd" clip-rule="evenodd" d="M186.294 111.467L34.4999 109.388L34.5345 106.858L186.329 108.937L186.294 111.467Z" fill="#F43507"/>
<path d="M33.3039 104.311C35.3997 104.34 37.0754 106.062 37.0467 108.158C37.018 110.254 35.2958 111.93 33.1999 111.901C31.1041 111.872 29.4283 110.15 29.457 108.054C29.4857 105.958 31.208 104.283 33.3039 104.311Z" fill="#F43507"/>
<path d="M185.098 106.39C187.194 106.419 188.869 108.141 188.841 110.237C188.812 112.333 187.09 114.008 184.994 113.98C182.898 113.951 181.222 112.229 181.251 110.133C181.28 108.037 183.002 106.361 185.098 106.39Z" fill="#F43507"/>
<path fill-rule="evenodd" clip-rule="evenodd" d="M170.196 156.368L48.6137 65.464L50.1288 63.4376L171.711 154.342L170.196 156.368Z" fill="#F43507"/>
<path d="M50.6305 60.6539C52.3092 61.909 52.6526 64.2873 51.3975 65.966C50.1423 67.6447 47.764 67.9881 46.0853 66.733C44.4066 65.4778 44.0632 63.0995 45.3183 61.4208C46.5735 59.7421 48.9518 59.3987 50.6305 60.6539Z" fill="#F43507"/>
<path d="M172.213 151.558C173.891 152.813 174.235 155.191 172.98 156.87C171.725 158.549 169.346 158.892 167.667 157.637C165.989 156.382 165.645 154.003 166.901 152.325C168.156 150.646 170.534 150.303 172.213 151.558Z" fill="#F43507"/>
<path fill-rule="evenodd" clip-rule="evenodd" d="M130.78 183.232L85.85 38.2251L88.2668 37.4762L133.197 182.483L130.78 183.232Z" fill="#F43507"/>
<path d="M90.3092 35.5187C90.9295 37.5208 89.8094 39.6467 87.8073 40.2671C85.8051 40.8874 83.6792 39.7673 83.0588 37.7652C82.4385 35.763 83.5586 33.6371 85.5607 33.0167C87.5629 32.3964 89.6888 33.5165 90.3092 35.5187Z" fill="#F43507"/>
<path d="M135.239 180.526C135.86 182.528 134.739 184.654 132.737 185.274C130.735 185.894 128.609 184.774 127.989 182.772C127.369 180.77 128.489 178.644 130.491 178.024C132.493 177.403 134.619 178.524 135.239 180.526Z" fill="#F43507"/>
<path fill-rule="evenodd" clip-rule="evenodd" d="M83.1021 181.797L131.986 38.0747L134.381 38.8895L85.4975 182.612L83.1021 181.797Z" fill="#F43507"/>
<path d="M137.184 38.5059C136.509 40.4903 134.353 41.5518 132.369 40.8769C130.385 40.2019 129.323 38.0461 129.998 36.0617C130.673 34.0773 132.829 33.0158 134.813 33.6907C136.798 34.3657 137.859 36.5215 137.184 38.5059Z" fill="#F43507"/>
<path d="M88.3003 182.228C87.6254 184.213 85.4696 185.274 83.4852 184.599C81.5008 183.924 80.4393 181.768 81.1142 179.784C81.7892 177.8 83.945 176.738 85.9294 177.413C87.9138 178.088 88.9753 180.244 88.3003 182.228Z" fill="#F43507"/>
<path fill-rule="evenodd" clip-rule="evenodd" d="M45.3729 152.612L169.399 65.0711L170.858 67.1382L46.832 154.679L45.3729 152.612Z" fill="#F43507"/>
<path d="M173.351 68.4753C171.638 69.684 169.27 69.2757 168.061 67.5632C166.853 65.8508 167.261 63.4827 168.974 62.2741C170.686 61.0654 173.054 61.4737 174.263 63.1862C175.471 64.8986 175.063 67.2667 173.351 68.4753Z" fill="#F43507"/>
<path d="M49.3249 156.016C47.6124 157.225 45.2444 156.816 44.0357 155.104C42.827 153.391 43.2354 151.023 44.9478 149.815C46.6603 148.606 49.0283 149.014 50.237 150.727C51.4457 152.439 51.0373 154.807 49.3249 156.016Z" fill="#F43507"/>
<circle cx="10.1206" cy="10.1206" r="10.1206" transform="matrix(-0.946736 -0.32201 -0.32201 0.946736 121.984 102.821)" fill="#F43507"/>
</g>
</svg>
