<svg width="244" height="244" viewBox="0 0 244 244" fill="none" xmlns="http://www.w3.org/2000/svg">
<path d="M100.769 45.8984C106.367 25.0091 128.881 20.7658 147.286 25.6975C166.462 30.8355 183.068 45.5612 177.471 66.4506C170.382 92.905 147.822 107.285 126.736 121.486C124.204 123.907 118.188 122.291 117.215 118.928C106.257 96.2213 93.7489 72.0986 100.769 45.8984Z" fill="#EAD80A"/>
<path d="M43.7705 117.302C25.6332 105.523 28.555 82.7993 38.9328 66.8188C49.7448 50.1698 68.8816 38.9266 87.0188 50.7051C109.988 65.6214 116.693 91.5217 123.682 115.964C125.203 119.12 121.807 124.342 118.308 124.228C93.3261 127.634 66.5189 132.075 43.7705 117.302Z" fill="#EAD80A"/>
<path d="M93.755 196.17C76.9483 209.78 56.2394 199.979 44.248 185.171C31.7549 169.743 26.9756 148.069 43.7823 134.459C65.0665 117.223 91.7709 118.85 117.177 119.756C120.648 119.285 124.565 124.129 123.376 127.421C118.895 152.232 114.835 179.1 93.755 196.17Z" fill="#EAD80A"/>
<path d="M183.661 171.139C191.412 191.329 175.691 207.995 157.902 214.824C139.369 221.938 117.278 219.786 109.528 199.596C99.7134 174.027 109.513 149.133 118.225 125.25C118.85 121.803 124.667 119.575 127.431 121.723C149.643 133.652 173.941 145.816 183.661 171.139Z" fill="#EAD80A"/>
<path d="M187.479 77.7543C209.076 76.6225 220.069 96.724 221.066 115.752C222.105 135.577 213.232 155.921 191.635 157.053C164.285 158.486 143.637 141.473 123.616 125.808C120.53 124.148 120.209 117.927 123.106 115.963C141.315 98.5238 160.392 79.1739 187.479 77.7543Z" fill="#EAD80A"/>
<g style="mix-blend-mode:multiply">
<path d="M123.413 154.15C127.69 165.292 139.323 183.921 146.008 181.355C152.693 178.789 148.873 157.161 144.596 146.019C140.319 134.877 129.461 118.266 122.776 120.832C116.09 123.398 119.136 143.008 123.413 154.15Z" fill="#EAD80A"/>
<path d="M90.6625 132.114C81.3875 139.625 67.2653 156.445 71.7717 162.01C76.2782 167.575 95.6669 157.258 104.942 149.747C114.217 142.237 126.66 126.777 122.153 121.212C117.647 115.647 99.9375 124.603 90.6625 132.114Z" fill="#EAD80A"/>
<path d="M102.55 93.4399C92.5405 86.9398 72.1796 78.7064 68.2795 84.712C64.3794 90.7176 80.1825 105.969 90.1918 112.469C100.201 118.97 118.75 126.026 122.65 120.02C126.55 114.015 112.559 99.94 102.55 93.4399Z" fill="#EAD80A"/>
<path d="M141.33 93.1234C144.418 81.5954 145.957 59.6868 139.04 57.8334C132.123 55.9801 122.502 75.7227 119.413 87.2508C116.324 98.7788 115.344 118.6 122.261 120.453C129.178 122.307 138.241 104.651 141.33 93.1234Z" fill="#EAD80A"/>
<path d="M154.389 129.719C166.307 129.094 187.619 123.787 187.244 116.636C186.869 109.485 165.12 106.435 153.201 107.06C141.283 107.684 122.129 112.878 122.504 120.029C122.879 127.18 142.47 130.343 154.389 129.719Z" fill="#EAD80A"/>
</g>
<g style="mix-blend-mode:multiply" clip-path="url(#clip0_278_96074)">
<circle cx="121.568" cy="121.567" r="8.2716" transform="rotate(15 121.568 121.567)" fill="#EAD80A"/>
</g>
<defs>
<clipPath id="clip0_278_96074">
<rect width="16.5432" height="16.5432" fill="white" transform="translate(115.719 111.437) rotate(15)"/>
</clipPath>
</defs>
</svg>
