<svg width="63" height="44" viewBox="0 0 63 44" fill="none" xmlns="http://www.w3.org/2000/svg">
<path d="M22.1652 37.8569C20.5221 39.6761 17.6028 41.0395 13.4075 41.9469L7.49533 43.0824C6.82805 41.7629 5.3877 36.0598 3.17428 25.9733L2.47401 22.7356C1.90195 20.0908 1.72105 18.0773 1.9313 16.6953C2.15222 15.2154 2.93394 13.9007 4.27645 12.7512C4.95099 12.1916 6.00268 11.7572 7.43152 11.4482C8.86036 11.1392 9.97452 10.9936 10.774 11.0117C12.8117 11.0165 14.3474 11.4958 15.3811 12.4497C16.4083 13.3731 17.1421 14.8533 17.5826 16.8902C18.1679 19.5958 17.8841 21.7416 16.7314 23.3275C17.42 23.274 18.1948 23.4724 19.056 23.9226C19.9105 24.3424 20.6784 24.8764 21.3596 25.5247C22.4196 26.6002 23.1732 28.1715 23.6203 30.2388C24.3173 33.4613 23.8323 36.0006 22.1652 37.8569ZM5.3861 18.7644L5.77691 20.3506L6.9925 25.5294C7.1749 25.4899 7.67856 25.3173 8.50349 25.0116C8.91595 24.8588 9.70389 24.5292 10.8673 24.023C13.78 22.6293 14.9372 20.5492 14.3388 17.7827C14.0495 16.4451 13.4406 15.5425 12.5121 15.0751C11.6074 14.5706 10.471 14.4663 9.103 14.7622C7.46135 15.1173 6.41419 15.6461 5.9615 16.3487C5.91385 16.4226 5.83046 16.552 5.71134 16.7369C5.58563 16.8914 5.49362 17.0545 5.43529 17.2262C5.37697 17.398 5.35028 17.6424 5.35523 17.9596L5.3861 18.7644ZM13.6567 27.4294C12.3494 27.7122 10.3553 28.3503 7.67432 29.3439C8.65405 33.8736 9.42375 37.0645 9.98343 38.9164C13.5707 38.1405 16.0143 37.3734 17.3141 36.6149C18.6312 35.789 19.4638 35.0043 19.8122 34.2607C20.1778 33.4497 20.2389 32.4817 19.9956 31.3569L19.7133 30.2723C19.6278 29.8771 19.4347 29.4256 19.1339 28.9179C18.8332 28.4101 18.5012 28.0523 18.138 27.8444C17.6943 27.5585 17.1573 27.3565 16.5271 27.2382C15.8295 27.1027 14.8727 27.1664 13.6567 27.4294ZM35.3791 26.5976L30.8091 27.5383L32.1924 33.4923C32.3699 34.3132 32.4467 34.7421 32.4229 34.779L40.2824 32.9359C41.1837 32.8365 41.7067 33.1211 41.8514 33.7899C42.1275 35.0668 41.6728 35.8334 40.4872 36.0899L31.569 38.1142C30.809 38.2786 30.2753 38.0917 29.968 37.5535C29.6607 37.0154 29.4018 36.2599 29.1914 35.2871L27.5541 27.7172C27.1129 27.5899 26.8429 27.2982 26.7443 26.8422C26.6588 26.447 26.7471 26.046 27.0092 25.6393C26.4051 23.2878 25.8927 21.1392 25.4719 19.1935C25.2286 18.0687 25.7877 17.3431 27.1491 17.0168L28.426 16.7407L36.4358 15.1514L36.4814 15.1416C37.4871 15.0832 38.0721 15.434 38.2365 16.194C38.3614 16.7716 38.2678 17.2215 37.9556 17.5436C37.2572 18.1402 35.4032 18.7639 32.3935 19.4149C31.2991 19.6516 30.1644 19.8493 28.9894 20.0079C29.6075 22.8656 29.9548 24.3976 30.0312 24.6038C30.8282 24.4633 33.1572 23.9754 37.0181 23.1404C37.9868 23.0581 38.5501 23.3818 38.7079 24.1115C38.7868 24.4763 38.7104 24.8587 38.4787 25.2589C38.247 25.6591 37.9554 25.929 37.6037 26.0687C37.4517 26.1016 37.2118 26.1694 36.8839 26.2721C36.5495 26.3445 36.0479 26.4529 35.3791 26.5976ZM49.6348 25.6623C49.4501 29.0755 49.4331 31.4977 49.5835 32.9291C49.6263 33.7154 49.1613 34.2137 48.1884 34.4242C47.246 34.628 46.6893 34.3347 46.5184 33.5443C46.1238 31.7202 46.2164 27.8814 46.7961 22.0279C47.0063 19.4684 47.4342 17.1801 48.0799 15.1629C48.6607 13.287 49.4223 12.2471 50.3647 12.0433C50.8511 11.9381 51.3392 12.1348 51.8289 12.6336C52.2382 13.0542 53.1778 14.2353 54.6479 16.1768C56.1245 18.1486 57.4003 20.1481 58.4752 22.175C59.4933 24.0869 60.7975 26.7326 62.3876 30.1119C62.4665 30.4768 62.3955 30.8104 62.1745 31.1127C61.9535 31.4151 61.6454 31.6091 61.2501 31.6945C60.2469 31.9115 59.5468 31.6174 59.1499 30.8122L56.2026 24.91C53.5578 25.4821 51.3685 25.7329 49.6348 25.6623ZM54.7666 22.0224C53.6285 19.8501 52.418 17.932 51.1353 16.2682C50.4937 18.1572 50.0839 20.2348 49.9057 22.501C51.3223 22.5765 52.9425 22.417 54.7666 22.0224Z" fill="black"/>
</svg>
