<svg width="103" height="103" viewBox="0 0 103 103" fill="none" xmlns="http://www.w3.org/2000/svg">
<ellipse cx="51.6663" cy="51.2031" rx="40" ry="40" fill="#FFAC4B"/>
<g style="mix-blend-mode:multiply">
<path d="M51.6662 28.5361L53.401 47.0145L67.6939 35.175L55.8544 49.468L74.3328 51.2028L55.8544 52.9376L67.6939 67.2305L53.401 55.391L51.6662 73.8695L49.9313 55.391L35.6384 67.2305L47.4779 52.9376L28.9995 51.2028L47.4779 49.468L35.6384 35.175L49.9313 47.0145L51.6662 28.5361Z" fill="#FFAC4B"/>
<ellipse cx="9.33333" cy="9.33333" rx="9.33333" ry="9.33333" transform="matrix(-1 0 0 1 60.9995 41.8691)" fill="#FFAC4B"/>
<path d="M56.4325 45.0225C55.4924 45.9626 55.4373 47.4319 55.4373 47.4319C55.4373 47.4319 56.9066 47.3769 57.8467 46.4367C58.7869 45.4966 61.5656 41.3036 61.5656 41.3036C61.5656 41.3036 57.3727 44.0823 56.4325 45.0225Z" fill="#FFAC4B"/>
<path d="M58.435 47.3171C57.2066 47.8259 56.5935 49.1622 56.5935 49.1622C56.5935 49.1622 57.972 49.6737 59.2004 49.1648C60.4287 48.656 64.6005 45.8457 64.6005 45.8457C64.6005 45.8457 59.6634 46.8083 58.435 47.3171Z" fill="#FFAC4B"/>
<path d="M59.407 50.2031C58.0774 50.2031 56.9996 51.2031 56.9996 51.2031C56.9996 51.2031 58.0774 52.2031 59.407 52.2031C60.7366 52.2031 65.6663 51.2031 65.6663 51.2031C65.6663 51.2031 60.7366 50.2031 59.407 50.2031Z" fill="#FFAC4B"/>
<path d="M59.2003 53.2413C57.972 52.7325 56.5935 53.2439 56.5935 53.2439C56.5935 53.2439 57.2066 54.5803 58.435 55.0891C59.6633 55.5979 64.6005 56.5605 64.6005 56.5605C64.6005 56.5605 60.4287 53.7501 59.2003 53.2413Z" fill="#FFAC4B"/>
<path d="M57.8469 55.9694C56.9067 55.0292 55.4375 54.9742 55.4375 54.9742C55.4375 54.9742 55.4925 56.4435 56.4327 57.3836C57.3728 58.3238 61.5657 61.1025 61.5657 61.1025C61.5657 61.1025 58.787 56.9095 57.8469 55.9694Z" fill="#FFAC4B"/>
<path d="M55.5523 57.9723C55.0435 56.744 53.7071 56.1309 53.7071 56.1309C53.7071 56.1309 53.1957 57.5093 53.7045 58.7377C54.2133 59.9661 57.0237 64.1378 57.0237 64.1378C57.0237 64.1378 56.0611 59.2007 55.5523 57.9723Z" fill="#FFAC4B"/>
<path d="M52.6663 58.9439C52.6663 57.6143 51.6663 56.5365 51.6663 56.5365C51.6663 56.5365 50.6663 57.6143 50.6663 58.9439C50.6663 60.2734 51.6663 65.2031 51.6663 65.2031C51.6663 65.2031 52.6663 60.2734 52.6663 58.9439Z" fill="#FFAC4B"/>
<path d="M49.6278 58.7374C50.1366 57.5091 49.6252 56.1306 49.6252 56.1306C49.6252 56.1306 48.2889 56.7437 47.7801 57.9721C47.2713 59.2004 46.3086 64.1376 46.3086 64.1376C46.3086 64.1376 49.119 59.9658 49.6278 58.7374Z" fill="#FFAC4B"/>
<path d="M46.8997 57.3838C47.8399 56.4436 47.8949 54.9744 47.8949 54.9744C47.8949 54.9744 46.4257 55.0294 45.4855 55.9695C44.5454 56.9097 41.7667 61.1026 41.7667 61.1026C41.7667 61.1026 45.9596 58.3239 46.8997 57.3838Z" fill="#FFAC4B"/>
<path d="M44.8973 55.0892C46.1257 54.5804 46.7388 53.244 46.7388 53.244C46.7388 53.244 45.3603 52.7326 44.1319 53.2414C42.9036 53.7502 38.7318 56.5606 38.7318 56.5606C38.7318 56.5606 43.6689 55.598 44.8973 55.0892Z" fill="#FFAC4B"/>
<path d="M43.9255 52.2031C45.2551 52.2031 46.3329 51.2031 46.3329 51.2031C46.3329 51.2031 45.2551 50.2031 43.9255 50.2031C42.5959 50.2031 37.6663 51.2031 37.6663 51.2031C37.6663 51.2031 42.5959 52.2031 43.9255 52.2031Z" fill="#FFAC4B"/>
<path d="M44.1319 49.1649C45.3603 49.6738 46.7388 49.1623 46.7388 49.1623C46.7388 49.1623 46.1257 47.826 44.8973 47.3172C43.6689 46.8084 38.7318 45.8458 38.7318 45.8458C38.7318 45.8458 42.9036 48.6561 44.1319 49.1649Z" fill="#FFAC4B"/>
<path d="M45.4856 46.4369C46.4258 47.377 47.895 47.432 47.895 47.432C47.895 47.432 47.84 45.9628 46.8998 45.0226C45.9597 44.0825 41.7668 41.3038 41.7668 41.3038C41.7668 41.3038 44.5455 45.4967 45.4856 46.4369Z" fill="#FFAC4B"/>
<path d="M47.78 44.4339C48.2888 45.6623 49.6251 46.2754 49.6251 46.2754C49.6251 46.2754 50.1365 44.8969 49.6277 43.6685C49.1189 42.4402 46.3085 38.2684 46.3085 38.2684C46.3085 38.2684 47.2712 43.2055 47.78 44.4339Z" fill="#FFAC4B"/>
<path d="M50.6663 43.4624C50.6663 44.792 51.6663 45.8698 51.6663 45.8698C51.6663 45.8698 52.6663 44.792 52.6663 43.4624C52.6663 42.1328 51.6663 37.2031 51.6663 37.2031C51.6663 37.2031 50.6663 42.1328 50.6663 43.4624Z" fill="#FFAC4B"/>
<path d="M53.7047 43.6688C53.1959 44.8972 53.7073 46.2756 53.7073 46.2756C53.7073 46.2756 55.0436 45.6625 55.5524 44.4342C56.0612 43.2058 57.0239 38.2687 57.0239 38.2687C57.0239 38.2687 54.2135 42.4404 53.7047 43.6688Z" fill="#FFAC4B"/>
</g>
</svg>
