<svg width="144" height="187" viewBox="0 0 144 187" fill="none" xmlns="http://www.w3.org/2000/svg">
<g clip-path="url(#clip0_82_47995)">
<path d="M86.6003 71.0757C87.0318 75.2726 87.711 87.3069 87.8623 88.4497C88.3006 90.979 88.6687 93.52 88.9664 96.0698C89.9672 103.864 92.6172 111.744 97.5535 117.918C109.808 133.416 128.936 141.573 148.475 142.53C152.901 142.779 158.219 143.902 162.578 142.763" stroke="#292524" stroke-width="2.45005" stroke-miterlimit="2.64" stroke-linecap="round" stroke-linejoin="round"/>
<path d="M58.4194 58.3322C55.7614 56.366 59.1821 50.2244 60.2106 47.3697C64.4311 36.3647 83.5755 27.8902 92.6338 38.2361C94.7401 40.6408 99.4159 44.9635 99.1265 48.6602C98.9497 51.6612 94.4365 53.0632 92.1572 53.9529C86.992 55.9667 81.7796 58.3633 76.1694 59.2368C72.9861 59.7739 61.076 60.2987 58.4194 58.3322Z" fill="#1E9A64"/>
<path d="M91.3129 36.9177C91.9359 36.6125 92.5386 36.3205 93.1185 36.0441C94.6178 35.3312 97.5024 32.9476 100.333 30.6065C102.97 28.4302 105.558 26.2886 106.938 25.5736C118.927 19.4114 124.574 20.3752 125.655 24.2299C126.808 28.2461 122.67 31.4841 118.821 34.4981C117.2 35.7649 115.631 36.9929 114.529 38.2224C113.752 39.0458 112.728 39.7247 111.788 40.3485L111.26 40.7017C111.133 40.8141 110.509 41.0751 109.962 41.3052C109.472 41.5105 109.044 41.6888 109.085 41.7129C109.773 42.1157 112.107 41.1404 113.734 40.4622C114.379 40.1924 114.913 39.9692 115.188 39.8972C118.055 39.1484 120.844 38.2381 123.626 37.3293C127.691 35.9985 131.742 34.6761 136.007 33.8691C137.841 33.5371 144.721 32.9968 143.666 36.5975C140.97 45.8005 127.543 50.4156 119.165 52.0135C116.137 52.5828 113.072 53.0146 110.002 53.1501C109.88 53.1823 108.911 53.1282 107.879 53.0685C106.594 52.9958 105.212 52.9153 105.232 52.9923C105.305 53.2694 107.196 53.44 107.422 53.4555C108.979 53.783 110.539 54.034 112.095 54.2858C113.199 54.4644 114.301 54.6404 115.398 54.8461C121.375 55.9435 126.784 59.1142 131.845 62.078C132.378 62.39 132.947 62.6766 133.518 62.9659C135.756 64.0952 138.038 65.2464 138.343 67.9935C139.566 78.9075 125.091 76.1111 119.362 73.9863C118.155 73.5418 117.114 73.0257 116.056 72.5027C115.456 72.2005 114.85 71.9092 114.239 71.629C113.185 71.1223 112.102 70.6995 111.021 70.2759C109.24 69.5778 107.465 68.8845 105.856 67.8314C105.189 67.3868 104.472 66.8034 103.721 66.1955C102.058 64.8447 100.238 63.3671 98.4523 62.9661C98.2182 62.9181 98.5842 63.283 98.8736 63.573C98.9742 63.6734 99.0661 63.7649 99.1202 63.8267C99.34 64.0621 99.5604 64.2878 99.7737 64.5107C100.154 64.9019 100.519 65.2813 100.857 65.6648C101.767 66.7059 102.549 67.8769 103.312 69.0229C103.697 69.5982 104.076 70.167 104.464 70.7081C108.092 75.8222 111.375 81.3191 112.342 87.5694C112.691 89.4726 113.262 94.2028 110.898 95.3378C107.161 97.1558 104.856 95.2668 102.221 93.1062L101.799 92.7623C96.341 88.2751 92.8543 84.8271 90.1478 78.1431C89.6833 77.0252 89.239 75.9179 88.7966 74.818C88.2886 73.5579 87.7863 72.3074 87.2633 71.0624C87.2313 71.0249 87.1587 70.8317 87.0636 70.5828C86.8523 70.0223 86.5338 69.1844 86.3426 69.2343C86.3041 69.2444 86.2075 70.0198 86.1205 70.7104C86.0548 71.2467 85.9915 71.7317 85.97 71.7705C85.8543 73.2663 85.3978 74.6453 84.9392 76.0281C84.7268 76.6691 84.514 77.3087 84.3363 77.9613C82.1926 85.3203 79.9935 92.1763 77.2071 99.3344C76.3627 101.476 74.2255 106.024 71.2912 105.83C69.0218 105.679 68.1991 101.724 67.705 99.3474C67.6107 98.8893 67.5285 98.4898 67.4496 98.1876C65.7871 91.8227 65.6056 84.6263 66.3527 78.1496C66.4304 77.2715 66.9007 76.0487 67.3877 74.7804C68.0757 72.9912 68.7998 71.1102 68.5038 69.9768C68.3258 69.2952 67.7987 70.2037 67.2624 71.1256C66.9814 71.6073 66.6998 72.0923 66.4649 72.3563C65.1423 73.8428 64.1695 75.42 63.1754 77.0313C62.7544 77.7158 62.329 78.4077 61.8701 79.0989C61.2981 79.9748 60.5986 80.7446 59.894 81.519C59.2354 82.245 58.5704 82.9773 58.0001 83.8052C56.7406 85.6843 55.3574 87.4773 53.8596 89.1726C53.2941 89.8251 52.6632 90.6515 51.9793 91.5534C48.5378 96.0766 43.6665 102.482 38.0656 98.0285C36.1075 96.4699 37.0095 93.1307 37.5446 91.2167C38.9834 85.9157 42.3344 81.5792 45.6498 77.2883C46.4142 76.3005 47.176 75.3149 47.9117 74.3204C48.1689 73.9841 48.4326 73.6304 48.7014 73.2721C49.4684 72.2456 50.2789 71.1619 51.1285 70.2278C51.7639 69.5459 53.0142 68.1099 53.0142 68.1099L50.4246 69.2294C49.5129 69.6654 48.5613 69.9424 47.6097 70.2195C46.7758 70.4626 45.942 70.7057 45.1375 71.0551C43.2267 71.847 41.3931 72.8435 39.5632 73.8358C36.7938 75.3394 34.0355 76.837 31.0368 77.6202C29.17 78.1078 26.0016 78.7139 24.5264 77.029C22.2096 74.3819 26.6875 68.0401 28.5783 66.5112C33.4811 62.6445 40.7986 59.255 46.9611 58.2357C47.407 58.1493 47.8503 58.0588 48.2954 57.9695C50.0948 57.6055 51.8856 57.2453 53.6796 57.0727C53.8122 57.0713 55.2304 56.3147 57.4963 55.0708C57.304 56.4552 57.4933 57.6466 58.4194 58.3321C61.0756 60.2972 72.9846 59.7742 76.1712 59.2378C80.7851 58.5185 85.1319 56.7706 89.4021 55.0507C90.3231 54.6804 91.241 54.3108 92.1572 53.9528L92.8483 53.69C95.2399 52.7883 98.9653 51.3816 99.1264 48.6601C99.3725 45.5302 96.0579 41.9535 93.758 39.4681C93.3778 39.0624 93.0031 38.6517 92.6338 38.236C92.224 37.7671 91.7826 37.3266 91.3129 36.9177Z" fill="#FBC604"/>
</g>
<defs>
<clipPath id="clip0_82_47995">
<rect width="153.128" height="153.128" fill="white" transform="translate(0 38.6987) rotate(-14.6386)"/>
</clipPath>
</defs>
</svg>
