<svg width="68" height="68" viewBox="0 0 68 68" fill="none" xmlns="http://www.w3.org/2000/svg">
<g clip-path="url(#clip0_198_167863)">
<path fill-rule="evenodd" clip-rule="evenodd" d="M16.2077 20.779C16.0211 20.1547 15.2571 17.6003 15.6098 16.915C16.0904 15.9786 19.5012 14.5783 20.9657 13.9777C21.1828 13.8882 21.357 13.8166 21.4728 13.7671C21.5343 13.7404 21.6016 13.7062 21.6732 13.6702C21.9748 13.5176 22.3468 13.33 22.6338 13.5161C22.9018 13.6896 22.9931 14.1444 23.066 14.5087C23.0899 14.6276 23.1117 14.7363 23.1376 14.8235C23.4016 15.7275 23.4412 16.668 23.4809 17.6101C23.5147 18.4008 23.5477 19.1923 23.7137 19.965C23.731 20.0721 23.7439 20.1798 23.7523 20.2879C23.8026 20.7987 23.8887 21.674 24.1866 21.7918C24.6845 21.9883 26.0239 21.4155 26.9639 21.014C27.2723 20.8821 27.5378 20.7682 27.7169 20.7064C28.7317 20.3568 29.7281 19.9151 30.718 19.4768C31.0269 19.3396 31.335 19.2033 31.6433 19.0698C31.6854 19.0516 31.7886 19.0237 31.917 18.989C32.2454 18.9007 32.7378 18.7678 32.7898 18.6373C32.9864 18.1383 32.929 17.4968 32.8745 16.8856C32.8488 16.6054 32.8243 16.3321 32.8253 16.0814C32.8224 15.2982 32.9705 14.5002 33.1188 13.7016C33.2431 13.0342 33.3672 12.3653 33.4038 11.7033C33.4112 11.5815 33.3932 11.3762 33.3728 11.1409C33.3256 10.5957 33.2638 9.88579 33.4656 9.64543C33.6088 9.47603 34.0724 9.37024 34.3378 9.30926L34.4511 9.28267C35.5163 9.01398 36.5762 8.72442 37.63 8.41414C37.7777 8.37095 37.9664 8.29766 38.1742 8.21664C38.7658 7.98684 39.5134 7.69674 39.9308 7.86066C40.1504 7.9483 40.2469 8.60603 40.3055 9.00468C40.3222 9.12115 40.3364 9.21623 40.349 9.26754C40.7405 10.8602 40.9569 12.4908 40.9944 14.1305C40.9958 14.1726 40.9954 14.256 40.994 14.3657C40.988 14.9205 40.9754 16.1586 41.2194 16.2559C41.4497 16.3473 42.1602 15.899 42.6678 15.579C42.8825 15.4439 43.0609 15.3312 43.1513 15.292C44.2209 14.8287 45.3212 14.5737 46.4256 14.318C47.1633 14.1464 47.9037 13.9747 48.6379 13.7405C48.6981 13.7212 48.7845 13.6882 48.8895 13.6489C49.4415 13.4419 50.4928 13.0467 50.7935 13.4411C51.1782 13.9437 51.366 14.6147 51.5451 15.2541C51.6121 15.4933 51.6778 15.728 51.7521 15.9477C51.8291 16.1748 51.9536 16.4543 52.0875 16.7545C52.3839 17.4179 52.7255 18.1832 52.6963 18.7131C52.6721 19.1544 51.9122 19.6589 51.3934 20.0034C51.2379 20.1068 51.1045 20.196 51.0183 20.2643C49.9093 21.1523 48.5712 21.6746 47.2446 22.1924C46.7826 22.3722 46.322 22.5526 45.8727 22.7472L45.7317 22.8072C45.1993 23.0322 43.9528 23.5597 43.792 23.9662C43.7383 24.1019 43.9547 24.6053 44.1138 24.9751C44.187 25.1441 44.2474 25.2849 44.2647 25.3494C44.593 26.6074 44.903 27.8801 44.967 29.1727C44.9759 29.3583 45.0338 30.2617 45.2933 30.3635C45.5531 30.4663 46.3862 29.9295 46.9874 29.5415C47.2505 29.3724 47.469 29.2317 47.576 29.1853C47.8028 29.0871 48.0334 28.986 48.2669 28.8838C50.087 28.0876 52.1003 27.2065 53.9924 26.8492C54.166 26.8162 54.4024 26.7076 54.6558 26.5917C55.1029 26.3868 55.6028 26.1568 55.9038 26.2755C55.9802 26.3065 56.0203 26.599 56.0476 26.7969C56.054 26.8526 56.063 26.908 56.0745 26.9629C56.2854 27.7353 56.3841 28.554 56.4821 29.3619C56.5077 29.5729 56.5329 29.783 56.5603 29.9915C56.7023 30.9111 56.905 31.8202 57.1671 32.7129C57.1795 32.7571 57.2081 32.8296 57.2409 32.9132C57.3282 33.1341 57.4467 33.4337 57.3842 33.5074C56.7842 34.2228 55.2146 34.7587 54.3534 35.0113C53.0475 35.3925 51.7134 36.1863 50.6204 36.9449C50.5545 36.9902 50.4644 37.0495 50.3594 37.1186C49.87 37.4391 49.0628 37.9681 48.9262 38.3135C48.6785 38.9438 48.9692 40.2057 49.1353 40.9266C49.1461 40.9731 49.1569 41.0196 49.1676 41.0662C49.2575 41.4619 49.3515 41.857 49.4449 42.2517C49.8335 43.8902 50.2221 45.5286 50.3685 47.2129C50.4515 48.1667 50.5667 49.9387 49.6624 50.5654C48.71 51.2254 47.3707 51.6503 46.2717 51.9717C46.1751 52.0008 46.0793 52.0325 45.9845 52.0668C45.6463 52.1858 45.2617 52.3209 44.9842 52.2111C44.8358 52.1528 44.6438 51.4537 44.5083 50.9619C44.4502 50.7498 44.4029 50.5757 44.3738 50.5084C43.4882 48.4639 43.1393 46.0654 43.0159 43.8578C42.974 42.7068 42.994 41.5543 43.076 40.4055C43.095 40.1183 43.1382 39.4755 42.845 39.3595C42.6787 39.2949 42.1097 39.6533 41.8078 39.8431C41.7305 39.8917 41.6709 39.9294 41.6399 39.9462C40.4321 40.5941 39.2347 41.1792 37.9667 41.7284C37.5187 41.9224 37.0612 42.111 36.6008 42.3009C34.7092 43.0814 32.7637 43.8841 31.2014 45.1664C31.0787 45.2674 30.9254 45.3704 30.7639 45.4791C30.3676 45.7458 29.9237 46.0438 29.7761 46.417C29.6365 46.7699 29.7528 47.324 29.8617 47.8403C29.9264 48.148 29.9888 48.4426 29.9918 48.6729C30.0181 50.6095 30.0525 52.5481 30.2196 54.4787C30.2287 54.5855 30.2406 54.7013 30.2531 54.8235C30.3566 55.8376 30.5075 57.3169 29.7686 57.9788C29.4 58.3106 28.5309 58.3929 27.8379 58.4586C27.5711 58.4842 27.3302 58.507 27.1543 58.541C26.8829 58.5933 26.5566 58.6891 26.2073 58.7915C25.2948 59.0591 24.2206 59.3742 23.5228 59.0978C23.3703 59.0379 23.2859 57.9408 23.2494 57.4618C23.2412 57.3585 23.236 57.2843 23.2321 57.2556C23.073 56.0407 23.0174 54.8451 22.9612 53.6469C22.9231 52.8189 22.8843 51.9893 22.8113 51.1522C22.7998 51.0205 22.8032 50.7817 22.8075 50.4903C22.8208 49.5798 22.8413 48.151 22.4459 47.8184C22.0246 47.4639 21.289 47.7414 20.7476 47.9456C20.632 47.9907 20.515 48.0324 20.3968 48.0705C20.2351 48.1203 20.0714 48.1721 19.9054 48.2238C18.9147 48.5331 17.8615 48.8616 16.8744 49.026C16.7021 49.054 16.507 49.1047 16.3033 49.1575C15.7917 49.2903 15.2264 49.4367 14.8261 49.2783C14.6119 49.194 14.5275 48.585 14.4744 48.2014C14.4569 48.0768 14.4431 47.976 14.429 47.9253C14.357 47.6618 14.2715 47.3969 14.1871 47.1332C13.7852 45.8874 13.3951 44.6775 14.4984 43.8325C15.993 42.6874 17.264 42.1229 19.1265 41.7648C19.2221 41.7465 19.3393 41.7329 19.4651 41.7183C20.0115 41.6554 20.7262 41.5724 20.6309 40.9862C20.3425 39.2402 20.0276 37.4006 19.4859 35.7047C19.4693 35.6535 19.4476 35.5656 19.4206 35.4564C19.2921 34.9391 19.0416 33.9324 18.6435 33.9092C18.3454 33.8921 17.9461 34.101 17.5773 34.2934C17.3515 34.412 17.1371 34.5234 16.9645 34.574C15.8106 34.928 14.68 35.3538 13.5794 35.8491C13.3937 35.9294 13.2035 36.0304 13.0152 36.1305C12.2504 36.5366 11.5202 36.9243 11.2847 35.8274C11.2301 35.5716 11.1562 35.2814 11.077 34.9715C10.7588 33.7176 10.3552 32.1301 10.7621 31.1025C10.792 31.0159 11.1541 30.8652 11.4246 30.7537C11.5503 30.7009 11.6562 30.6573 11.7001 30.6315C12.1437 30.3702 12.5833 30.105 13.0236 29.839C13.4714 29.568 13.9201 29.2966 14.3722 29.0305C14.7183 28.826 15.0793 28.6533 15.4398 28.4809C15.8339 28.2922 16.2279 28.1035 16.6017 27.8736C16.6285 27.8575 16.6979 27.8359 16.7804 27.8097C16.9448 27.7582 17.1602 27.6907 17.1874 27.6199C17.234 27.5002 17.1234 27.0448 17.043 26.7152C17.0057 26.5616 16.9752 26.4353 16.9696 26.3821C16.9297 25.9433 16.8987 25.4979 16.8678 25.0513C16.8033 24.1171 16.7384 23.1791 16.5895 22.2927C16.5531 22.0672 16.4869 21.839 16.4198 21.6088C16.3529 21.3791 16.2857 21.1473 16.2473 20.9159C16.2455 20.9066 16.2315 20.8586 16.2077 20.779ZM28.7037 29.2981C28.6916 29.2702 28.5344 28.3283 28.7075 28.5019C29.8009 27.8714 31.6725 27.4021 34.1565 26.7884C34.2207 26.773 34.377 26.7171 34.5733 26.6472C35.0637 26.472 35.8023 26.2077 35.9625 26.2687C36.1833 26.3525 36.3612 28.1317 36.3902 28.4155L36.3914 28.4313L36.4737 29.2054C36.618 30.5836 36.7611 31.9487 36.9857 33.3163C37.0054 33.4332 37.065 33.6216 37.1321 33.8349C37.2745 34.2844 37.4507 34.8429 37.3614 35.0666C37.1367 35.1407 36.9069 35.198 36.6737 35.238C36.3623 35.2981 35.4343 35.5443 34.3512 35.8323C32.3717 36.3579 29.873 37.0219 29.6664 36.9409C29.4197 36.8453 29.4136 35.8639 29.4254 35.6536C29.499 34.3019 29.2903 32.7711 29.0579 31.4322C29.0041 31.1316 28.9585 30.8314 28.9126 30.5308C28.8492 30.1196 28.7863 29.7083 28.7042 29.2979L28.7037 29.2981Z" fill="#D55816"/>
</g>
<defs>
<clipPath id="clip0_198_167863">
<rect width="51.6002" height="51.6002" fill="white" transform="translate(0 20.5089) rotate(-23.4193)"/>
</clipPath>
</defs>
</svg>
