<svg width="86" height="86" viewBox="0 0 86 86" fill="none" xmlns="http://www.w3.org/2000/svg">
<path fill-rule="evenodd" clip-rule="evenodd" d="M14.4589 27.6403C16.923 24.4508 20.5531 22.3706 24.5507 21.8571C28.5484 21.3436 32.5863 22.4389 35.7765 24.9021L40.7608 28.7482L44.6112 23.7673C45.8169 22.1487 47.333 20.7865 49.0708 19.7601C50.8087 18.7337 52.7336 18.0637 54.7331 17.7892C56.7327 17.5146 58.7669 17.6411 60.7171 18.1611C62.6672 18.6812 64.4943 19.5844 66.0917 20.8181C67.689 22.0518 69.0247 23.5913 70.0207 25.3468C71.0168 27.1022 71.6532 29.0384 71.893 31.0424C72.1327 33.0465 71.9709 35.0782 71.4171 37.019C70.8632 38.9599 69.9283 40.771 68.6671 42.3467L46.2382 71.391L17.1972 48.958C14.0077 46.4938 11.9274 42.8638 11.4139 38.8661C10.9004 34.8685 11.9957 30.8305 14.4589 27.6403V27.6403Z" stroke="black" stroke-width="4" stroke-linejoin="round"/>
</svg>
