<svg width="116" height="46" viewBox="0 0 116 46" fill="none" xmlns="http://www.w3.org/2000/svg">
<rect width="115.167" height="45.587" fill="#262626"/>
<path d="M20.1199 29.3988H23.1172M23.1172 29.3988H26.2532M23.1172 29.3988V16.1885M23.1172 16.1885H18.2327C17.7115 16.1885 17.2891 16.6109 17.2891 17.1321V18.5197M23.1172 16.1885H27.6131C28.1342 16.1885 28.5567 16.6109 28.5567 17.1321V18.9083" stroke="white" stroke-width="1.83477" stroke-linecap="round" stroke-linejoin="round"/>
<rect x="46.5747" y="11.7847" width="22.0172" height="22.0172" rx="2.39931" fill="#F5AC5F"/>
<path d="M54.9099 29.3959H57.9072M57.9072 29.3959H61.0433M57.9072 29.3959V16.1855M57.9072 16.1855H53.0227C52.5016 16.1855 52.0791 16.608 52.0791 17.1291V18.5168M57.9072 16.1855H62.4031C62.9243 16.1855 63.3467 16.608 63.3467 17.1291V18.9053" stroke="#1E9A64" stroke-width="1.83477" stroke-linecap="round" stroke-linejoin="round"/>
<path d="M99.3283 23.4333C99.4977 22.9558 99.248 22.4313 98.7705 22.2619C98.293 22.0925 97.7686 22.3422 97.5992 22.8197L98.4637 23.1265L99.3283 23.4333ZM96.5983 28.3837L97.4629 28.6905H97.4629L96.5983 28.3837ZM95.3401 29.473L95.5201 30.3726H95.5201L95.3401 29.473ZM84.3579 31.6695L83.4551 31.5066C83.4012 31.8055 83.4987 32.1116 83.7154 32.3243C83.9321 32.5369 84.2401 32.6286 84.5378 32.569L84.3579 31.6695ZM86.3621 20.5556L87.2649 20.7184V20.7184L86.3621 20.5556ZM87.5183 19.2457L87.7919 20.1213L87.7919 20.1213L87.5183 19.2457ZM93.1745 18.4392C93.6581 18.2881 93.9276 17.7736 93.7765 17.29C93.6254 16.8064 93.1108 16.5369 92.6272 16.688L92.9009 17.5636L93.1745 18.4392ZM83.9079 30.8221C83.5496 31.1803 83.5496 31.7612 83.9079 32.1195C84.2662 32.4777 84.847 32.4777 85.2053 32.1195L84.5566 31.4708L83.9079 30.8221ZM89.9734 27.3513C90.3317 26.993 90.3317 26.4122 89.9734 26.0539C89.6152 25.6957 89.0343 25.6957 88.6761 26.0539L89.3248 26.7026L89.9734 27.3513ZM101.643 19.153L102.291 18.5043V18.5043L101.643 19.153ZM101.643 20.7424L100.994 20.0937V20.0937L101.643 20.7424ZM95.285 14.3848L94.6363 13.7361V13.7361L95.285 14.3848ZM96.8744 14.3848L96.2257 15.0335V15.0335L96.8744 14.3848ZM93.2982 17.961L93.9469 17.3123V17.3123L93.2982 17.961ZM93.2982 16.3716L93.9469 17.0203V17.0203L93.2982 16.3716ZM98.0664 22.7291L97.4177 23.3778V23.3778L98.0664 22.7291ZM99.6558 22.7291L100.304 23.3778V23.3778L99.6558 22.7291ZM98.4637 23.1265L97.5992 22.8197L95.7337 28.0769L96.5983 28.3837L97.4629 28.6905L99.3283 23.4333L98.4637 23.1265ZM95.3401 29.473L95.1602 28.5734L84.178 30.7699L84.3579 31.6695L84.5378 32.569L95.5201 30.3726L95.3401 29.473ZM84.3579 31.6695L85.2607 31.8323L87.2649 20.7184L86.3621 20.5556L85.4592 20.3928L83.4551 31.5066L84.3579 31.6695ZM87.5183 19.2457L87.7919 20.1213L93.1745 18.4392L92.9009 17.5636L92.6272 16.688L87.2446 18.3701L87.5183 19.2457ZM86.3621 20.5556L87.2649 20.7184C87.3157 20.4367 87.5187 20.2067 87.7919 20.1213L87.5183 19.2457L87.2446 18.3701C86.3193 18.6592 85.6313 19.4387 85.4592 20.3928L86.3621 20.5556ZM96.5983 28.3837L95.7337 28.0769C95.6433 28.3318 95.4255 28.5204 95.1602 28.5734L95.3401 29.473L95.5201 30.3726C96.4186 30.1929 97.1564 29.554 97.4629 28.6905L96.5983 28.3837ZM84.5566 31.4708L85.2053 32.1195L89.9734 27.3513L89.3248 26.7026L88.6761 26.0539L83.9079 30.8221L84.5566 31.4708ZM98.0664 22.7291L98.7151 22.0804L93.9469 17.3123L93.2982 17.961L92.6495 18.6097L97.4177 23.3778L98.0664 22.7291ZM93.2982 16.3716L93.9469 17.0203L95.9337 15.0335L95.285 14.3848L94.6363 13.7361L92.6495 15.7229L93.2982 16.3716ZM96.8744 14.3848L96.2257 15.0335L100.994 19.8017L101.643 19.153L102.291 18.5043L97.523 13.7361L96.8744 14.3848ZM101.643 20.7424L100.994 20.0937L99.0071 22.0804L99.6558 22.7291L100.304 23.3778L102.291 21.3911L101.643 20.7424ZM101.643 19.153L100.994 19.8017C101.074 19.8823 101.074 20.0131 100.994 20.0937L101.643 20.7424L102.291 21.3911C103.088 20.5939 103.088 19.3015 102.291 18.5043L101.643 19.153ZM95.285 14.3848L95.9337 15.0335C96.0143 14.9529 96.145 14.9529 96.2257 15.0335L96.8744 14.3848L97.523 13.7361C96.7259 12.939 95.4334 12.939 94.6363 13.7361L95.285 14.3848ZM93.2982 17.961L93.9469 17.3123C93.8663 17.2316 93.8663 17.1009 93.9469 17.0203L93.2982 16.3716L92.6495 15.7229C91.8524 16.52 91.8524 17.8125 92.6495 18.6097L93.2982 17.961ZM98.0664 22.7291L97.4177 23.3778C98.2149 24.175 99.5073 24.175 100.304 23.3778L99.6558 22.7291L99.0071 22.0804C98.9265 22.1611 98.7957 22.1611 98.7151 22.0804L98.0664 22.7291ZM89.7221 23.1265L90.3708 23.7752C90.8903 23.2556 91.7327 23.2556 92.2522 23.7752L92.9009 23.1265L93.5496 22.4778C92.3135 21.2417 90.3095 21.2417 89.0734 22.4778L89.7221 23.1265ZM92.9009 23.1265L92.2522 23.7752C92.7717 24.2947 92.7717 25.137 92.2522 25.6566L92.9009 26.3053L93.5496 26.9539C94.7856 25.7179 94.7856 23.7138 93.5496 22.4778L92.9009 23.1265ZM92.9009 26.3053L92.2522 25.6566C91.7327 26.1761 90.8903 26.1761 90.3708 25.6566L89.7221 26.3053L89.0734 26.9539C90.3095 28.19 92.3135 28.19 93.5496 26.9539L92.9009 26.3053ZM89.7221 26.3053L90.3708 25.6566C89.8513 25.137 89.8513 24.2947 90.3708 23.7752L89.7221 23.1265L89.0734 22.4778C87.8374 23.7139 87.8374 25.7179 89.0734 26.9539L89.7221 26.3053Z" fill="white"/>
</svg>
