<svg width="61" height="50" viewBox="0 0 61 50" fill="none" xmlns="http://www.w3.org/2000/svg">
<path d="M1.84475 18.5531L3.3535 15.9686L4.82299 13.6492L12.807 1.28692C12.9547 1.04715 13.2014 0.937297 13.5473 0.957372C13.8932 0.977448 14.266 1.11052 14.6656 1.35659C15.6247 1.94716 15.8951 2.58213 15.4768 3.2615L12.0166 8.07536C9.76675 11.237 8.50032 13.0475 8.21734 13.5071L6.26109 16.6842C5.33833 18.1828 4.93379 19.0635 5.04748 19.3264C5.32565 19.6355 5.64456 19.9008 6.00423 20.1222L10.5048 22.4801C11.4439 23.0583 11.7043 23.6872 11.286 24.3665C10.9661 24.886 10.4603 25.1257 9.7685 25.0856C9.24584 25.0393 8.75625 24.917 8.29973 24.7185C7.87549 24.5124 7.3137 24.1941 6.61435 23.7635C3.17754 21.6473 1.39077 20.4093 1.25405 20.0495C1.19567 19.8758 1.39258 19.377 1.84475 18.5531ZM21.2242 16.0184C22.9553 15.6237 24.77 16.0108 26.6682 17.1797C28.1668 18.1024 29.0089 19.4201 29.1944 21.1327C29.3923 22.8253 28.8884 24.6507 27.6826 26.6089C26.4769 28.567 24.9254 29.9679 23.0282 30.8113C21.1632 31.6471 19.4515 31.5852 17.8929 30.6255C16.2145 29.592 15.2887 28.0299 15.1155 25.9392C14.9547 23.8284 15.5079 21.744 16.7751 19.6859C18.0301 17.6478 19.5131 16.4253 21.2242 16.0184ZM17.6661 25.1535C17.6764 26.7031 18.2711 27.8408 19.45 28.5667C20.1293 28.9851 20.8872 29.0521 21.7236 28.7679C23.1257 28.281 24.325 27.2283 25.3216 25.6098C26.3305 23.9713 26.8166 22.6447 26.78 21.6301C26.7757 20.6078 26.204 19.746 25.0651 19.0447C23.9062 18.3311 22.7855 18.1371 21.7032 18.4628C20.6332 18.7684 19.6921 19.5806 18.8801 20.8994C18.0681 22.2182 17.6634 23.6362 17.6661 25.1535ZM44.8626 28.2588C45.2714 28.7585 45.3466 29.2182 45.0882 29.6378C44.9529 29.8576 44.6622 30.1058 44.2164 30.3824L42.9756 31.1891C41.9777 31.8699 40.6961 32.8995 39.1308 34.278C37.6054 35.6812 35.7626 37.2195 33.6023 38.8931C32.8919 39.4202 32.277 39.5238 31.7575 39.2039C31.3578 38.9578 31.2789 38.1238 31.5206 36.7019C32.1257 33.0787 32.534 29.417 32.7456 25.7168L32.7943 24.6307C32.8144 24.2848 32.8275 24.0173 32.8337 23.8283C32.8722 23.6315 32.9284 23.4732 33.0022 23.3533L33.1129 23.1734C33.2606 22.9337 33.5381 22.7739 33.9455 22.694C34.3729 22.6265 34.7164 22.6727 34.9762 22.8327C35.3558 23.0664 35.5733 23.407 35.6285 23.8543C35.696 24.2817 35.679 24.8913 35.5773 25.6829L35.2352 28.6552C35.0658 30.094 34.9548 30.9902 34.9025 31.3438C34.8177 32.0632 34.6984 32.8165 34.5445 33.6035C34.4028 34.3706 34.3251 34.8325 34.3112 34.9893C34.8725 34.4806 36.0833 33.4763 37.9438 31.9764C40.1534 30.223 41.5157 29.1741 42.0308 28.8299C43.2439 27.9786 44.1002 27.7067 44.5998 28.0143C44.6797 28.0635 44.7673 28.145 44.8626 28.2588ZM49.1679 40.6651L46.1892 38.7896L43.8315 42.7528C43.4993 43.2923 43.317 43.5659 43.2848 43.5736L48.5253 46.6764C49.0679 47.0932 49.2038 47.5213 48.9331 47.9609C48.4164 48.8002 47.7684 48.9799 46.9891 48.5L41.0776 44.9427C40.5781 44.6351 40.3853 44.2546 40.4991 43.8011C40.613 43.3477 40.8668 42.8012 41.2605 42.1618L44.3241 37.1865C44.1505 36.8866 44.1559 36.5869 44.3405 36.2871C44.5004 36.0274 44.758 35.8553 45.1131 35.7708C46.0128 34.1754 46.8564 32.7382 47.6438 31.4594C48.099 30.7201 48.7824 30.6173 49.6939 31.151L50.5331 31.6677L55.7229 34.9873L55.7528 35.0057C56.3307 35.4994 56.4659 35.9959 56.1583 36.4955C55.9245 36.8751 55.6385 37.071 55.3003 37.0833C54.6086 37.0431 53.2736 36.414 51.2954 35.196C50.5761 34.753 49.8552 34.2678 49.1329 33.7404C47.9763 35.6186 47.365 36.6338 47.2988 36.786C47.8061 37.1259 49.3285 38.0771 51.8661 39.6396C52.4363 40.101 52.5738 40.5714 52.2785 41.051C52.1309 41.2907 51.8895 41.459 51.5543 41.5558C51.2192 41.6525 50.9194 41.6471 50.655 41.5394C50.5551 41.4779 50.3891 41.3894 50.157 41.2741C49.9372 41.1387 49.6075 40.9357 49.1679 40.6651Z" fill="black"/>
</svg>
