<svg width="86" height="86" viewBox="0 0 86 86" fill="none" xmlns="http://www.w3.org/2000/svg">
<path d="M9.04362 28.7265C6.69321 28.7265 4.78784 30.6319 4.78784 32.9823C4.78784 35.3327 6.69321 37.2381 9.04362 37.2381V32.9823V28.7265ZM76.0722 37.2381C78.4226 37.2381 80.328 35.3327 80.328 32.9823C80.328 30.6319 78.4226 28.7265 76.0722 28.7265V32.9823V37.2381ZM9.4457 50.271C7.09529 50.271 5.18991 52.1764 5.18991 54.5268C5.18991 56.8772 7.09529 58.7826 9.4457 58.7826V54.5268V50.271ZM76.4743 58.7826C78.8247 58.7826 80.7301 56.8772 80.7301 54.5268C80.7301 52.1764 78.8247 50.271 76.4743 50.271V54.5268V58.7826ZM80.8599 42.5578H76.6042C76.6042 61.361 61.3611 76.6041 42.5579 76.6041V80.8599V85.1156C66.0619 85.1156 85.1157 66.0619 85.1157 42.5578H80.8599ZM42.5579 80.8599V76.6041C23.7547 76.6041 8.51164 61.361 8.51164 42.5578H4.25586H7.72476e-05C7.72476e-05 66.0619 19.0539 85.1156 42.5579 85.1156V80.8599ZM4.25586 42.5578H8.51164C8.51164 23.7546 23.7547 8.51157 42.5579 8.51157V4.25578V9.53674e-07C19.0539 9.53674e-07 7.72476e-05 19.0538 7.72476e-05 42.5578H4.25586ZM42.5579 4.25578V8.51157C61.3611 8.51157 76.6042 23.7546 76.6042 42.5578H80.8599H85.1157C85.1157 19.0538 66.0619 9.53674e-07 42.5579 9.53674e-07V4.25578ZM42.5579 80.8599V76.6041C41.6523 76.6041 40.4541 76.2025 38.9933 74.7902C37.512 73.3581 35.9836 71.0804 34.6078 67.9357C31.8616 61.6588 30.0565 52.6896 30.0565 42.5578H25.8008H21.545C21.545 53.5796 23.4911 63.7615 26.8098 71.3473C28.4665 75.1338 30.5489 78.4653 33.0772 80.9096C35.626 83.3737 38.8361 85.1156 42.5579 85.1156V80.8599ZM25.8008 42.5578H30.0565C30.0565 32.426 31.8616 23.4569 34.6078 17.18C35.9836 14.0352 37.512 11.7575 38.9933 10.3254C40.4541 8.91316 41.6523 8.51157 42.5579 8.51157V4.25578V9.53674e-07C38.8361 9.53674e-07 35.626 1.74196 33.0772 4.20606C30.5489 6.65036 28.4665 9.98185 26.8098 13.7684C23.4911 21.3541 21.545 31.536 21.545 42.5578H25.8008ZM42.5579 80.8599V85.1156C46.2797 85.1156 49.4898 83.3737 52.0386 80.9096C54.5669 78.4653 56.6493 75.1338 58.306 71.3473C61.6247 63.7615 63.5708 53.5796 63.5708 42.5578H59.315H55.0593C55.0593 52.6896 53.2542 61.6588 50.508 67.9357C49.1322 71.0804 47.6038 73.3581 46.1225 74.7902C44.6617 76.2025 43.4635 76.6041 42.5579 76.6041V80.8599ZM59.315 42.5578H63.5708C63.5708 31.536 61.6247 21.3541 58.306 13.7684C56.6493 9.98185 54.5669 6.65036 52.0386 4.20606C49.4898 1.74196 46.2797 9.53674e-07 42.5579 9.53674e-07V4.25578V8.51157C43.4635 8.51157 44.6617 8.91316 46.1225 10.3254C47.6038 11.7575 49.1322 14.0352 50.508 17.18C53.2542 23.4569 55.0593 32.426 55.0593 42.5578H59.315ZM9.04362 32.9823V37.2381H76.0722V32.9823V28.7265H9.04362V32.9823ZM9.4457 54.5268V58.7826H76.4743V54.5268V50.271H9.4457V54.5268Z" fill="#940101"/>
</svg>
