<svg width="109" height="109" viewBox="0 0 109 109" fill="none" xmlns="http://www.w3.org/2000/svg">
<path d="M54.002 22.8331C58.3246 15.3461 67.4573 16.0371 74.054 19.8457C80.9266 23.8136 85.8153 31.2179 81.4927 38.7049C76.0186 48.1864 65.8193 51.4048 56.2079 54.7066C54.9797 55.3795 52.8242 54.133 52.7964 52.7338C50.9142 42.8322 48.5804 32.2235 54.002 22.8331Z" fill="#E45367"/>
<path d="M22.8335 54.4051C15.3465 50.0825 16.0375 40.9498 19.8461 34.3531C23.814 27.4805 31.2183 22.5917 38.7052 26.9143C48.1868 32.3885 51.4052 42.5878 54.7069 52.1992C55.3799 53.4273 54.1334 55.5829 52.7342 55.6106C42.8326 57.4928 32.2239 59.8266 22.8335 54.4051Z" fill="#E45367"/>
<path d="M54.4052 85.5732C50.0826 93.0601 40.9499 92.3692 34.3532 88.5606C27.4806 84.5927 22.5919 77.1884 26.9145 69.7014C32.3887 60.2198 42.588 57.0015 52.1993 53.6997C53.4275 53.0268 55.583 54.2733 55.6108 55.6724C57.493 65.574 59.8268 76.1827 54.4052 85.5732Z" fill="#E45367"/>
<path d="M85.5728 54.0012C93.0598 58.3238 92.3688 67.4565 88.5602 74.0532C84.5923 80.9258 77.188 85.8145 69.701 81.4919C60.2195 76.0178 57.0011 65.8184 53.6993 56.2071C53.0264 54.9789 54.2729 52.8234 55.6721 52.7956C65.5736 50.9134 76.1824 48.5796 85.5728 54.0012Z" fill="#E45367"/>
<g style="mix-blend-mode:multiply">
<path d="M63.5877 47.1877C64.8259 45.6181 62.7882 43.5804 61.2186 44.8187L58.9387 46.6173C57.9033 47.4341 56.3733 46.8003 56.2187 45.4907L55.8784 42.6067C55.6441 40.6212 52.7623 40.6212 52.528 42.6067L52.1877 45.4907C52.0331 46.8003 50.5031 47.4341 49.4678 46.6173L47.1878 44.8187C45.6182 43.5804 43.5805 45.6181 44.8188 47.1877L46.6174 49.4677C47.4341 50.503 46.8004 52.033 45.4907 52.1876L42.6068 52.5279C40.6213 52.7622 40.6213 55.644 42.6068 55.8783L45.4907 56.2187C46.8004 56.3732 47.4341 57.9032 46.6174 58.9386L44.8188 61.2185C43.5805 62.7881 45.6182 64.8259 47.1878 63.5876L49.4678 61.789C50.5031 60.9722 52.0331 61.606 52.1877 62.9156L52.528 65.7996C52.7623 67.7851 55.6441 67.7851 55.8784 65.7996L56.2187 62.9156C56.3733 61.606 57.9033 60.9722 58.9387 61.789L61.2186 63.5876C62.7882 64.8259 64.8259 62.7881 63.5877 61.2185L61.7891 58.9386C60.9723 57.9032 61.6061 56.3732 62.9157 56.2186L65.7997 55.8783C67.7851 55.644 67.7851 52.7622 65.7997 52.5279L62.9157 52.1876C61.6061 52.0331 60.9723 50.503 61.7891 49.4677L63.5877 47.1877Z" fill="#E45367"/>
<path fill-rule="evenodd" clip-rule="evenodd" d="M68.466 67.9981L40.4084 39.9405L39.9407 40.4081L67.9983 68.4657L68.466 67.9981Z" fill="#E45367"/>
<path d="M38.304 42.5125C39.4662 43.6746 41.3505 43.6746 42.5127 42.5125C43.6749 41.3503 43.6749 39.466 42.5127 38.3038C41.3505 37.1416 39.4662 37.1416 38.304 38.3038C37.1418 39.466 37.1418 41.3503 38.304 42.5125Z" fill="#E45367"/>
<path d="M65.894 70.1024C67.0562 71.2646 68.9405 71.2646 70.1026 70.1024C71.2648 68.9402 71.2648 67.056 70.1026 65.8938C68.9405 64.7316 67.0562 64.7316 65.894 65.8938C64.7318 67.056 64.7318 68.9402 65.894 70.1024Z" fill="#E45367"/>
<path fill-rule="evenodd" clip-rule="evenodd" d="M74.0431 53.8724L34.3636 53.8724V54.5338L74.0431 54.5338V53.8724Z" fill="#E45367"/>
<path d="M34.6943 57.1791C36.3379 57.1791 37.6702 55.8467 37.6702 54.2031C37.6702 52.5595 36.3379 51.2271 34.6943 51.2271C33.0507 51.2271 31.7183 52.5595 31.7183 54.2031C31.7183 55.8467 33.0507 57.1791 34.6943 57.1791Z" fill="#E45367"/>
<path d="M73.7124 57.1791C75.356 57.1791 76.6884 55.8467 76.6884 54.2031C76.6884 52.5595 75.356 51.2271 73.7124 51.2271C72.0688 51.2271 70.7364 52.5595 70.7364 54.2031C70.7364 55.8467 72.0688 57.1791 73.7124 57.1791Z" fill="#E45367"/>
<path fill-rule="evenodd" clip-rule="evenodd" d="M67.9983 39.9405L39.9407 67.9981L40.4084 68.4657L68.466 40.4081L67.9983 39.9405Z" fill="#E45367"/>
<path d="M42.5127 70.1024C43.6749 68.9402 43.6749 67.056 42.5127 65.8938C41.3505 64.7316 39.4662 64.7316 38.304 65.8938C37.1418 67.056 37.1418 68.9402 38.304 70.1024C39.4662 71.2646 41.3505 71.2646 42.5127 70.1024Z" fill="#E45367"/>
<path d="M70.1026 42.5125C71.2648 41.3503 71.2648 39.466 70.1026 38.3038C68.9405 37.1416 67.0562 37.1416 65.894 38.3038C64.7318 39.466 64.7318 41.3503 65.894 42.5125C67.0562 43.6746 68.9405 43.6746 70.1026 42.5125Z" fill="#E45367"/>
<path fill-rule="evenodd" clip-rule="evenodd" d="M53.8727 34.3634L53.8727 74.0429L54.534 74.0429L54.534 34.3634L53.8727 34.3634Z" fill="#E45367"/>
<path d="M57.1793 73.7122C57.1793 72.0686 55.8469 70.7362 54.2033 70.7362C52.5598 70.7362 51.2274 72.0686 51.2274 73.7122C51.2274 75.3558 52.5598 76.6882 54.2033 76.6882C55.8469 76.6882 57.1793 75.3558 57.1793 73.7122Z" fill="#E45367"/>
<path d="M57.1793 34.6941C57.1793 33.0505 55.8469 31.7181 54.2033 31.7181C52.5598 31.7181 51.2274 33.0505 51.2274 34.6941C51.2274 36.3377 52.5598 37.67 54.2033 37.67C55.8469 37.67 57.1793 36.3376 57.1793 34.6941Z" fill="#E45367"/>
<path fill-rule="evenodd" clip-rule="evenodd" d="M39.9407 40.4081L67.9983 68.4657L68.466 67.9981L40.4084 39.9405L39.9407 40.4081Z" fill="#E45367"/>
<path d="M70.1026 65.8938C68.9405 64.7316 67.0562 64.7316 65.894 65.8938C64.7318 67.056 64.7318 68.9402 65.894 70.1024C67.0562 71.2646 68.9405 71.2646 70.1026 70.1024C71.2648 68.9402 71.2648 67.056 70.1026 65.8938Z" fill="#E45367"/>
<path d="M42.5127 38.3038C41.3505 37.1416 39.4662 37.1416 38.304 38.3038C37.1418 39.466 37.1418 41.3503 38.304 42.5125C39.4662 43.6746 41.3505 43.6746 42.5127 42.5125C43.6749 41.3503 43.6749 39.466 42.5127 38.3038Z" fill="#E45367"/>
<path fill-rule="evenodd" clip-rule="evenodd" d="M34.3636 54.5338L74.0431 54.5338V53.8724L34.3636 53.8724V54.5338Z" fill="#E45367"/>
<path d="M73.7124 51.2271C72.0688 51.2271 70.7364 52.5595 70.7364 54.2031C70.7364 55.8467 72.0688 57.1791 73.7124 57.1791C75.356 57.1791 76.6884 55.8467 76.6884 54.2031C76.6884 52.5595 75.356 51.2271 73.7124 51.2271Z" fill="#E45367"/>
<path d="M34.6943 51.2271C33.0507 51.2271 31.7183 52.5595 31.7183 54.2031C31.7183 55.8467 33.0507 57.1791 34.6943 57.1791C36.3379 57.1791 37.6702 55.8467 37.6702 54.2031C37.6702 52.5595 36.3379 51.2271 34.6943 51.2271Z" fill="#E45367"/>
<path fill-rule="evenodd" clip-rule="evenodd" d="M40.4084 68.4657L68.466 40.4081L67.9983 39.9405L39.9407 67.9981L40.4084 68.4657Z" fill="#E45367"/>
<path d="M65.894 38.3038C64.7318 39.466 64.7318 41.3503 65.894 42.5125C67.0562 43.6746 68.9405 43.6746 70.1026 42.5125C71.2648 41.3503 71.2648 39.466 70.1026 38.3038C68.9405 37.1416 67.0562 37.1416 65.894 38.3038Z" fill="#E45367"/>
<path d="M38.304 65.8938C37.1418 67.056 37.1418 68.9402 38.304 70.1024C39.4662 71.2646 41.3505 71.2646 42.5127 70.1024C43.6749 68.9402 43.6749 67.056 42.5127 65.8938C41.3505 64.7316 39.4662 64.7316 38.304 65.8938Z" fill="#E45367"/>
<path fill-rule="evenodd" clip-rule="evenodd" d="M54.534 74.0429L54.534 34.3634L53.8727 34.3634L53.8727 74.0429L54.534 74.0429Z" fill="#E45367"/>
<path d="M51.2274 34.6941C51.2274 36.3377 52.5598 37.67 54.2033 37.67C55.8469 37.67 57.1793 36.3376 57.1793 34.6941C57.1793 33.0505 55.8469 31.7181 54.2033 31.7181C52.5598 31.7181 51.2274 33.0505 51.2274 34.6941Z" fill="#E45367"/>
<path d="M51.2274 73.7122C51.2274 75.3558 52.5598 76.6882 54.2033 76.6882C55.8469 76.6882 57.1793 75.3558 57.1793 73.7122C57.1793 72.0686 55.8469 70.7362 54.2033 70.7362C52.5598 70.7362 51.2274 72.0686 51.2274 73.7122Z" fill="#E45367"/>
</g>
</svg>
