<svg width="90" height="89" viewBox="0 0 90 89" fill="none" xmlns="http://www.w3.org/2000/svg">
<path d="M37.6929 29.4781H24.0758C22.4187 29.4781 21.0498 28.1092 21.0498 26.4521C21.0498 24.795 22.4187 23.4261 24.0758 23.4261H37.6929C39.3499 23.4261 40.7188 24.795 40.7188 26.4521C40.7188 28.1092 39.3499 29.4781 37.6929 29.4781Z" fill="#0F0F0F"/>
<path d="M14.2054 43.3116L21.4823 31.784C22.3468 30.343 24.2201 29.9107 25.661 30.8474C27.102 31.7119 27.5343 33.5852 26.5977 35.0261L19.3208 46.5538C18.4563 47.9947 16.583 48.427 15.1421 47.4904C13.7731 46.6258 13.3409 44.7526 14.2054 43.3116Z" fill="#0F0F0F"/>
<path d="M4.55045 46.5536L6.27959 33.0086C6.49574 31.3515 8.00875 30.1988 9.66585 30.4149C11.3229 30.631 12.4757 32.144 12.2596 33.8011L10.5304 47.3461C10.3143 49.0032 8.80128 50.156 7.14418 49.9398C5.48708 49.7237 4.33431 48.2107 4.55045 46.5536Z" fill="#0F0F0F"/>
<path d="M16.8707 58.2254L3.32572 59.4502C1.66862 59.5943 0.155612 58.3695 0.0115162 56.7124C-0.132579 55.0553 1.09225 53.5423 2.74935 53.3982L16.2943 52.1734C17.9514 52.0293 19.4644 53.2541 19.6085 54.9112C19.7526 56.5683 18.5278 58.0813 16.8707 58.2254Z" fill="#0F0F0F"/>
<path d="M11.9712 62.9083L21.3374 72.7789C22.4902 74.0037 22.4181 75.949 21.1933 77.0297C19.9685 78.1825 18.0232 78.1104 16.9425 76.8856L7.57626 67.015C6.4235 65.7902 6.49556 63.8449 7.72037 62.7642C8.94518 61.6115 10.8184 61.6835 11.9712 62.9083Z" fill="#0F0F0F"/>
<path d="M31.0644 50.1562L27.1018 63.1969C26.5974 64.7819 24.9403 65.7185 23.2832 65.2142C21.6982 64.7099 20.7615 63.0528 21.2659 61.3957L25.2285 48.355C25.7328 46.77 27.39 45.8333 29.0471 46.3377C30.7042 46.842 31.5687 48.5712 31.0644 50.1562Z" fill="#0F0F0F"/>
<path d="M33.3697 69.1045L27.6059 81.4967C26.8854 83.0097 25.0842 83.6582 23.5712 82.9377C22.0582 82.2172 21.4098 80.416 22.1303 78.903L27.8941 66.5108C28.6146 64.9978 30.4158 64.3494 31.9288 65.0698C33.4418 65.7903 34.0902 67.5915 33.3697 69.1045Z" fill="#0F0F0F"/>
<path d="M36.3232 71.2659L49.7961 73.2112C51.4532 73.4273 52.606 75.0124 52.3899 76.6695C52.1737 78.3266 50.5887 79.4794 48.9316 79.2632L35.4586 77.3179C33.8015 77.1018 32.6488 75.5167 32.8649 73.8596C33.1531 72.1305 34.6661 70.9777 36.3232 71.2659Z" fill="#0F0F0F"/>
<path d="M34.5229 83.0098L47.8517 80.0558C49.5088 79.6955 51.0939 80.7042 51.4541 82.3613C51.8144 84.0184 50.8057 85.6035 49.1486 85.9637L35.8198 88.9177C34.1627 89.2779 32.5776 88.2692 32.2174 86.6121C31.8571 84.955 32.8658 83.37 34.5229 83.0098Z" fill="#0F0F0F"/>
<path d="M46.9147 53.1822L58.9467 59.5224C60.4597 60.3149 60.964 62.1161 60.2435 63.6291C59.523 65.1421 57.6498 65.6464 56.1368 64.926L44.1048 58.5857C42.5918 57.7932 42.0875 55.992 42.808 54.479C43.6005 52.966 45.4017 52.3896 46.9147 53.1822Z" fill="#0F0F0F"/>
<path d="M67.8089 57.937L71.9877 70.9056C72.492 72.4907 71.6274 74.2198 70.0424 74.7242C68.4573 75.2285 66.7282 74.3639 66.2239 72.7789L62.0451 59.8103C61.5407 58.2252 62.4053 56.4961 63.9904 55.9917C65.5754 55.4874 67.2325 56.2799 67.8089 57.937Z" fill="#0F0F0F"/>
<path d="M58.8024 67.9519L67.232 78.6871C68.2407 79.9839 68.0246 81.9292 66.7277 82.9379C65.4308 83.9465 63.4855 83.7304 62.4769 82.4336L53.9752 71.6984C52.9666 70.4016 53.1827 68.4563 54.4796 67.4476C55.8485 66.4389 57.7217 66.6551 58.8024 67.9519Z" fill="#0F0F0F"/>
<path d="M61.612 19.1754L75.0129 21.553C76.67 21.8412 77.7507 23.4262 77.4625 25.0833C77.1743 26.7404 75.5893 27.8211 73.9322 27.533L60.5313 25.1554C58.8742 24.8672 57.7934 23.2821 58.0816 21.625C58.4419 19.9679 60.0269 18.8872 61.612 19.1754Z" fill="#0F0F0F"/>
<path d="M61.3241 2.60432L71.1947 11.9705C72.4195 13.1233 72.4916 15.0686 71.3388 16.2213C70.186 17.4462 68.2407 17.5182 67.088 16.3655L57.2174 6.99924C55.9926 5.84647 55.9206 3.90117 57.0733 2.7484C58.1541 1.52359 60.0993 1.45155 61.3241 2.60432Z" fill="#0F0F0F"/>
<path d="M69.1774 33.8731L81.0653 27.1727C82.5062 26.3801 84.3795 26.8845 85.172 28.3254C85.9645 29.7664 85.4602 31.6396 84.0192 32.4321L72.1314 39.1326C70.6904 39.9251 68.8172 39.4208 68.0246 37.9798C67.2321 36.5389 67.7364 34.6656 69.1774 33.8731Z" fill="#0F0F0F"/>
<path d="M69.0338 54.4069L73.5729 41.5824C74.1493 39.9973 75.8784 39.2048 77.4634 39.7091C79.0485 40.2855 79.841 42.0146 79.3367 43.5997L74.7976 56.4242C74.2213 58.0092 72.4921 58.8018 70.9071 58.2974C69.322 57.7931 68.5295 55.9919 69.0338 54.4069Z" fill="#0F0F0F"/>
<path d="M75.157 71.6983L76.3818 58.1534C76.5259 56.4963 78.039 55.2714 79.6961 55.4155C81.3532 55.5596 82.578 57.0726 82.4339 58.7297L81.2091 72.2747C81.065 73.9318 79.552 75.1566 77.8949 75.0125C76.2378 74.8684 75.0129 73.4275 75.157 71.6983Z" fill="#0F0F0F"/>
<path d="M84.019 52.8218L81.065 39.493C80.7048 37.8359 81.7135 36.2509 83.3706 35.8906C85.0277 35.5304 86.6127 36.5391 86.9729 38.1961L89.9269 51.525C90.2871 53.1821 89.2785 54.7671 87.6214 55.1274C86.0363 55.4876 84.3792 54.4789 84.019 52.8218Z" fill="#0F0F0F"/>
<path d="M30.6317 4.26167L32.1447 17.8067C32.3608 19.4638 31.136 20.9767 29.4789 21.1208C27.8218 21.337 26.3088 20.1122 26.1647 18.4551L24.6517 4.91009C24.4356 3.25299 25.6604 1.74001 27.3175 1.59591C28.9746 1.37977 30.4876 2.60457 30.6317 4.26167Z" fill="#0F0F0F"/>
<path d="M6.27964 22.4898L18.7439 16.9421C20.2569 16.2936 22.0581 16.9421 22.7786 18.4551C23.427 19.9681 22.7786 21.7693 21.2656 22.4898L8.80131 28.0374C7.2883 28.6859 5.48711 28.0374 4.76663 26.5244C4.04615 25.0114 4.76663 23.1382 6.27964 22.4898Z" fill="#0F0F0F"/>
<path d="M41.295 44.8245L51.9581 36.3949C53.2549 35.3863 55.2002 35.6024 56.2089 36.8993C57.2176 38.1961 57.0014 40.1414 55.7046 41.1501L45.0415 49.5797C43.7446 50.5883 41.7993 50.3722 40.7907 49.0753C39.782 47.7785 39.9982 45.8332 41.295 44.8245Z" fill="#0F0F0F"/>
<path d="M58.0096 33.0088L44.8969 29.3343C43.3119 28.9021 42.3753 27.2449 42.8076 25.5878C43.2398 24.0028 44.8969 23.0662 46.554 23.4985L59.6667 27.1729C61.2518 27.6052 62.1884 29.2623 61.7561 30.9194C61.3238 32.5044 59.5947 33.441 58.0096 33.0088Z" fill="#0F0F0F"/>
<path d="M66.0797 36.2509L65.5754 49.868C65.5033 51.5251 64.1344 52.822 62.4053 52.7499C60.7482 52.6779 59.4513 51.3089 59.5234 49.5798L60.0277 35.9628C60.0998 34.3057 61.4687 33.0088 63.1978 33.0809C64.7829 33.2249 66.0797 34.5938 66.0797 36.2509Z" fill="#0F0F0F"/>
<path d="M40.7185 53.3982L40.2142 67.0152C40.1422 68.6723 38.7733 69.9692 37.0441 69.8971C35.315 69.8251 34.0902 68.4562 34.1622 66.727L34.6665 53.11C34.7386 51.4529 36.1075 50.156 37.8366 50.2281C39.4217 50.3001 40.7906 51.669 40.7185 53.3982Z" fill="#0F0F0F"/>
<path d="M37.4762 0.226885L50.1566 5.27023C51.7417 5.91866 52.4621 7.64781 51.8857 9.23286C51.2373 10.8179 49.5082 11.5384 47.9231 10.962L35.2427 5.91868C33.6577 5.27025 32.9372 3.5411 33.5136 1.95605C34.162 0.370998 35.8911 -0.421546 37.4762 0.226885Z" fill="#0F0F0F"/>
<path d="M41.1512 15.8614L54.408 12.6193C56.0651 12.259 57.6502 13.1957 58.0825 14.8528C58.4427 16.5099 57.5061 18.0949 55.849 18.5272L42.5922 21.7694C40.9351 22.1296 39.35 21.193 38.9177 19.5359C38.5575 17.9508 39.5662 16.2937 41.1512 15.8614Z" fill="#0F0F0F"/>
<path d="M30.0555 36.3951L43.3123 33.1529C44.9694 32.7927 46.5545 33.7293 46.9868 35.3864C47.347 37.0435 46.4104 38.6285 44.7533 39.0608L31.4965 42.303C29.8394 42.6632 28.2543 41.7266 27.822 40.0695C27.4618 38.4844 28.4705 36.8273 30.0555 36.3951Z" fill="#0F0F0F"/>
</svg>
