<svg width="9" height="8" viewBox="0 0 9 8" fill="none" xmlns="http://www.w3.org/2000/svg">
<path d="M4.10385 0.31689C4.32663 0.0285093 4.76186 0.0285096 4.98465 0.31689L6.06996 1.72175C6.13498 1.8059 6.22275 1.86967 6.32288 1.9055L7.99435 2.50357C8.33747 2.62634 8.47196 3.04026 8.26654 3.34126L7.26582 4.80758C7.20587 4.89542 7.17235 4.9986 7.16922 5.1049L7.11693 6.87938C7.1062 7.24364 6.75409 7.49946 6.40435 7.39711L4.70056 6.89849C4.59849 6.86862 4.49 6.86862 4.38794 6.89849L2.68414 7.39711C2.3344 7.49946 1.9823 7.24364 1.97156 6.87938L1.91928 5.1049C1.91614 4.9986 1.88262 4.89542 1.82267 4.80758L0.821956 3.34126C0.616535 3.04026 0.751028 2.62634 1.09414 2.50357L2.76562 1.9055C2.86575 1.86967 2.95351 1.8059 3.01853 1.72175L4.10385 0.31689Z" fill="#FF9C9C"/>
</svg>
