<svg width="82" height="35" viewBox="0 0 82 35" fill="none" xmlns="http://www.w3.org/2000/svg">
<rect x="0.630258" y="0.630258" width="80.246" height="33.701" rx="7.12625" fill="#FAF9F5"/>
<rect x="0.630258" y="0.630258" width="80.246" height="33.701" rx="7.12625" stroke="#F0F0EF" stroke-width="1.26052"/>
<rect x="3.87793" y="4.48218" width="34.6052" height="26.6052" rx="3.87825" transform="rotate(-1 3.87793 4.48218)" fill="#FF000F"/>
<path d="M15.158 21.5906L13.7205 21.6157L13.6451 17.2981L12.9214 17.3108L12.8962 15.8683L12.1774 15.8808L12.1524 14.4433L11.4336 14.4558L11.4084 13.0133L10.6896 13.0259L10.6644 11.5834L12.102 11.5583L12.1272 13.0008L12.846 12.9882L12.8711 14.4307L13.5948 14.4181L13.6199 15.8557L15.0575 15.8306L15.0324 14.393L15.7561 14.3804L15.7309 12.9379L16.4497 12.9253L16.4245 11.4829L17.8621 11.4578L17.8872 12.9003L17.1685 12.9128L17.1936 14.3553L16.4749 14.3678L16.5 15.8054L15.7812 15.8179L15.8064 17.2604L15.0827 17.273L15.158 21.5906ZM22.72 21.4586L19.1162 21.5215L19.1037 20.8028L18.3849 20.8153L18.3724 20.0965L17.6536 20.1091L17.5781 15.7866L18.2969 15.774L18.2844 15.0552L19.0031 15.0427L18.9906 14.3239L22.5943 14.261L22.6069 14.9798L23.3257 14.9672L23.3382 15.686L24.057 15.6735L24.101 18.1941L19.0597 18.2821L19.0786 19.3652L19.7974 19.3527L19.8099 20.0714L21.9712 20.0337L21.9586 19.3149L24.1199 19.2772L24.1324 19.996L23.4137 20.0085L23.4262 20.7273L22.7074 20.7399L22.72 21.4586ZM19.0409 17.204L22.6446 17.141L22.632 16.4173L21.9083 16.43L21.8957 15.7112L19.7345 15.7489L19.747 16.4677L19.0282 16.4802L19.0409 17.204ZM30.2819 21.3266L26.6782 21.3896L26.6656 20.6708L25.9469 20.6833L25.9343 19.9645L25.2155 19.9771L25.203 19.2583L27.3593 19.2207L27.3719 19.9394L29.8925 19.8955L29.8673 18.453L27.3467 18.497L27.3341 17.7782L25.8966 17.8033L25.884 17.0845L25.1653 17.097L25.1401 15.6546L25.8589 15.642L25.8463 14.9232L26.5651 14.9107L26.5525 14.1919L30.1563 14.129L30.1688 14.8478L30.8876 14.8352L30.9002 15.554L31.6189 15.5415L31.6315 16.2603L29.4702 16.298L29.4577 15.5792L26.937 15.6232L26.9622 17.0657L29.4828 17.0217L29.4954 17.7405L30.9379 17.7153L30.9504 18.4341L31.6692 18.4215L31.6944 19.864L30.9756 19.8765L30.9881 20.5953L30.2694 20.6079L30.2819 21.3266Z" fill="white"/>
<path d="M53.8324 21.4808H52.3947V11.3966H54.5513V12.8393H55.2751V14.282H55.994V15.7198H56.7129V17.1625H57.4367V18.6003H58.1556L58.1556 11.3966H59.5934V21.4808H57.4367V20.043H56.7129V18.6003H55.994V17.1625H55.2751V15.7198H54.5513V14.282H53.8324V21.4808ZM66.0831 21.4808L62.4788 21.4808V20.7619H61.7599V20.043H61.041L61.041 15.7198H61.7599V15.0009H62.4788V14.282L66.0831 14.282V15.0009H66.802V15.7198L67.5209 15.7198V20.043H66.802V20.7619H66.0831V21.4808ZM63.1977 20.043H65.3593V19.3241H66.0831V16.4387H65.3593V15.7198H63.1977V16.4387L62.4788 16.4387V19.3241H63.1977V20.043Z" fill="#A3A3A3"/>
</svg>
