<svg width="49" height="9" viewBox="0 0 49 9" fill="none" xmlns="http://www.w3.org/2000/svg">
<rect x="0.517944" y="0.662842" width="20.6719" height="7.90625" rx="1.17188" fill="#FFF3F3"/>
<path d="M5.7843 4.99409C5.7843 4.98576 5.7843 4.96597 5.7843 4.93472C5.78222 4.90138 5.78118 4.87326 5.78118 4.85034L5.17493 3.89097C5.13534 3.82847 5.11034 3.79201 5.09993 3.78159C5.06868 3.75034 5.03014 3.73472 4.9843 3.73472C4.9593 3.73472 4.94055 3.73576 4.92805 3.73784C4.9218 3.73784 4.91243 3.73784 4.89993 3.73784C4.88534 3.73993 4.87493 3.74097 4.86868 3.74097C4.77284 3.74097 4.72493 3.70451 4.72493 3.63159C4.72493 3.55659 4.76659 3.51909 4.84993 3.51909C4.88326 3.51909 4.92493 3.52326 4.97493 3.53159C5.07493 3.54826 5.16868 3.55659 5.25618 3.55659C5.32076 3.55659 5.41764 3.54722 5.5468 3.52847C5.59055 3.52222 5.62805 3.51909 5.6593 3.51909C5.74472 3.51909 5.78743 3.55555 5.78743 3.62847C5.78743 3.6993 5.73639 3.73472 5.6343 3.73472L5.60305 3.73159H5.52493L5.46243 3.72847C5.43743 3.72638 5.42493 3.73472 5.42493 3.75347C5.42493 3.7618 5.42597 3.76805 5.42805 3.77222C5.43014 3.7743 5.43534 3.78263 5.44368 3.79722L5.9218 4.60972L6.40618 3.79722C6.41659 3.78055 6.4218 3.76388 6.4218 3.74722C6.4218 3.72847 6.40826 3.71909 6.38118 3.71909H6.37493L6.31868 3.72222L6.23743 3.73159C6.20201 3.73576 6.17493 3.73784 6.15618 3.73784C6.07076 3.73784 6.02805 3.70138 6.02805 3.62847C6.02805 3.55555 6.06972 3.51909 6.15305 3.51909C6.1843 3.51909 6.2218 3.52222 6.26555 3.52847C6.38222 3.54513 6.48326 3.55347 6.56868 3.55347C6.65826 3.55347 6.75722 3.54513 6.86555 3.52847C6.90722 3.52222 6.94264 3.51909 6.9718 3.51909C7.05097 3.51909 7.09055 3.55555 7.09055 3.62847C7.09055 3.69513 7.05201 3.72847 6.97493 3.72847C6.94368 3.72847 6.91972 3.72638 6.90305 3.72222C6.86972 3.71805 6.8468 3.71597 6.8343 3.71597C6.78014 3.71597 6.73639 3.74097 6.70305 3.79097L6.65618 3.86284L6.04055 4.82847V4.95972C6.04055 5.17222 6.04889 5.30451 6.06555 5.35659C6.0843 5.40868 6.12909 5.43472 6.19993 5.43472C6.21659 5.43472 6.24159 5.43263 6.27493 5.42847C6.31034 5.42222 6.33639 5.41909 6.35305 5.41909C6.41764 5.41909 6.44993 5.45243 6.44993 5.51909C6.44993 5.59409 6.40305 5.63159 6.3093 5.63159C6.30722 5.63159 6.30097 5.63159 6.29055 5.63159C6.28222 5.62951 6.27493 5.62847 6.26868 5.62847L6.0968 5.60659C6.03222 5.59826 5.96868 5.59409 5.90618 5.59409C5.83951 5.59409 5.77597 5.59826 5.71555 5.60659L5.55618 5.62847C5.55201 5.62847 5.54576 5.62951 5.53743 5.63159C5.52701 5.63159 5.51972 5.63159 5.51555 5.63159C5.4218 5.63159 5.37493 5.59513 5.37493 5.52222C5.37493 5.45347 5.40826 5.41909 5.47493 5.41909C5.49159 5.41909 5.51555 5.42222 5.5468 5.42847C5.58014 5.43263 5.60514 5.43472 5.6218 5.43472C5.7093 5.43472 5.76243 5.37951 5.78118 5.26909C5.78326 5.25034 5.7843 5.15868 5.7843 4.99409ZM7.50786 3.94722C7.50786 3.79305 7.45474 3.71597 7.34849 3.71597C7.31932 3.71597 7.29744 3.71805 7.28286 3.72222C7.24953 3.72847 7.2214 3.73159 7.19849 3.73159C7.1714 3.73159 7.14849 3.72222 7.12974 3.70347C7.11099 3.68263 7.10161 3.65763 7.10161 3.62847C7.10161 3.55555 7.14536 3.51909 7.23286 3.51909C7.23494 3.51909 7.25057 3.52013 7.27974 3.52222C7.59224 3.54305 7.73807 3.55347 7.71724 3.55347C7.73807 3.55347 7.74849 3.55347 7.74849 3.55347L8.50161 3.53159C8.51619 3.53159 8.57036 3.52847 8.66411 3.52222C8.69744 3.52013 8.72765 3.51909 8.75474 3.51909C8.86307 3.51909 8.91724 3.56701 8.91724 3.66284C8.91724 3.67951 8.91307 3.73263 8.90474 3.82222C8.89849 3.88888 8.89536 3.95034 8.89536 4.00659C8.89536 4.07951 8.89744 4.13055 8.90161 4.15972C8.90994 4.22013 8.91411 4.26493 8.91411 4.29409C8.91411 4.37326 8.87661 4.41284 8.80161 4.41284C8.72661 4.41284 8.68911 4.35763 8.68911 4.24722V4.08472C8.68911 3.90972 8.65265 3.80659 8.57974 3.77534C8.52557 3.75243 8.38599 3.74097 8.16099 3.74097C8.01307 3.74097 7.92557 3.74409 7.89849 3.75034C7.8089 3.77326 7.76411 3.83576 7.76411 3.93784V4.07847C7.76411 4.09513 7.76411 4.11805 7.76411 4.14722C7.76203 4.17638 7.76099 4.19722 7.76099 4.20972V4.25034C7.76099 4.33368 7.77974 4.38159 7.81724 4.39409C7.83182 4.39826 7.85682 4.40034 7.89224 4.40034H8.02036C8.15161 4.40034 8.21724 4.35555 8.21724 4.26597C8.21724 4.24097 8.21411 4.20868 8.20786 4.16909C8.20161 4.12951 8.19849 4.09409 8.19849 4.06284C8.19849 3.97951 8.23599 3.93784 8.31099 3.93784C8.38599 3.93784 8.42349 3.98263 8.42349 4.07222C8.42349 4.08888 8.41619 4.15347 8.40161 4.26597C8.38911 4.3618 8.38286 4.44618 8.38286 4.51909C8.38286 4.56076 8.38703 4.63472 8.39536 4.74097C8.39744 4.75763 8.40265 4.79409 8.41099 4.85034C8.41724 4.89618 8.42036 4.93263 8.42036 4.95972C8.42036 5.03472 8.38286 5.07222 8.30786 5.07222C8.23494 5.07222 8.19849 5.02847 8.19849 4.94097C8.19849 4.91805 8.20057 4.88472 8.20474 4.84097C8.21099 4.79722 8.21411 4.76388 8.21411 4.74097C8.21411 4.65138 8.15474 4.60659 8.03599 4.60659H7.89536C7.83494 4.60659 7.79744 4.61701 7.78286 4.63784C7.77036 4.65868 7.76411 4.70347 7.76411 4.77222V4.96597C7.76411 4.9993 7.76515 5.04409 7.76724 5.10034C7.76932 5.16909 7.77036 5.21493 7.77036 5.23784C7.77244 5.32118 7.78911 5.37326 7.82036 5.39409C7.84328 5.40868 7.89744 5.41597 7.98286 5.41597H8.40786C8.53078 5.41597 8.61515 5.39826 8.66099 5.36284C8.70682 5.32534 8.72974 5.25659 8.72974 5.15659C8.72974 5.12534 8.72765 5.07951 8.72349 5.01909C8.7214 4.95659 8.72036 4.90972 8.72036 4.87847C8.72036 4.78472 8.75786 4.73784 8.83286 4.73784C8.91203 4.73784 8.95161 4.78576 8.95161 4.88159C8.95161 4.91909 8.94953 4.97638 8.94536 5.05347C8.94119 5.13055 8.93911 5.18784 8.93911 5.22534C8.93911 5.25451 8.94015 5.29826 8.94224 5.35659C8.9464 5.41284 8.94849 5.45555 8.94849 5.48472C8.94849 5.58263 8.90057 5.63159 8.80474 5.63159C8.78182 5.63159 8.74536 5.62951 8.69536 5.62534C8.67036 5.62326 8.62453 5.62222 8.55786 5.62222C8.57244 5.62222 8.49119 5.62013 8.31411 5.61597C8.13703 5.6118 7.9839 5.60972 7.85474 5.60972C7.6589 5.60972 7.46724 5.61597 7.27974 5.62847C7.2714 5.62847 7.26203 5.62951 7.25161 5.63159C7.24119 5.63159 7.23494 5.63159 7.23286 5.63159C7.14536 5.63159 7.10161 5.59409 7.10161 5.51909C7.10161 5.45243 7.1339 5.41909 7.19849 5.41909C7.2089 5.41909 7.23703 5.42118 7.28286 5.42534C7.30578 5.43159 7.32765 5.43472 7.34849 5.43472C7.45474 5.43472 7.50786 5.35659 7.50786 5.20034V3.94722ZM10.1043 3.46284C10.3084 3.46284 10.4751 3.52847 10.6043 3.65972V3.61597C10.6043 3.53472 10.6366 3.49409 10.7011 3.49409C10.772 3.49409 10.8074 3.53888 10.8074 3.62847V3.64722C10.8074 3.65138 10.8043 3.68263 10.798 3.74097C10.7918 3.7993 10.7886 3.86909 10.7886 3.95034C10.7886 3.96076 10.7907 3.99409 10.7949 4.05034L10.8043 4.17534C10.8064 4.18576 10.8074 4.20034 10.8074 4.21909C10.8074 4.31909 10.7689 4.36909 10.6918 4.36909C10.6105 4.36909 10.5699 4.32743 10.5699 4.24409C10.5699 4.23368 10.5699 4.22847 10.5699 4.22847L10.5761 4.14409C10.5782 4.11493 10.5793 4.09201 10.5793 4.07534C10.5793 3.95034 10.5366 3.85243 10.4511 3.78159C10.3678 3.71076 10.2522 3.67534 10.1043 3.67534C9.96886 3.67534 9.86052 3.70867 9.77927 3.77534C9.70011 3.84201 9.66052 3.93159 9.66052 4.04409C9.66052 4.17534 9.7199 4.27222 9.83865 4.33472C9.90531 4.36805 10.022 4.39826 10.1886 4.42534C10.4366 4.46493 10.6064 4.51909 10.698 4.58784C10.8355 4.68993 10.9043 4.83472 10.9043 5.02222C10.9043 5.21805 10.8334 5.37743 10.6918 5.50034C10.5522 5.62326 10.3709 5.68472 10.148 5.68472C9.91052 5.68472 9.71365 5.60972 9.5574 5.45972C9.5574 5.46805 9.55844 5.47743 9.56052 5.48784C9.56052 5.49826 9.56052 5.50451 9.56052 5.50659C9.56469 5.53993 9.56677 5.5618 9.56677 5.57222C9.56677 5.6493 9.53031 5.68784 9.4574 5.68784C9.37823 5.68784 9.33865 5.64409 9.33865 5.55659C9.33865 5.54618 9.33969 5.53784 9.34177 5.53159L9.35427 5.36909C9.36052 5.28784 9.36365 5.23576 9.36365 5.21284C9.36365 5.17118 9.35844 5.10868 9.34802 5.02534C9.33761 4.94201 9.3324 4.87951 9.3324 4.83784C9.3324 4.74409 9.37198 4.69722 9.45115 4.69722C9.5324 4.69722 9.57302 4.74409 9.57302 4.83784V4.89409C9.57094 4.91076 9.5699 4.93472 9.5699 4.96597C9.5699 5.12222 9.6199 5.24618 9.7199 5.33784C9.8199 5.42951 9.95531 5.47534 10.1261 5.47534C10.2845 5.47534 10.4105 5.43784 10.5043 5.36284C10.598 5.28784 10.6449 5.18576 10.6449 5.05659C10.6449 4.85868 10.5199 4.73784 10.2699 4.69409L10.0918 4.66284C9.91469 4.63159 9.77719 4.59513 9.67927 4.55347C9.58969 4.51388 9.51781 4.45243 9.46365 4.36909C9.41156 4.28368 9.38552 4.18784 9.38552 4.08159C9.38552 3.89826 9.45219 3.7493 9.58552 3.63472C9.71886 3.52013 9.89177 3.46284 10.1043 3.46284Z" fill="black"/>
<path d="M14.949 4.08825H15.8645M15.8645 4.08825V5.00379M15.8645 4.08825L14.8727 5.08008M16.246 6.08081L14.4149 6.08081C14.1115 6.08081 13.8656 5.83487 13.8656 5.53149L13.8656 3.70044C13.8656 3.39706 14.1115 3.15112 14.4149 3.15112L16.246 3.15112C16.5494 3.15112 16.7953 3.39706 16.7953 3.70044V5.53149C16.7953 5.83487 16.5494 6.08081 16.246 6.08081Z" stroke="black" stroke-width="0.325521" stroke-linecap="round" stroke-linejoin="round"/>
<rect x="28.4164" y="0.662842" width="20.1172" height="7.90625" rx="1.17188" fill="#FFF3F3"/>
<path d="M34.2944 3.65972L35.135 5.40659V4.14722C35.135 3.98472 35.134 3.89513 35.1319 3.87847C35.1131 3.77013 35.0611 3.71597 34.9756 3.71597C34.959 3.71597 34.934 3.71909 34.9006 3.72534C34.8673 3.72951 34.8423 3.73159 34.8256 3.73159C34.7986 3.73159 34.7746 3.72222 34.7538 3.70347C34.735 3.68263 34.7256 3.65867 34.7256 3.63159C34.7256 3.55659 34.7725 3.51909 34.8663 3.51909C34.885 3.51909 34.8986 3.52013 34.9069 3.52222L35.0475 3.54097C35.11 3.5493 35.1683 3.55347 35.2225 3.55347C35.2767 3.55347 35.3486 3.54722 35.4381 3.53472C35.4694 3.53055 35.5058 3.52534 35.5475 3.51909C35.5517 3.51909 35.559 3.51805 35.5694 3.51597C35.5777 3.51597 35.585 3.51597 35.5913 3.51597C35.6808 3.51597 35.7256 3.55242 35.7256 3.62534C35.7256 3.69618 35.684 3.73159 35.6006 3.73159C35.5861 3.73159 35.5746 3.73055 35.5663 3.72847H35.535C35.4725 3.72847 35.4319 3.74201 35.4131 3.76909C35.3944 3.79618 35.3829 3.85555 35.3788 3.94722L35.3725 4.12534L35.3663 4.44409V5.27847C35.3663 5.42222 35.3496 5.52326 35.3163 5.58159C35.285 5.63993 35.2298 5.66909 35.1506 5.66909C35.0486 5.66909 34.9621 5.59618 34.8913 5.45034L34.0725 3.74722V5.20034C34.0725 5.35659 34.1256 5.43472 34.2319 5.43472C34.2486 5.43472 34.2736 5.43263 34.3069 5.42847C34.3402 5.42222 34.3652 5.41909 34.3819 5.41909C34.4486 5.41909 34.4819 5.45347 34.4819 5.52222C34.4819 5.59513 34.435 5.63159 34.3413 5.63159C34.3371 5.63159 34.3308 5.63159 34.3225 5.63159C34.3121 5.62951 34.3048 5.62847 34.3006 5.62847L34.1725 5.60972C34.1017 5.5993 34.035 5.59409 33.9725 5.59409C33.9183 5.59409 33.8486 5.5993 33.7631 5.60972L33.61 5.62847C33.6058 5.62847 33.5986 5.62951 33.5881 5.63159C33.5777 5.63159 33.5694 5.63159 33.5631 5.63159C33.4736 5.63159 33.4288 5.59513 33.4288 5.52222C33.4288 5.45763 33.4621 5.42534 33.5288 5.42534C33.5392 5.42534 33.5673 5.42743 33.6131 5.43159C33.6361 5.43784 33.6579 5.44097 33.6788 5.44097C33.785 5.44097 33.8381 5.36284 33.8381 5.20659V4.98784L33.8413 4.71284V4.44409L33.8381 3.95034C33.8381 3.79409 33.784 3.71597 33.6756 3.71597C33.6611 3.71597 33.6402 3.71805 33.6131 3.72222C33.5736 3.72847 33.5444 3.73159 33.5256 3.73159C33.459 3.73159 33.4256 3.69722 33.4256 3.62847C33.4256 3.55555 33.4704 3.51909 33.56 3.51909C33.5725 3.51909 33.5892 3.52013 33.61 3.52222C33.7142 3.53263 33.7944 3.53784 33.8506 3.53784C33.8819 3.53784 33.9288 3.53472 33.9913 3.52847C34.0538 3.52222 34.1006 3.51909 34.1319 3.51909C34.1965 3.51909 34.2392 3.54097 34.26 3.58472L34.2944 3.65972ZM36.6922 5.68472C36.4151 5.68472 36.1953 5.58472 36.0328 5.38472C35.8724 5.18472 35.7922 4.91388 35.7922 4.57222C35.7922 4.22638 35.8735 3.95555 36.036 3.75972C36.1985 3.5618 36.4224 3.46284 36.7078 3.46284C36.9808 3.46284 37.1974 3.55868 37.3578 3.75034C37.5203 3.94201 37.6016 4.20138 37.6016 4.52847C37.6016 4.88263 37.5193 5.16388 37.3547 5.37222C37.1922 5.58055 36.9714 5.68472 36.6922 5.68472ZM36.6985 3.68784C36.4985 3.68784 36.3433 3.76492 36.2328 3.91909C36.1224 4.07326 36.0672 4.28993 36.0672 4.56909C36.0672 4.85243 36.1224 5.07222 36.2328 5.22847C36.3433 5.38263 36.4974 5.45972 36.6953 5.45972C36.8891 5.45972 37.0422 5.37951 37.1547 5.21909C37.2693 5.05659 37.3266 4.8368 37.3266 4.55972C37.3266 4.28055 37.2724 4.06597 37.1641 3.91597C37.0558 3.76388 36.9005 3.68784 36.6985 3.68784Z" fill="black"/>
<path d="M41.5701 4.08825H42.4856M42.4856 4.08825V5.00379M42.4856 4.08825L41.4938 5.08008M42.8671 6.08081L41.036 6.08081C40.7326 6.08081 40.4867 5.83487 40.4867 5.53149L40.4867 3.70044C40.4867 3.39706 40.7326 3.15112 41.036 3.15112L42.8671 3.15112C43.1704 3.15112 43.4164 3.39706 43.4164 3.70044V5.53149C43.4164 5.83487 43.1704 6.08081 42.8671 6.08081Z" stroke="black" stroke-width="0.325521" stroke-linecap="round" stroke-linejoin="round"/>
</svg>
