<svg width="475" height="456" viewBox="0 0 475 456" fill="none" xmlns="http://www.w3.org/2000/svg">
<path d="M227.554 7.585H171.804C169.529 7.585 168.012 5.68875 168.012 3.7925C168.012 1.89625 169.908 0 171.804 0H227.554C229.829 0 231.346 1.89625 231.346 3.7925C231.346 5.68875 229.829 7.585 227.554 7.585Z" fill="#0F0F0F"/>
<path d="M227.553 24.2735H130.085C127.81 24.2735 126.293 22.3772 126.293 20.481C126.293 18.2055 128.189 16.6885 130.085 16.6885H227.932C230.207 16.6885 231.724 18.5847 231.724 20.481C231.345 22.3772 229.828 24.2735 227.553 24.2735Z" fill="#0F0F0F"/>
<path d="M227.553 40.5801H101.642C99.3666 40.5801 97.8496 38.6839 97.8496 36.7876C97.8496 34.8914 99.7459 32.9951 101.642 32.9951H227.553C229.829 32.9951 231.346 34.8914 231.346 36.7876C231.346 38.6839 229.829 40.5801 227.553 40.5801Z" fill="#0F0F0F"/>
<path d="M227.549 57.2652H81.9175C79.642 57.2652 78.125 55.3689 78.125 53.4727C78.125 51.1972 80.0213 49.6802 81.9175 49.6802H227.929C230.204 49.6802 231.721 51.5764 231.721 53.4727C231.342 55.7482 229.825 57.2652 227.549 57.2652Z" fill="#0F0F0F"/>
<path d="M227.55 73.9537H64.4722C62.1967 73.9537 60.6797 72.0574 60.6797 70.1612C60.6797 68.2649 62.5759 66.3687 64.4722 66.3687H227.55C229.825 66.3687 231.342 68.2649 231.342 70.1612C231.342 72.0574 229.825 73.9537 227.55 73.9537Z" fill="#0F0F0F"/>
<path d="M227.547 90.6421H50.0581C47.7826 90.6421 46.2656 88.7459 46.2656 86.8496C46.2656 84.5741 48.1619 83.0571 50.0581 83.0571H227.926C230.202 83.0571 231.719 84.9534 231.719 86.8496C231.34 88.7459 229.823 90.6421 227.547 90.6421Z" fill="#0F0F0F"/>
<path d="M227.551 106.949H39.4429C37.1674 106.949 35.6504 105.053 35.6504 103.157C35.6504 100.881 37.5466 99.3643 39.4429 99.3643H227.551C229.826 99.3643 231.343 101.261 231.343 103.157C231.343 105.432 229.826 106.949 227.551 106.949Z" fill="#0F0F0F"/>
<path d="M227.552 123.634H29.9624C27.6869 123.634 26.1699 121.738 26.1699 119.841C26.1699 117.566 28.0662 116.049 29.9624 116.049H227.552C229.827 116.049 231.344 117.945 231.344 119.841C231.344 122.117 229.827 123.634 227.552 123.634Z" fill="#0F0F0F"/>
<path d="M227.548 140.322H21.6148C19.3393 140.322 17.8223 138.426 17.8223 136.53C17.8223 134.634 19.7185 132.737 21.6148 132.737H227.927C230.202 132.737 231.719 134.634 231.719 136.53C231.719 138.426 229.823 140.322 227.548 140.322Z" fill="#0F0F0F"/>
<path d="M227.554 157.011H14.4155C12.14 157.011 10.623 155.115 10.623 153.218C10.623 150.943 12.5193 149.426 14.4155 149.426H227.554C229.83 149.426 231.347 151.322 231.347 153.218C231.347 155.115 229.83 157.011 227.554 157.011Z" fill="#0F0F0F"/>
<path d="M227.551 173.318H9.48195C7.20645 173.318 5.68945 171.422 5.68945 169.525C5.68945 167.629 7.5857 165.733 9.48195 165.733H227.551C229.826 165.733 231.343 167.629 231.343 169.525C231.343 171.422 229.826 173.318 227.551 173.318Z" fill="#0F0F0F"/>
<path d="M227.551 190.002H9.48195C7.20645 190.002 5.68945 188.106 5.68945 186.21C5.68945 184.314 7.5857 182.417 9.48195 182.417H227.551C229.826 182.417 231.343 184.314 231.343 186.21C231.343 188.106 229.826 190.002 227.551 190.002Z" fill="#0F0F0F"/>
<path d="M227.55 206.691H3.7925C1.517 206.691 0 204.795 0 202.898C0 200.623 1.89625 199.106 3.7925 199.106H227.929C230.205 199.106 231.722 201.002 231.722 202.898C231.343 204.795 229.826 206.691 227.55 206.691Z" fill="#0F0F0F"/>
<path d="M227.55 223.379H3.7925C1.517 223.379 0 221.483 0 219.587C0 217.691 1.89625 215.794 3.7925 215.794H227.929C230.205 215.794 231.722 217.691 231.722 219.587C231.722 221.483 229.826 223.379 227.55 223.379Z" fill="#0F0F0F"/>
<path d="M227.55 239.687H3.7925C1.517 239.687 0 237.79 0 235.894C0 233.998 1.89625 232.102 3.7925 232.102H227.929C230.205 232.102 231.722 233.998 231.722 235.894C231.722 237.79 229.826 239.687 227.55 239.687Z" fill="#0F0F0F"/>
<path d="M227.55 256.371H3.7925C1.517 256.371 0 254.475 0 252.579C0 250.303 1.89625 248.786 3.7925 248.786H227.929C230.205 248.786 231.722 250.682 231.722 252.579C231.343 254.854 229.826 256.371 227.55 256.371Z" fill="#0F0F0F"/>
<path d="M227.551 273.06H9.48195C7.20645 273.06 5.68945 271.163 5.68945 269.267C5.68945 267.371 7.5857 265.475 9.48195 265.475H227.551C229.826 265.475 231.343 267.371 231.343 269.267C231.343 271.163 229.826 273.06 227.551 273.06Z" fill="#0F0F0F"/>
<path d="M227.551 289.748H9.48195C7.20645 289.748 5.68945 287.852 5.68945 285.956C5.68945 284.059 7.5857 282.163 9.48195 282.163H227.551C229.826 282.163 231.343 284.059 231.343 285.956C231.343 287.852 229.826 289.748 227.551 289.748Z" fill="#0F0F0F"/>
<path d="M227.554 306.055H14.4155C12.14 306.055 10.623 304.159 10.623 302.263C10.623 299.987 12.5193 298.47 14.4155 298.47H227.554C229.83 298.47 231.347 300.366 231.347 302.263C231.347 304.538 229.83 306.055 227.554 306.055Z" fill="#0F0F0F"/>
<path d="M227.548 322.74H21.6148C19.3393 322.74 17.8223 320.844 17.8223 318.948C17.8223 317.052 19.7185 315.155 21.6148 315.155H227.927C230.202 315.155 231.719 317.052 231.719 318.948C231.719 320.844 229.823 322.74 227.548 322.74Z" fill="#0F0F0F"/>
<path d="M227.552 339.429H29.9624C27.6869 339.429 26.1699 337.533 26.1699 335.636C26.1699 333.361 28.0662 331.844 29.9624 331.844H227.552C229.827 331.844 231.344 333.74 231.344 335.636C231.344 337.533 229.827 339.429 227.552 339.429Z" fill="#0F0F0F"/>
<path d="M227.551 356.117H39.4429C37.1674 356.117 35.6504 354.221 35.6504 352.325C35.6504 350.049 37.5466 348.532 39.4429 348.532H227.551C229.826 348.532 231.343 350.429 231.343 352.325C231.343 354.221 229.826 356.117 227.551 356.117Z" fill="#0F0F0F"/>
<path d="M227.547 372.802H50.0581C47.7826 372.802 46.2656 370.906 46.2656 369.009C46.2656 366.734 48.1619 365.217 50.0581 365.217H227.926C230.202 365.217 231.719 367.113 231.719 369.009C231.34 370.906 229.823 372.802 227.547 372.802Z" fill="#0F0F0F"/>
<path d="M227.55 389.109H64.4722C62.1967 389.109 60.6797 387.213 60.6797 385.316C60.6797 383.041 62.5759 381.524 64.4722 381.524H227.55C229.825 381.524 231.342 383.42 231.342 385.316C231.342 387.592 229.825 389.109 227.55 389.109Z" fill="#0F0F0F"/>
<path d="M227.549 405.797H81.9175C79.642 405.797 78.125 403.901 78.125 402.005C78.125 399.729 80.0213 398.212 81.9175 398.212H227.929C230.204 398.212 231.721 400.109 231.721 402.005C231.342 404.28 229.825 405.797 227.549 405.797Z" fill="#0F0F0F"/>
<path d="M227.553 422.486H101.642C99.3666 422.486 97.8496 420.59 97.8496 418.693C97.8496 416.797 99.7459 414.901 101.642 414.901H227.553C229.829 414.901 231.346 416.797 231.346 418.693C231.346 420.59 229.829 422.486 227.553 422.486Z" fill="#0F0F0F"/>
<path d="M227.553 439.17H130.085C127.81 439.17 126.293 437.274 126.293 435.378C126.293 433.102 128.189 431.585 130.085 431.585H227.932C230.207 431.585 231.724 433.482 231.724 435.378C231.345 437.274 229.828 439.17 227.553 439.17Z" fill="#0F0F0F"/>
<path d="M227.554 455.478H171.804C169.529 455.478 168.012 453.581 168.012 451.685C168.012 449.41 169.908 447.893 171.804 447.893H227.554C229.829 447.893 231.346 449.789 231.346 451.685C231.346 453.961 229.829 455.478 227.554 455.478Z" fill="#0F0F0F"/>
<path d="M301.884 455.478H246.134C243.859 455.478 242.342 453.581 242.342 451.685C242.342 449.41 244.238 447.893 246.134 447.893H301.884C304.16 447.893 305.677 449.789 305.677 451.685C305.677 453.961 303.78 455.478 301.884 455.478Z" fill="#0F0F0F"/>
<path d="M343.602 439.17H246.134C243.859 439.17 242.342 437.274 242.342 435.378C242.342 433.102 244.238 431.585 246.134 431.585H343.981C346.256 431.585 347.773 433.482 347.773 435.378C347.394 437.274 345.877 439.17 343.602 439.17Z" fill="#0F0F0F"/>
<path d="M372.045 422.486H246.134C243.859 422.486 242.342 420.59 242.342 418.693C242.342 416.797 244.238 414.901 246.134 414.901H372.045C374.321 414.901 375.838 416.797 375.838 418.693C375.838 420.59 374.321 422.486 372.045 422.486Z" fill="#0F0F0F"/>
<path d="M391.766 405.797H246.134C243.859 405.797 242.342 403.901 242.342 402.005C242.342 399.729 244.238 398.212 246.134 398.212H392.146C394.421 398.212 395.938 400.109 395.938 402.005C395.559 404.28 394.042 405.797 391.766 405.797Z" fill="#0F0F0F"/>
<path d="M409.212 389.109H246.134C243.859 389.109 242.342 387.213 242.342 385.316C242.342 383.041 244.238 381.524 246.134 381.524H409.212C411.487 381.524 413.004 383.42 413.004 385.316C413.004 387.592 411.108 389.109 409.212 389.109Z" fill="#0F0F0F"/>
<path d="M423.623 372.802H246.134C243.859 372.802 242.342 370.906 242.342 369.009C242.342 366.734 244.238 365.217 246.134 365.217H424.003C426.278 365.217 427.795 367.113 427.795 369.009C427.416 370.906 425.899 372.802 423.623 372.802Z" fill="#0F0F0F"/>
<path d="M434.242 356.117H246.134C243.859 356.117 242.342 354.221 242.342 352.325C242.342 350.049 244.238 348.532 246.134 348.532H434.242C436.518 348.532 438.035 350.429 438.035 352.325C438.035 354.221 436.139 356.117 434.242 356.117Z" fill="#0F0F0F"/>
<path d="M443.724 339.429H246.134C243.859 339.429 242.342 337.533 242.342 335.636C242.342 333.361 244.238 331.844 246.134 331.844H443.724C445.999 331.844 447.516 333.74 447.516 335.636C447.516 337.533 445.62 339.429 443.724 339.429Z" fill="#0F0F0F"/>
<path d="M452.067 322.74H246.134C243.859 322.74 242.342 320.844 242.342 318.948C242.342 317.052 244.238 315.155 246.134 315.155H452.067C454.343 315.155 455.86 317.052 455.86 318.948C455.86 320.844 454.343 322.74 452.067 322.74Z" fill="#0F0F0F"/>
<path d="M459.273 306.055H246.134C243.859 306.055 242.342 304.159 242.342 302.263C242.342 299.987 244.238 298.47 246.134 298.47H459.273C461.548 298.47 463.065 300.366 463.065 302.263C463.065 304.538 461.169 306.055 459.273 306.055Z" fill="#0F0F0F"/>
<path d="M464.203 289.748H246.134C243.859 289.748 242.342 287.852 242.342 285.956C242.342 284.059 244.238 282.163 246.134 282.163H464.203C466.479 282.163 467.996 284.059 467.996 285.956C467.996 287.852 466.479 289.748 464.203 289.748Z" fill="#0F0F0F"/>
<path d="M464.203 273.06H246.134C243.859 273.06 242.342 271.163 242.342 269.267C242.342 267.371 244.238 265.475 246.134 265.475H464.203C466.479 265.475 467.996 267.371 467.996 269.267C467.996 271.163 466.479 273.06 464.203 273.06Z" fill="#0F0F0F"/>
<path d="M469.892 256.371H246.134C243.859 256.371 242.342 254.475 242.342 252.579C242.342 250.303 244.238 248.786 246.134 248.786H470.271C472.547 248.786 474.064 250.682 474.064 252.579C474.064 254.854 472.167 256.371 469.892 256.371Z" fill="#0F0F0F"/>
<path d="M469.892 239.687H246.134C243.859 239.687 242.342 237.79 242.342 235.894C242.342 233.998 244.238 232.102 246.134 232.102H470.271C472.547 232.102 474.064 233.998 474.064 235.894C474.064 237.79 472.167 239.687 469.892 239.687Z" fill="#0F0F0F"/>
<path d="M469.892 223.379H246.134C243.859 223.379 242.342 221.483 242.342 219.587C242.342 217.691 244.238 215.794 246.134 215.794H470.271C472.547 215.794 474.064 217.691 474.064 219.587C474.064 221.483 472.167 223.379 469.892 223.379Z" fill="#0F0F0F"/>
<path d="M469.892 206.691H246.134C243.859 206.691 242.342 204.795 242.342 202.898C242.342 201.002 244.238 199.106 246.134 199.106H470.271C472.547 199.106 474.064 201.002 474.064 202.898C474.064 204.795 472.167 206.691 469.892 206.691Z" fill="#0F0F0F"/>
<path d="M464.203 190.002H246.134C243.859 190.002 242.342 188.106 242.342 186.21C242.342 184.314 244.238 182.417 246.134 182.417H464.203C466.479 182.417 467.996 184.314 467.996 186.21C467.996 188.106 466.479 190.002 464.203 190.002Z" fill="#0F0F0F"/>
<path d="M464.203 173.318H246.134C243.859 173.318 242.342 171.422 242.342 169.525C242.342 167.629 244.238 165.733 246.134 165.733H464.203C466.479 165.733 467.996 167.629 467.996 169.525C467.996 171.422 466.479 173.318 464.203 173.318Z" fill="#0F0F0F"/>
<path d="M459.273 157.011H246.134C243.859 157.011 242.342 155.115 242.342 153.218C242.342 150.943 244.238 149.426 246.134 149.426H459.273C461.548 149.426 463.065 151.322 463.065 153.218C463.065 155.115 461.169 157.011 459.273 157.011Z" fill="#0F0F0F"/>
<path d="M452.067 140.322H246.134C243.859 140.322 242.342 138.426 242.342 136.53C242.342 134.634 244.238 132.737 246.134 132.737H452.067C454.343 132.737 455.86 134.634 455.86 136.53C455.86 138.426 454.343 140.322 452.067 140.322Z" fill="#0F0F0F"/>
<path d="M443.724 123.634H246.134C243.859 123.634 242.342 121.738 242.342 119.841C242.342 117.566 244.238 116.049 246.134 116.049H443.724C445.999 116.049 447.516 117.945 447.516 119.841C447.516 122.117 445.62 123.634 443.724 123.634Z" fill="#0F0F0F"/>
<path d="M434.242 106.949H246.134C243.859 106.949 242.342 105.053 242.342 103.157C242.342 100.881 244.238 99.3643 246.134 99.3643H434.242C436.518 99.3643 438.035 101.261 438.035 103.157C438.035 105.432 436.139 106.949 434.242 106.949Z" fill="#0F0F0F"/>
<path d="M423.623 90.6421H246.134C243.859 90.6421 242.342 88.7459 242.342 86.8496C242.342 84.5741 244.238 83.0571 246.134 83.0571H424.003C426.278 83.0571 427.795 84.9534 427.795 86.8496C427.416 88.7459 425.899 90.6421 423.623 90.6421Z" fill="#0F0F0F"/>
<path d="M409.212 73.9537H246.134C243.859 73.9537 242.342 72.0574 242.342 70.1612C242.342 68.2649 244.238 66.3687 246.134 66.3687H409.212C411.487 66.3687 413.004 68.2649 413.004 70.1612C413.004 72.0574 411.108 73.9537 409.212 73.9537Z" fill="#0F0F0F"/>
<path d="M391.766 57.2652H246.134C243.859 57.2652 242.342 55.3689 242.342 53.4727C242.342 51.1972 244.238 49.6802 246.134 49.6802H392.146C394.421 49.6802 395.938 51.5764 395.938 53.4727C395.559 55.7482 394.042 57.2652 391.766 57.2652Z" fill="#0F0F0F"/>
<path d="M372.045 40.5801H246.134C243.859 40.5801 242.342 38.6839 242.342 36.7876C242.342 34.8914 244.238 32.9951 246.134 32.9951H372.045C374.321 32.9951 375.838 34.8914 375.838 36.7876C375.838 38.6839 374.321 40.5801 372.045 40.5801Z" fill="#0F0F0F"/>
<path d="M343.602 24.2735H246.134C243.859 24.2735 242.342 22.3772 242.342 20.481C242.342 18.2055 244.238 16.6885 246.134 16.6885H343.981C346.256 16.6885 347.773 18.5847 347.773 20.481C347.394 22.3772 345.877 24.2735 343.602 24.2735Z" fill="#0F0F0F"/>
<path d="M301.884 7.585H246.134C243.859 7.585 242.342 5.68875 242.342 3.7925C242.342 1.89625 244.238 0 246.134 0H301.884C304.16 0 305.677 1.89625 305.677 3.7925C305.677 5.68875 303.78 7.585 301.884 7.585Z" fill="#0F0F0F"/>
</svg>
