<svg width="518" height="489" viewBox="0 0 518 489" fill="none" xmlns="http://www.w3.org/2000/svg">
<path d="M104.555 152.269C111.002 73.0054 177.371 10.4292 258.53 10.4292C343.861 10.4292 412.885 79.4526 412.885 164.784C412.885 219.017 385.2 266.423 343.103 294.108" stroke="black" stroke-width="20.8587" stroke-linecap="round" stroke-linejoin="round"/>
<path d="M235.397 461.356C164.477 497.764 76.1117 473.871 33.6357 404.847C-11.4951 332.031 11.2599 236.84 84.0759 192.088C131.482 162.886 188.37 162.507 234.638 185.641" stroke="black" stroke-width="20.8587" stroke-linecap="round" stroke-linejoin="round"/>
<path d="M279.389 219.776C285.836 226.602 291.525 234.187 296.455 242.531C333.242 302.452 324.519 377.165 279.768 426.847" stroke="black" stroke-width="20.8587" stroke-linecap="round" stroke-linejoin="round"/>
<path d="M437.539 193.988C503.528 237.602 526.663 325.208 488.738 396.128C448.158 471.22 354.483 499.663 279.392 459.084C231.606 433.295 202.783 385.888 198.611 335.448" stroke="black" stroke-width="20.8587" stroke-linecap="round" stroke-linejoin="round"/>
<path d="M203.916 279.695C206.95 269.456 211.122 259.595 216.052 250.114C249.426 187.917 319.587 157.956 385.198 172.368" stroke="black" stroke-width="20.8587" stroke-linecap="round" stroke-linejoin="round"/>
<path d="M291.523 316.106C280.904 318.381 269.906 319.519 258.908 319.519C188.747 319.519 129.584 272.871 110.621 208.398" stroke="black" stroke-width="20.8587" stroke-linecap="round" stroke-linejoin="round"/>
</svg>
