<svg width="512" height="512" viewBox="0 0 512 512" fill="none" xmlns="http://www.w3.org/2000/svg">
<path d="M227.928 323.122V436.897H180.521L255.613 511.989L331.084 436.897H283.677V323.122H227.928Z" fill="#0F0F0F"/>
<path d="M283.677 189.246V75.4706H331.084L255.992 0L180.521 75.4706H227.928V189.246H283.677Z" fill="#0F0F0F"/>
<path d="M283.682 323.123L364.083 403.523L330.329 437.277H436.899V330.708L403.145 364.461L322.744 284.06L283.682 323.123Z" fill="#0F0F0F"/>
<path d="M227.926 189.245L147.525 108.844L181.278 75.0908H74.709V181.66L108.462 147.907L188.863 228.308L227.926 189.245Z" fill="#0F0F0F"/>
<path d="M322.74 284.059H436.515V331.465L511.986 256.374L436.515 180.903V228.31H322.74V284.059Z" fill="#0F0F0F"/>
<path d="M188.867 228.31H75.0915V180.903L0 255.995L75.0915 331.465V284.059H188.867V228.31Z" fill="#0F0F0F"/>
<path d="M322.744 228.308L403.145 147.907L436.899 181.66V75.0908H330.329L364.083 108.844L283.682 189.245L322.744 228.308Z" fill="#0F0F0F"/>
<path d="M188.863 284.06L108.462 364.461L74.709 330.708V437.277H181.278L147.525 403.523L227.926 323.123L188.863 284.06Z" fill="#0F0F0F"/>
</svg>
