<svg width="512" height="523" viewBox="0 0 512 523" fill="none" xmlns="http://www.w3.org/2000/svg">
<path d="M511.003 365.371L436.669 211.016C432.877 203.051 440.083 194.329 448.426 196.225L484.834 204.569C490.523 205.706 496.212 202.293 497.349 196.604L508.348 149.198C509.485 143.509 506.072 137.821 500.384 136.683L333.134 98.3785C324.412 96.4823 322.136 85.484 328.963 79.7952L358.165 56.661C362.716 52.8685 363.474 46.4213 359.682 41.8703L329.342 3.94525C325.549 -0.605747 319.102 -1.36424 314.551 2.42826L180.676 109.377C173.849 115.065 163.609 110.135 163.609 101.033V63.4875C163.609 57.7988 159.059 52.8685 152.991 52.8685H104.447C98.7578 52.8685 93.8275 57.4195 93.8275 63.4875V234.909C93.8275 243.631 83.5878 248.561 76.7613 243.252L47.559 220.118C43.008 216.325 36.5607 217.084 32.7682 221.635L2.42824 259.56C-1.36426 264.111 -0.605725 270.558 3.94528 274.35L137.821 381.299C144.647 386.988 142.372 397.986 133.649 399.882L97.2407 408.226C91.552 409.364 88.1388 415.052 89.2765 420.741L100.275 468.147C101.412 473.836 107.101 477.249 112.79 476.112L280.039 437.807C288.762 435.911 295.589 444.634 291.796 452.598L275.488 486.351C272.833 491.661 275.109 497.729 280.419 500.384L324.411 521.622C329.721 524.276 335.789 522.001 338.444 516.691L412.777 362.336C416.569 354.372 427.947 354.372 431.739 362.336L448.047 396.09C450.702 401.399 456.77 403.675 462.079 401.02L506.072 379.782C511.382 376.748 513.278 370.68 511.003 365.371ZM355.131 320.619L314.93 404.433C310.758 413.535 297.485 412.018 295.209 402.158L288.762 374.852C287.624 369.163 281.936 365.75 276.247 366.887L185.606 387.746C175.746 390.022 168.919 378.644 174.987 371.059L192.433 349.063C196.225 344.512 195.467 338.064 190.916 334.272L118.099 276.247C110.135 270.179 114.686 257.284 124.547 257.284H152.611C158.3 257.284 163.23 252.733 163.23 246.665V153.749C163.23 143.889 175.745 139.338 182.193 147.302L200.018 168.919C203.81 173.47 210.257 174.229 214.808 170.436L287.245 112.79C295.209 106.722 306.207 113.549 303.932 123.409L297.485 150.715C296.347 156.404 299.76 162.093 305.449 163.23L396.09 184.089C405.95 186.365 407.467 199.638 398.365 203.81L372.956 215.946C367.646 218.601 365.37 224.669 368.025 229.978L408.226 313.792C412.397 322.895 403.296 332.376 394.194 327.825L368.784 315.689C363.854 313.413 357.785 315.31 355.131 320.619Z" fill="#0F0F0F"/>
</svg>
