<svg width="475" height="475" viewBox="0 0 475 475" fill="none" xmlns="http://www.w3.org/2000/svg">
<path d="M237.031 474.063C106.19 474.063 0 367.873 0 237.031C0 106.19 106.19 0 237.031 0C367.872 0 474.062 106.19 474.062 237.031C474.062 367.873 367.493 474.063 237.031 474.063ZM237.031 26.9268C120.981 26.9268 26.9267 121.36 26.9267 237.031C26.9267 352.703 121.36 447.136 237.031 447.136C352.702 447.136 447.136 352.703 447.136 237.031C447.136 121.36 352.702 26.9268 237.031 26.9268Z" fill="#0F0F0F"/>
<path d="M250.308 13.6514H223.381V460.787H250.308V13.6514Z" fill="#0F0F0F"/>
<path d="M229.661 242.45L50.2441 358.917L64.9058 381.503L244.323 265.036L229.661 242.45Z" fill="#0F0F0F"/>
<path d="M244.279 242.067L229.617 264.653L409.034 381.12L423.696 358.534L244.279 242.067Z" fill="#0F0F0F"/>
</svg>
