<svg width="475" height="475" viewBox="0 0 475 475" fill="none" xmlns="http://www.w3.org/2000/svg">
<path d="M120.605 30.34V116.43H235.518V0C193.801 0 154.359 11.3775 120.605 30.34Z" fill="#0F0F0F"/>
<path d="M0.378906 235.136H116.809V120.224H30.7189C11.7564 153.977 0.378906 193.419 0.378906 235.136Z" fill="#0F0F0F"/>
<path d="M235.518 120.224H120.605V235.136H235.518V120.224Z" fill="#0F0F0F"/>
<path d="M235.518 238.927H120.605V353.84H235.518V238.927Z" fill="#0F0F0F"/>
<path d="M357.637 116.428H441.451C420.971 81.9158 392.148 53.0928 357.637 32.6133V116.428Z" fill="#0F0F0F"/>
<path d="M239.305 0V116.43H354.218V30.34C320.085 11.3775 281.022 0 239.305 0Z" fill="#0F0F0F"/>
<path d="M116.809 238.927H0.378906C0.758156 280.644 11.7564 319.707 31.0981 353.84H116.809V238.927Z" fill="#0F0F0F"/>
<path d="M354.218 120.224H239.305V235.136H354.218V120.224Z" fill="#0F0F0F"/>
<path d="M235.518 474.064V357.255H120.605V443.345C154.359 462.307 193.801 473.685 235.518 474.064Z" fill="#0F0F0F"/>
<path d="M353.84 357.255H238.928V473.685C280.645 473.305 319.708 462.307 353.84 442.965V357.255Z" fill="#0F0F0F"/>
<path d="M116.806 116.428V32.6133C82.2947 53.0928 53.4717 81.9158 32.9922 116.428H116.806Z" fill="#0F0F0F"/>
<path d="M116.806 357.255H32.9922C53.4717 391.767 82.2947 420.59 116.806 441.069V357.255Z" fill="#0F0F0F"/>
<path d="M357.637 357.255V441.069C392.148 420.59 420.971 391.767 441.451 357.255H357.637Z" fill="#0F0F0F"/>
<path d="M354.218 238.927H239.305V353.84H354.218V238.927Z" fill="#0F0F0F"/>
<path d="M474.067 238.927H357.637V353.46H443.727C462.689 319.707 474.067 280.644 474.067 238.927Z" fill="#0F0F0F"/>
<path d="M357.637 120.224V235.136H474.067C473.687 193.419 462.689 154.356 443.347 120.224H357.637Z" fill="#0F0F0F"/>
</svg>
