<svg width="475" height="470" viewBox="0 0 475 470" fill="none" xmlns="http://www.w3.org/2000/svg">
<path d="M303.675 20.4814C251.338 42.8572 214.551 95.1937 214.551 155.874C214.551 185.076 222.894 212.003 237.306 234.758C236.927 231.344 236.927 227.931 236.927 224.518C236.927 142.979 302.916 77.3689 384.076 77.3689C396.591 77.3689 408.348 78.886 419.725 81.92C393.557 45.512 351.46 21.6192 303.675 20.4814Z" fill="#0F0F0F"/>
<path d="M84.4638 70.1612C77.6373 127.049 104.564 184.695 157.28 215.414C182.31 229.825 209.995 236.273 237.301 235.135C234.268 233.618 231.234 232.101 228.2 230.205C157.659 189.625 133.766 99.3636 174.346 28.8231C180.414 18.2041 187.999 8.3435 195.963 0C151.212 4.551 109.494 29.2022 84.4638 70.1612Z" fill="#0F0F0F"/>
<path d="M18.0988 284.817C63.988 318.95 127.323 324.639 180.039 294.299C205.069 279.887 224.411 259.028 236.926 235.135C234.271 237.032 231.237 238.928 228.203 240.445C157.663 281.025 67.7806 257.132 26.8216 186.591C20.7536 175.972 15.8233 164.595 12.7893 153.597C-5.41468 194.176 -4.65621 242.721 18.0988 284.817Z" fill="#0F0F0F"/>
<path d="M170.56 449.412C222.897 427.036 259.684 374.7 259.684 314.02C259.684 284.817 251.341 257.891 236.929 235.136C237.308 238.549 237.308 241.962 237.308 245.376C237.308 326.914 171.319 392.524 90.1592 392.524C77.644 392.524 65.8873 391.007 54.5098 387.973C80.678 424.381 122.775 448.274 170.56 449.412Z" fill="#0F0F0F"/>
<path d="M389.765 399.73C396.592 342.842 369.665 285.196 316.949 254.477C291.919 240.065 264.234 233.618 236.928 234.756C239.962 236.273 242.996 237.79 246.03 239.686C316.57 280.266 340.463 370.527 299.883 441.068C293.815 451.687 286.23 461.547 278.266 469.891C323.017 465.34 364.735 440.689 389.765 399.73Z" fill="#0F0F0F"/>
<path d="M456.132 185.073C410.243 150.941 346.908 145.252 294.192 175.592C269.162 190.003 249.82 210.862 237.305 234.755C239.959 232.859 242.994 230.962 246.028 229.445C316.568 188.866 406.45 212.759 447.409 283.299C453.477 293.918 458.407 305.296 461.441 316.294C479.645 275.714 478.887 227.17 456.132 185.073Z" fill="#0F0F0F"/>
</svg>
