<svg width="475" height="475" viewBox="0 0 475 475" fill="none" xmlns="http://www.w3.org/2000/svg">
<path d="M167.251 54.612C182.332 54.612 194.557 42.3867 194.557 27.306C194.557 12.2253 182.332 0 167.251 0C152.171 0 139.945 12.2253 139.945 27.306C139.945 42.3867 152.171 54.612 167.251 54.612Z" fill="#0F0F0F"/>
<path d="M237.035 54.612C252.115 54.612 264.34 42.3867 264.34 27.306C264.34 12.2253 252.115 0 237.035 0C221.954 0 209.729 12.2253 209.729 27.306C209.729 42.3867 221.954 54.612 237.035 54.612Z" fill="#0F0F0F"/>
<path d="M307.197 54.612C322.277 54.612 334.503 42.3867 334.503 27.306C334.503 12.2253 322.277 0 307.197 0C292.116 0 279.891 12.2253 279.891 27.306C279.891 42.3867 292.116 54.612 307.197 54.612Z" fill="#0F0F0F"/>
<path d="M167.251 124.773C182.332 124.773 194.557 112.548 194.557 97.4671C194.557 82.3864 182.332 70.1611 167.251 70.1611C152.171 70.1611 139.945 82.3864 139.945 97.4671C139.945 112.548 152.171 124.773 167.251 124.773Z" fill="#0F0F0F"/>
<path d="M97.468 124.773C112.549 124.773 124.774 112.548 124.774 97.4671C124.774 82.3864 112.549 70.1611 97.468 70.1611C82.3874 70.1611 70.1621 82.3864 70.1621 97.4671C70.1621 112.548 82.3874 124.773 97.468 124.773Z" fill="#0F0F0F"/>
<path d="M237.035 124.773C252.115 124.773 264.34 112.548 264.34 97.4671C264.34 82.3864 252.115 70.1611 237.035 70.1611C221.954 70.1611 209.729 82.3864 209.729 97.4671C209.729 112.548 221.954 124.773 237.035 124.773Z" fill="#0F0F0F"/>
<path d="M307.197 124.773C322.277 124.773 334.503 112.548 334.503 97.4671C334.503 82.3864 322.277 70.1611 307.197 70.1611C292.116 70.1611 279.891 82.3864 279.891 97.4671C279.891 112.548 292.116 124.773 307.197 124.773Z" fill="#0F0F0F"/>
<path d="M376.972 124.773C392.053 124.773 404.278 112.548 404.278 97.4671C404.278 82.3864 392.053 70.1611 376.972 70.1611C361.891 70.1611 349.666 82.3864 349.666 97.4671C349.666 112.548 361.891 124.773 376.972 124.773Z" fill="#0F0F0F"/>
<path d="M307.197 474.443C322.277 474.443 334.503 462.217 334.503 447.137C334.503 432.056 322.277 419.831 307.197 419.831C292.116 419.831 279.891 432.056 279.891 447.137C279.891 462.217 292.116 474.443 307.197 474.443Z" fill="#0F0F0F"/>
<path d="M237.035 474.443C252.115 474.443 264.34 462.217 264.34 447.137C264.34 432.056 252.115 419.831 237.035 419.831C221.954 419.831 209.729 432.056 209.729 447.137C209.729 462.217 221.954 474.443 237.035 474.443Z" fill="#0F0F0F"/>
<path d="M167.251 474.443C182.332 474.443 194.557 462.217 194.557 447.137C194.557 432.056 182.332 419.831 167.251 419.831C152.171 419.831 139.945 432.056 139.945 447.137C139.945 462.217 152.171 474.443 167.251 474.443Z" fill="#0F0F0F"/>
<path d="M307.197 404.281C322.277 404.281 334.503 392.056 334.503 376.975C334.503 361.895 322.277 349.669 307.197 349.669C292.116 349.669 279.891 361.895 279.891 376.975C279.891 392.056 292.116 404.281 307.197 404.281Z" fill="#0F0F0F"/>
<path d="M376.972 404.281C392.053 404.281 404.278 392.056 404.278 376.975C404.278 361.895 392.053 349.669 376.972 349.669C361.891 349.669 349.666 361.895 349.666 376.975C349.666 392.056 361.891 404.281 376.972 404.281Z" fill="#0F0F0F"/>
<path d="M237.035 404.281C252.115 404.281 264.34 392.056 264.34 376.975C264.34 361.895 252.115 349.669 237.035 349.669C221.954 349.669 209.729 361.895 209.729 376.975C209.729 392.056 221.954 404.281 237.035 404.281Z" fill="#0F0F0F"/>
<path d="M167.251 404.281C182.332 404.281 194.557 392.056 194.557 376.975C194.557 361.895 182.332 349.669 167.251 349.669C152.171 349.669 139.945 361.895 139.945 376.975C139.945 392.056 152.171 404.281 167.251 404.281Z" fill="#0F0F0F"/>
<path d="M97.468 404.281C112.549 404.281 124.774 392.056 124.774 376.975C124.774 361.895 112.549 349.669 97.468 349.669C82.3874 349.669 70.1621 361.895 70.1621 376.975C70.1621 392.056 82.3874 404.281 97.468 404.281Z" fill="#0F0F0F"/>
<path d="M167.251 194.557C182.332 194.557 194.557 182.332 194.557 167.251C194.557 152.17 182.332 139.945 167.251 139.945C152.171 139.945 139.945 152.17 139.945 167.251C139.945 182.332 152.171 194.557 167.251 194.557Z" fill="#0F0F0F"/>
<path d="M97.468 194.557C112.549 194.557 124.774 182.332 124.774 167.251C124.774 152.17 112.549 139.945 97.468 139.945C82.3874 139.945 70.1621 152.17 70.1621 167.251C70.1621 182.332 82.3874 194.557 97.468 194.557Z" fill="#0F0F0F"/>
<path d="M27.3059 194.557C42.3866 194.557 54.612 182.332 54.612 167.251C54.612 152.17 42.3866 139.945 27.3059 139.945C12.2252 139.945 0 152.17 0 167.251C0 182.332 12.2252 194.557 27.3059 194.557Z" fill="#0F0F0F"/>
<path d="M237.035 194.557C252.115 194.557 264.34 182.332 264.34 167.251C264.34 152.17 252.115 139.945 237.035 139.945C221.954 139.945 209.729 152.17 209.729 167.251C209.729 182.332 221.954 194.557 237.035 194.557Z" fill="#0F0F0F"/>
<path d="M307.197 194.557C322.277 194.557 334.503 182.332 334.503 167.251C334.503 152.17 322.277 139.945 307.197 139.945C292.116 139.945 279.891 152.17 279.891 167.251C279.891 182.332 292.116 194.557 307.197 194.557Z" fill="#0F0F0F"/>
<path d="M376.972 194.557C392.053 194.557 404.278 182.332 404.278 167.251C404.278 152.17 392.053 139.945 376.972 139.945C361.891 139.945 349.666 152.17 349.666 167.251C349.666 182.332 361.891 194.557 376.972 194.557Z" fill="#0F0F0F"/>
<path d="M447.134 194.557C462.215 194.557 474.44 182.332 474.44 167.251C474.44 152.17 462.215 139.945 447.134 139.945C432.053 139.945 419.828 152.17 419.828 167.251C419.828 182.332 432.053 194.557 447.134 194.557Z" fill="#0F0F0F"/>
<path d="M167.251 264.337C182.332 264.337 194.557 252.111 194.557 237.031C194.557 221.95 182.332 209.725 167.251 209.725C152.171 209.725 139.945 221.95 139.945 237.031C139.945 252.111 152.171 264.337 167.251 264.337Z" fill="#0F0F0F"/>
<path d="M97.468 264.337C112.549 264.337 124.774 252.111 124.774 237.031C124.774 221.95 112.549 209.725 97.468 209.725C82.3874 209.725 70.1621 221.95 70.1621 237.031C70.1621 252.111 82.3874 264.337 97.468 264.337Z" fill="#0F0F0F"/>
<path d="M27.3059 264.337C42.3866 264.337 54.612 252.111 54.612 237.031C54.612 221.95 42.3866 209.725 27.3059 209.725C12.2252 209.725 0 221.95 0 237.031C0 252.111 12.2252 264.337 27.3059 264.337Z" fill="#0F0F0F"/>
<path d="M237.035 264.337C252.115 264.337 264.34 252.111 264.34 237.031C264.34 221.95 252.115 209.725 237.035 209.725C221.954 209.725 209.729 221.95 209.729 237.031C209.729 252.111 221.954 264.337 237.035 264.337Z" fill="#0F0F0F"/>
<path d="M307.197 264.337C322.277 264.337 334.503 252.111 334.503 237.031C334.503 221.95 322.277 209.725 307.197 209.725C292.116 209.725 279.891 221.95 279.891 237.031C279.891 252.111 292.116 264.337 307.197 264.337Z" fill="#0F0F0F"/>
<path d="M376.972 264.337C392.053 264.337 404.278 252.111 404.278 237.031C404.278 221.95 392.053 209.725 376.972 209.725C361.891 209.725 349.666 221.95 349.666 237.031C349.666 252.111 361.891 264.337 376.972 264.337Z" fill="#0F0F0F"/>
<path d="M447.134 264.337C462.215 264.337 474.44 252.111 474.44 237.031C474.44 221.95 462.215 209.725 447.134 209.725C432.053 209.725 419.828 221.95 419.828 237.031C419.828 252.111 432.053 264.337 447.134 264.337Z" fill="#0F0F0F"/>
<path d="M167.251 334.498C182.332 334.498 194.557 322.272 194.557 307.192C194.557 292.111 182.332 279.886 167.251 279.886C152.171 279.886 139.945 292.111 139.945 307.192C139.945 322.272 152.171 334.498 167.251 334.498Z" fill="#0F0F0F"/>
<path d="M97.468 334.498C112.549 334.498 124.774 322.272 124.774 307.192C124.774 292.111 112.549 279.886 97.468 279.886C82.3874 279.886 70.1621 292.111 70.1621 307.192C70.1621 322.272 82.3874 334.498 97.468 334.498Z" fill="#0F0F0F"/>
<path d="M27.3059 334.498C42.3866 334.498 54.612 322.272 54.612 307.192C54.612 292.111 42.3866 279.886 27.3059 279.886C12.2252 279.886 0 292.111 0 307.192C0 322.272 12.2252 334.498 27.3059 334.498Z" fill="#0F0F0F"/>
<path d="M237.035 334.498C252.115 334.498 264.34 322.272 264.34 307.192C264.34 292.111 252.115 279.886 237.035 279.886C221.954 279.886 209.729 292.111 209.729 307.192C209.729 322.272 221.954 334.498 237.035 334.498Z" fill="#0F0F0F"/>
<path d="M307.197 334.498C322.277 334.498 334.503 322.272 334.503 307.192C334.503 292.111 322.277 279.886 307.197 279.886C292.116 279.886 279.891 292.111 279.891 307.192C279.891 322.272 292.116 334.498 307.197 334.498Z" fill="#0F0F0F"/>
<path d="M376.972 334.498C392.053 334.498 404.278 322.272 404.278 307.192C404.278 292.111 392.053 279.886 376.972 279.886C361.891 279.886 349.666 292.111 349.666 307.192C349.666 322.272 361.891 334.498 376.972 334.498Z" fill="#0F0F0F"/>
<path d="M447.134 334.498C462.215 334.498 474.44 322.272 474.44 307.192C474.44 292.111 462.215 279.886 447.134 279.886C432.053 279.886 419.828 292.111 419.828 307.192C419.828 322.272 432.053 334.498 447.134 334.498Z" fill="#0F0F0F"/>
</svg>
