<svg width="475" height="522" viewBox="0 0 475 522" fill="none" xmlns="http://www.w3.org/2000/svg">
<path d="M237.035 168.387C283.534 168.387 321.229 130.692 321.229 84.1935C321.229 37.6947 283.534 0 237.035 0C190.537 0 152.842 37.6947 152.842 84.1935C152.842 130.692 190.537 168.387 237.035 168.387Z" fill="#0F0F0F"/>
<path d="M237.035 521.467C283.534 521.467 321.229 483.772 321.229 437.274C321.229 390.775 283.534 353.08 237.035 353.08C190.537 353.08 152.842 390.775 152.842 437.274C152.842 483.772 190.537 521.467 237.035 521.467Z" fill="#0F0F0F"/>
<path d="M250.305 84.1943H223.758V437.276H250.305V84.1943Z" fill="#0F0F0F"/>
<path d="M383.331 160.733L77.5625 337.273L90.8363 360.264L396.605 183.723L383.331 160.733Z" fill="#0F0F0F"/>
<path d="M90.8499 161.183L77.5762 184.173L383.345 360.714L396.619 337.724L90.8499 161.183Z" fill="#0F0F0F"/>
<path d="M84.1934 433.103C130.692 433.103 168.387 395.409 168.387 348.91C168.387 302.411 130.692 264.716 84.1934 264.716C37.6946 264.716 0 302.411 0 348.91C0 395.409 37.6946 433.103 84.1934 433.103Z" fill="#0F0F0F"/>
<path d="M390.246 256.752C436.745 256.752 474.44 219.058 474.44 172.559C474.44 126.06 436.745 88.3652 390.246 88.3652C343.747 88.3652 306.053 126.06 306.053 172.559C306.053 219.058 343.747 256.752 390.246 256.752Z" fill="#0F0F0F"/>
<path d="M390.246 433.103C436.745 433.103 474.44 395.409 474.44 348.91C474.44 302.411 436.745 264.716 390.246 264.716C343.747 264.716 306.053 302.411 306.053 348.91C306.053 395.409 343.747 433.103 390.246 433.103Z" fill="#0F0F0F"/>
<path d="M84.1934 256.752C130.692 256.752 168.387 219.058 168.387 172.559C168.387 126.06 130.692 88.3652 84.1934 88.3652C37.6946 88.3652 0 126.06 0 172.559C0 219.058 37.6946 256.752 84.1934 256.752Z" fill="#0F0F0F"/>
</svg>
