<svg width="474" height="469" viewBox="0 0 474 469" fill="none" xmlns="http://www.w3.org/2000/svg">
<path d="M198.411 155.169H126.733C118.01 155.169 110.805 147.963 110.805 139.241C110.805 130.518 118.01 123.312 126.733 123.312H198.411C207.134 123.312 214.34 130.518 214.34 139.241C214.34 147.963 207.134 155.169 198.411 155.169Z" fill="#0F0F0F"/>
<path d="M74.773 227.985L113.077 167.305C117.628 159.72 127.489 157.444 135.074 162.375C142.659 166.926 144.934 176.786 140.004 184.371L101.7 245.051C97.1488 252.636 87.2882 254.912 79.7032 249.981C72.4975 245.43 70.222 235.57 74.773 227.985Z" fill="#0F0F0F"/>
<path d="M23.9515 245.052L33.0535 173.753C34.1912 165.03 42.1555 158.962 50.8783 160.1C59.601 161.238 65.6689 169.202 64.5312 177.925L55.4292 249.224C54.2915 257.946 46.3273 264.014 37.6045 262.877C28.8818 261.739 22.8138 253.775 23.9515 245.052Z" fill="#0F0F0F"/>
<path d="M88.8052 306.489L17.5061 312.936C8.78339 313.695 0.81912 307.247 0.0606199 298.525C-0.69788 289.802 5.74944 281.838 14.4722 281.079L85.7711 274.632C94.4939 273.873 102.458 280.321 103.217 289.043C103.975 297.766 97.528 305.73 88.8052 306.489Z" fill="#0F0F0F"/>
<path d="M63.0126 331.141L112.315 383.099C118.383 389.546 118.004 399.786 111.557 405.474C105.109 411.542 94.8696 411.163 89.1808 404.716L39.8783 352.759C33.8103 346.311 34.1896 336.072 40.6369 330.383C47.0841 324.315 56.9446 324.694 63.0126 331.141Z" fill="#0F0F0F"/>
<path d="M163.52 264.016L142.661 332.66C140.006 341.003 131.284 345.934 122.561 343.279C114.217 340.624 109.287 331.901 111.942 323.179L132.8 254.534C135.455 246.191 144.178 241.261 152.901 243.915C161.624 246.57 166.174 255.672 163.52 264.016Z" fill="#0F0F0F"/>
<path d="M175.652 363.757L145.312 428.988C141.519 436.952 132.038 440.366 124.074 436.573C116.11 432.781 112.696 423.299 116.489 415.335L146.829 350.104C150.621 342.14 160.103 338.727 168.067 342.519C176.031 346.312 179.444 355.793 175.652 363.757Z" fill="#0F0F0F"/>
<path d="M191.204 375.135L262.124 385.374C270.847 386.512 276.915 394.856 275.777 403.578C274.639 412.301 266.296 418.369 257.573 417.231L186.653 406.992C177.931 405.854 171.863 397.51 173 388.788C174.517 379.686 182.482 373.618 191.204 375.135Z" fill="#0F0F0F"/>
<path d="M181.723 436.952L251.884 421.403C260.607 419.507 268.95 424.816 270.846 433.539C272.743 442.262 267.433 450.605 258.71 452.501L188.549 468.051C179.826 469.947 171.483 464.638 169.587 455.915C167.69 447.192 173 438.849 181.723 436.952Z" fill="#0F0F0F"/>
<path d="M246.953 279.942L310.288 313.316C318.252 317.488 320.907 326.969 317.115 334.933C313.322 342.898 303.462 345.552 295.497 341.76L232.163 308.386C224.198 304.214 221.544 294.733 225.336 286.769C229.508 278.804 238.989 275.77 246.953 279.942Z" fill="#0F0F0F"/>
<path d="M356.934 304.973L378.931 373.238C381.586 381.582 377.035 390.684 368.691 393.338C360.348 395.993 351.246 391.442 348.591 383.099L326.594 314.834C323.94 306.49 328.491 297.388 336.834 294.733C345.178 292.079 353.9 296.25 356.934 304.973Z" fill="#0F0F0F"/>
<path d="M309.531 357.688L353.903 414.197C359.213 421.023 358.075 431.263 351.249 436.572C344.422 441.882 334.182 440.744 328.873 433.918L284.122 377.409C278.812 370.583 279.95 360.343 286.776 355.034C293.982 349.724 303.842 350.862 309.531 357.688Z" fill="#0F0F0F"/>
<path d="M324.318 100.939L394.859 113.454C403.581 114.971 409.27 123.315 407.753 132.037C406.236 140.76 397.893 146.449 389.17 144.932L318.629 132.417C309.907 130.9 304.218 122.556 305.735 113.833C307.631 105.111 315.975 99.422 324.318 100.939Z" fill="#0F0F0F"/>
<path d="M322.805 13.7089L374.762 63.0114C381.209 69.0794 381.589 79.3192 375.521 85.3872C369.453 91.8344 359.213 92.2137 353.145 86.1457L301.188 36.8432C294.74 30.7752 294.361 20.5354 300.429 14.4674C306.118 8.02013 316.358 7.64095 322.805 13.7089Z" fill="#0F0F0F"/>
<path d="M364.141 178.304L426.718 143.033C434.303 138.862 444.163 141.516 448.335 149.101C452.507 156.686 449.852 166.547 442.267 170.719L379.691 205.989C372.106 210.161 362.245 207.506 358.073 199.921C353.902 192.336 356.556 182.475 364.141 178.304Z" fill="#0F0F0F"/>
<path d="M363.379 286.391L387.272 218.884C390.306 210.541 399.408 206.369 407.751 209.024C416.095 212.058 420.267 221.16 417.612 229.503L393.719 297.009C390.685 305.353 381.583 309.525 373.24 306.87C364.896 304.215 360.724 294.734 363.379 286.391Z" fill="#0F0F0F"/>
<path d="M395.621 377.409L402.068 306.11C402.827 297.387 410.791 290.94 419.514 291.698C428.237 292.457 434.684 300.421 433.926 309.144L427.478 380.443C426.72 389.166 418.756 395.613 410.033 394.854C401.31 394.096 394.863 386.511 395.621 377.409Z" fill="#0F0F0F"/>
<path d="M442.263 278.047L426.713 207.886C424.817 199.163 430.127 190.82 438.85 188.923C447.572 187.027 455.916 192.337 457.812 201.059L473.361 271.221C475.257 279.943 469.948 288.287 461.225 290.183C452.882 292.079 444.159 286.77 442.263 278.047Z" fill="#0F0F0F"/>
<path d="M161.243 22.433L169.207 93.7321C170.345 102.455 163.898 110.419 155.175 111.177C146.452 112.315 138.488 105.868 137.729 97.1453L129.765 25.8462C128.627 17.1235 135.075 9.15934 143.797 8.40084C152.52 7.26309 160.484 13.7103 161.243 22.433Z" fill="#0F0F0F"/>
<path d="M33.0601 118.382L98.6703 89.1793C106.635 85.766 116.116 89.1793 119.908 97.1435C123.322 105.108 119.908 114.589 111.944 118.382L46.3339 147.584C38.3696 150.997 28.8883 147.584 25.0958 139.619C21.3033 131.655 25.0959 121.795 33.0601 118.382Z" fill="#0F0F0F"/>
<path d="M217.37 235.95L273.499 191.578C280.325 186.269 290.565 187.406 295.875 194.233C301.184 201.059 300.047 211.299 293.22 216.609L237.091 260.981C230.264 266.29 220.025 265.153 214.715 258.326C209.406 251.5 210.544 241.26 217.37 235.95Z" fill="#0F0F0F"/>
<path d="M305.358 173.754L236.334 154.412C227.991 152.137 223.061 143.414 225.336 134.691C227.612 126.348 236.334 121.418 245.057 123.693L314.081 143.035C322.424 145.31 327.354 154.033 325.079 162.756C322.803 171.099 313.701 176.029 305.358 173.754Z" fill="#0F0F0F"/>
<path d="M347.832 190.82L345.177 262.499C344.797 271.221 337.592 278.048 328.49 277.669C319.767 277.289 312.941 270.083 313.32 260.981L315.975 189.303C316.354 180.58 323.56 173.754 332.662 174.133C341.005 174.892 347.832 182.097 347.832 190.82Z" fill="#0F0F0F"/>
<path d="M214.338 281.081L211.683 352.759C211.304 361.482 204.098 368.308 194.996 367.929C185.894 367.55 179.447 360.344 179.826 351.242L182.481 279.564C182.86 270.841 190.066 264.015 199.168 264.394C207.512 264.773 214.717 271.979 214.338 281.081Z" fill="#0F0F0F"/>
<path d="M197.272 1.19462L264.02 27.7421C272.363 31.1554 276.156 40.2574 273.122 48.6009C269.708 56.9444 260.606 60.737 252.263 57.703L185.515 31.1555C177.171 27.7422 173.379 18.6402 176.413 10.2967C179.826 1.95321 188.928 -2.21863 197.272 1.19462Z" fill="#0F0F0F"/>
<path d="M216.612 83.4908L286.394 66.4246C295.117 64.5283 303.46 69.4586 305.736 78.1813C307.632 86.9041 302.702 95.2476 293.979 97.5231L224.197 114.589C215.474 116.486 207.131 111.555 204.855 102.833C202.959 94.4891 208.268 85.7663 216.612 83.4908Z" fill="#0F0F0F"/>
<path d="M158.211 191.577L227.993 174.511C236.716 172.614 245.06 177.545 247.335 186.267C249.231 194.99 244.301 203.334 235.578 205.609L165.796 222.675C157.074 224.572 148.73 219.641 146.455 210.919C144.558 202.575 149.868 193.852 158.211 191.577Z" fill="#0F0F0F"/>
</svg>
