<svg width="475" height="475" viewBox="0 0 475 475" fill="none" xmlns="http://www.w3.org/2000/svg">
<path d="M474.062 158.147C474.062 70.9198 403.143 0 315.915 0C287.092 0 260.165 7.58491 237.031 21.2379C213.897 7.96416 186.97 0 158.147 0C70.9198 0 0 70.9198 0 158.147C0 186.97 7.58502 213.897 21.238 237.031C7.96427 260.165 0 287.092 0 315.915C0 403.143 70.9198 474.062 158.147 474.062C186.97 474.062 213.897 466.477 237.031 452.824C260.165 466.098 287.092 474.062 315.915 474.062C403.143 474.062 474.062 403.143 474.062 315.915C474.062 287.092 466.478 260.165 452.825 237.031C466.098 213.897 474.062 186.97 474.062 158.147ZM236.652 316.294C193.038 316.294 157.768 281.024 157.768 237.41C157.768 193.797 193.038 158.526 236.652 158.526C280.266 158.526 315.536 193.797 315.536 237.41C315.536 281.024 280.645 316.294 236.652 316.294Z" fill="#0F0F0F"/>
</svg>
