<svg width="512" height="487" viewBox="0 0 512 487" fill="none" xmlns="http://www.w3.org/2000/svg">
<path d="M277.607 420.968H346.631L290.881 380.388L312.119 314.778L256.369 355.358L200.24 314.778L221.478 380.388L165.729 420.968H234.752L256.369 486.578L277.607 420.968Z" fill="#0F0F0F"/>
<path d="M442.966 300.745H511.99L456.24 260.165L477.478 194.555L421.728 235.134L365.979 194.555L387.217 260.165L331.467 300.745H400.49L421.728 366.355L442.966 300.745Z" fill="#0F0F0F"/>
<path d="M380.006 106.19H449.029L392.9 65.6107L414.517 0.000488281L358.388 40.5802L302.639 0.000488281L323.877 65.6107L268.127 106.19H337.15L358.388 171.801L380.006 106.19Z" fill="#0F0F0F"/>
<path d="M175.211 106.19H244.234L188.485 65.6107L209.722 0.000488281L153.973 40.5802L97.8437 0.000488281L119.461 65.6107L63.332 106.19H132.355L153.973 171.801L175.211 106.19Z" fill="#0F0F0F"/>
<path d="M111.879 300.745H180.902L125.153 260.165L146.39 194.555L90.6406 235.134L34.891 194.555L56.129 260.165L0 300.745H69.4027L90.6406 366.355L111.879 300.745Z" fill="#0F0F0F"/>
</svg>
