<svg width="512" height="475" viewBox="0 0 512 475" fill="none" xmlns="http://www.w3.org/2000/svg">
<path d="M194.336 219.017C207.61 226.602 212.161 243.668 204.576 256.942C196.991 270.216 179.925 274.767 166.651 267.182L112.418 235.325C85.4914 219.396 52.1174 241.013 55.5306 272.112L56.2892 279.318C59.7024 309.278 46.808 338.86 22.9152 356.685C-30.1798 396.506 17.6056 479.182 78.6648 453.014C106.35 441.257 138.207 444.671 162.479 462.875L168.168 467.046C193.198 485.63 228.848 467.426 228.469 436.327L228.089 373.371C228.089 357.822 240.605 345.686 255.775 345.686C270.945 345.686 283.46 358.202 283.46 373.371L283.081 436.327C282.701 467.426 318.351 485.63 343.382 467.046L349.07 462.875C373.342 445.05 405.199 441.257 432.884 453.014C493.944 479.182 541.729 396.506 488.634 356.685C464.362 338.481 451.847 309.278 455.26 279.318L456.019 272.112C459.432 241.013 426.058 219.396 399.131 235.325L344.898 267.182C331.625 274.767 314.558 270.216 306.973 256.942C299.388 243.668 303.939 226.602 317.213 219.017L372.204 187.918C399.51 172.369 397.235 132.927 368.791 120.412L362.344 117.378C334.659 105.242 315.317 79.4529 311.904 49.4921C304.319 -16.4974 208.368 -16.4974 200.783 49.4921C197.37 79.4529 178.028 105.242 150.343 117.378L143.896 120.412C115.452 132.927 113.177 172.748 140.483 187.918L194.336 219.017Z" fill="#0F0F0F"/>
</svg>
