<svg width="475" height="485" viewBox="0 0 475 485" fill="none" xmlns="http://www.w3.org/2000/svg">
<path d="M231.342 484.681C228.309 484.681 225.654 482.027 225.654 478.993C225.654 475.959 228.309 473.304 231.342 473.304C359.15 473.304 463.064 369.39 463.064 241.582C463.064 113.775 359.15 9.86041 231.342 9.86041C109.982 9.86041 10.9983 108.845 10.9983 230.205C10.9983 351.565 109.982 450.549 231.342 450.549C346.634 450.549 440.309 356.874 440.309 241.582C440.309 126.29 346.634 32.6154 231.342 32.6154C122.498 32.6154 33.7533 121.36 33.7533 230.584C33.7533 339.808 122.498 428.552 231.342 428.552C334.119 428.552 417.554 344.738 417.554 241.961C417.554 139.185 334.119 55.3704 231.342 55.3704C134.634 55.3704 56.129 133.875 56.129 230.584C56.129 327.293 134.634 405.798 231.342 405.798C321.604 405.798 395.179 332.223 395.179 241.961C395.179 151.7 321.604 78.1254 231.342 78.1254C147.149 78.1254 78.884 146.77 78.884 230.584C78.884 314.777 147.149 383.043 231.342 383.043C309.089 383.043 372.424 319.708 372.424 241.582C372.424 163.457 309.089 100.122 231.342 100.122C159.664 100.122 101.26 158.527 101.26 230.205C101.26 301.883 159.664 360.288 231.342 360.288C296.953 360.288 350.048 307.193 350.048 241.582C350.048 175.972 296.953 122.877 231.342 122.877C172.18 122.877 124.015 171.042 124.015 230.205C124.015 289.368 172.18 337.533 231.342 337.533C284.438 337.533 327.293 294.298 327.293 241.582C327.293 188.867 284.058 145.632 231.342 145.632C184.695 145.632 146.391 183.557 146.391 230.584C146.391 277.232 184.316 315.536 231.342 315.536C271.922 315.536 304.917 282.541 304.917 241.961C304.917 201.382 271.922 168.387 231.342 168.387C197.21 168.387 169.146 196.451 169.146 230.584C169.146 264.716 197.21 292.781 231.342 292.781C259.407 292.781 282.162 270.026 282.162 241.961C282.162 213.897 259.407 191.142 231.342 191.142C209.346 191.142 191.901 208.967 191.901 230.963C191.901 252.96 209.725 270.785 231.342 270.785C246.892 270.785 259.786 257.89 259.786 242.341C259.786 226.792 247.271 213.897 231.342 213.897C221.861 213.897 214.276 221.482 214.276 230.963C214.276 240.445 221.861 248.03 231.342 248.03C234.376 248.03 237.031 245.375 237.031 242.341C237.031 239.307 234.376 236.652 231.342 236.652C228.309 236.652 225.654 233.997 225.654 230.963C225.654 227.929 228.309 225.275 231.342 225.275C240.445 225.275 248.03 232.859 248.03 241.961C248.03 251.063 240.445 258.649 231.342 258.649C215.793 258.649 203.278 246.133 203.278 230.584C203.278 215.035 215.793 202.52 231.342 202.52C252.96 202.52 270.785 220.344 270.785 241.961C270.785 263.579 252.96 281.404 231.342 281.404C203.278 281.404 180.523 258.648 180.523 230.584C180.523 202.519 203.278 179.765 231.342 179.765C265.475 179.765 293.54 207.45 293.54 241.961C293.54 276.094 265.854 304.159 231.342 304.159C190.763 304.159 158.147 271.164 158.147 230.963C158.147 190.384 191.142 157.768 231.342 157.768C277.99 157.768 315.915 195.693 315.915 242.341C315.915 288.989 277.99 326.914 231.342 326.914C178.627 326.914 135.392 284.058 135.392 230.963C135.392 178.248 178.247 135.013 231.342 135.013C290.505 135.013 338.67 183.178 338.67 242.341C338.67 301.504 290.126 348.91 231.342 348.91C166.111 348.91 113.016 295.815 113.016 230.205C113.016 164.595 166.111 111.5 231.342 111.5C303.021 111.5 361.046 169.904 361.046 241.203C361.046 312.502 302.642 371.665 231.342 371.665C153.596 371.665 90.2615 308.33 90.2615 230.584C90.2615 152.838 153.596 89.5029 231.342 89.5029C315.157 89.5029 383.801 157.768 383.801 241.961C383.801 326.155 315.536 394.42 231.342 394.42C141.081 394.42 67.8858 320.845 67.8858 230.584C67.8858 140.322 141.46 66.7479 231.342 66.7479C327.672 66.7479 406.177 145.253 406.177 241.961C406.177 338.67 327.672 417.175 231.342 417.175C128.566 417.175 45.1308 333.74 45.1308 230.963C45.1308 128.187 128.566 44.7515 231.342 44.7515C340.187 44.7515 428.932 133.496 428.932 242.341C428.932 351.186 340.187 439.93 231.342 439.93C116.05 439.93 22.3758 346.255 22.3758 230.963C22.3758 115.671 116.05 21.9965 231.342 21.9965C352.703 21.9965 451.307 120.602 451.307 242.341C451.307 364.08 352.703 462.685 231.342 462.685C103.915 462.685 0 358.771 0 231.342C0 103.535 103.915 0 231.342 0C365.218 0 474.062 108.845 474.062 242.72C474.062 376.595 364.839 484.681 231.342 484.681Z" fill="#0F0F0F"/>
</svg>
