<svg width="475" height="475" viewBox="0 0 475 475" fill="none" xmlns="http://www.w3.org/2000/svg">
<path d="M237.031 460.789C360.609 460.789 460.788 360.609 460.788 237.031C460.788 113.454 360.609 13.2739 237.031 13.2739C113.453 13.2739 13.2734 113.454 13.2734 237.031C13.2734 360.609 113.453 460.789 237.031 460.789Z" stroke="black" stroke-width="26.5475" stroke-miterlimit="10"/>
<path d="M237.031 13.6514V460.787" stroke="black" stroke-width="26.5475" stroke-miterlimit="10"/>
<path d="M237.031 460.789C298.82 460.789 348.91 360.609 348.91 237.031C348.91 113.454 298.82 13.2739 237.031 13.2739C175.242 13.2739 125.152 113.454 125.152 237.031C125.152 360.609 175.242 460.789 237.031 460.789Z" stroke="black" stroke-width="26.5475" stroke-miterlimit="10"/>
<path d="M13.6523 237.031H460.788" stroke="black" stroke-width="26.5475" stroke-miterlimit="10"/>
</svg>
