<svg width="476" height="474" viewBox="0 0 476 474" fill="none" xmlns="http://www.w3.org/2000/svg">
<path fill-rule="evenodd" clip-rule="evenodd" d="M428.932 380.388V362.563H475.2V111.12H428.932V93.2955H474.442C469.891 40.959 425.898 0 372.424 0H102.777C49.3024 0 5.30955 40.959 0.758546 93.2955H46.2685V111.12H0V362.563H46.2685V380.388H0.758546C5.30955 432.724 49.3024 473.683 102.777 473.683H372.424C425.898 473.683 469.891 432.724 474.442 380.388H428.932ZM238.169 328.051C187.729 328.051 146.77 287.092 146.77 236.652C146.77 186.212 187.729 145.253 238.169 145.253C288.609 145.253 329.568 186.212 329.568 236.652C329.568 287.092 288.23 328.051 238.169 328.051Z" fill="#0F0F0F"/>
</svg>
