<svg width="475" height="475" viewBox="0 0 475 475" fill="none" xmlns="http://www.w3.org/2000/svg">
<path d="M237.031 0C106.19 0 0 106.19 0 237.031C0 367.872 106.19 474.062 237.031 474.062C367.872 474.062 474.062 367.872 474.062 237.031C474.442 106.569 367.872 0 237.031 0ZM346.255 346.255C285.954 346.255 237.41 297.332 237.41 237.41C237.41 177.489 188.487 128.566 128.566 128.566C68.6441 128.566 19.721 177.489 19.721 237.41C19.721 244.616 20.1003 251.822 20.8587 258.648C20.4795 255.235 20.1002 251.822 20.1002 248.409C20.1002 244.616 19.721 240.824 19.721 237.031C19.721 120.602 111.12 25.4097 226.412 19.3417C230.205 18.9624 233.997 18.9625 237.79 18.9625C241.582 18.9625 245.375 18.9624 249.167 19.3417C253.339 19.7209 257.511 20.1002 261.682 20.4795C267.75 21.238 273.818 21.9964 279.886 23.1342C281.403 23.5134 283.3 23.8927 284.817 24.272C382.284 45.8892 455.479 132.738 455.479 237.031C455.479 238.928 455.479 240.824 455.479 242.72C452.066 300.366 404.28 346.255 346.255 346.255Z" fill="#0F0F0F"/>
</svg>
