<svg width="475" height="475" viewBox="0 0 475 475" fill="none" xmlns="http://www.w3.org/2000/svg">
<path d="M197.462 0.254557C95.4437 14.6661 14.6636 95.0671 0.63135 197.085C-1.64415 214.152 11.6296 229.322 29.0751 229.322H201.634C217.562 229.322 230.078 216.427 230.078 200.878V28.3191C229.698 11.2529 214.528 -2.02094 197.462 0.254557Z" fill="#0F0F0F"/>
<path d="M0.254557 276.728C14.6661 378.746 95.0671 459.526 197.085 473.559C214.152 475.834 229.322 462.56 229.322 445.115V272.556C229.322 256.628 216.427 244.112 200.878 244.112H28.3191C11.2529 244.492 -2.02094 259.662 0.254557 276.728Z" fill="#0F0F0F"/>
<path d="M276.727 473.939C378.745 459.528 459.525 379.127 473.558 277.108C475.833 260.042 462.559 244.872 445.114 244.872H272.555C256.627 244.872 244.111 257.767 244.111 273.316V445.875C244.491 462.941 259.661 476.215 276.727 473.939Z" fill="#0F0F0F"/>
<path d="M244.49 28.6992V201.258C244.49 217.186 257.385 229.702 272.934 229.702H445.493C462.559 229.702 476.212 214.532 473.936 197.465C459.525 95.4472 379.124 14.6671 277.106 0.634883C259.66 -2.01987 244.49 11.2537 244.49 28.6992Z" fill="#0F0F0F"/>
</svg>
