<svg width="474" height="425" viewBox="0 0 474 425" fill="none" xmlns="http://www.w3.org/2000/svg">
<path d="M358.927 424.918H115.069C85.1079 424.918 60.8359 400.646 60.8359 370.685C60.8359 340.724 85.1079 316.452 115.069 316.452H358.927C388.887 316.452 413.159 340.724 413.159 370.685C413.159 400.646 388.887 424.918 358.927 424.918Z" fill="#0F0F0F"/>
<path d="M419.982 319.107C401.399 319.107 383.195 309.247 372.955 292.18L251.216 81.3173C236.425 55.5283 245.148 22.1544 270.937 7.3636C296.726 -7.42715 330.1 1.2956 344.891 27.0846L466.63 237.948C481.421 263.737 472.698 297.111 446.909 311.901C438.186 316.832 429.084 319.107 419.982 319.107Z" fill="#0F0F0F"/>
<path d="M54.0089 319.105C44.9069 319.105 35.4258 316.83 27.0823 311.899C1.29327 297.109 -7.80877 263.735 7.36123 237.946L129.1 27.0827C143.891 1.29373 177.265 -7.80827 203.054 7.36173C228.843 22.1525 237.945 55.5265 222.775 81.3155L101.036 292.178C91.1755 309.245 72.9714 319.105 54.0089 319.105Z" fill="#0F0F0F"/>
</svg>
