<svg width="513" height="512" viewBox="0 0 513 512" fill="none" xmlns="http://www.w3.org/2000/svg">
<path d="M510.192 205.174C506.02 187.729 496.918 171.421 484.403 159.285C470.75 146.011 454.063 138.047 435.859 136.53C433.204 136.151 430.55 136.151 427.895 136.151C400.21 136.151 373.662 148.287 345.977 173.697C338.771 180.523 331.945 188.108 325.118 195.314C311.086 210.863 297.812 225.654 281.125 232.101C280.746 232.101 280.746 232.101 280.746 232.101C280.746 232.101 280.366 232.101 280.366 231.722C280.366 231.343 280.366 231.342 280.366 231.342C286.434 214.656 301.225 201.382 317.154 187.35C324.739 180.902 332.324 174.076 338.771 166.491C366.456 136.53 378.592 106.949 375.937 76.9878C374.42 58.7838 366.456 42.0967 353.182 28.4438C341.046 15.9285 324.739 6.82655 307.293 2.6548C300.087 0.758546 293.261 0 286.055 0C275.815 0 265.576 1.89625 256.474 5.68875C247.372 1.89625 237.511 0 226.892 0C219.687 0 212.86 0.758546 205.654 2.6548C188.209 6.82655 171.901 15.9285 159.765 28.4438C146.491 42.0967 138.527 58.7838 137.01 76.9878C134.355 107.328 146.491 136.53 174.176 166.491C181.003 173.697 188.588 180.523 195.794 187.35C211.343 201.382 226.134 214.656 232.581 231.342C232.581 231.722 232.581 231.722 232.581 231.722C232.581 232.101 232.202 232.101 232.202 232.101C232.202 232.101 232.201 232.101 231.822 232.101C215.135 226.033 201.862 211.242 187.829 195.314C181.382 187.729 174.556 180.144 166.971 173.697C139.665 148.287 112.738 136.151 85.0527 136.151C82.3979 136.151 79.7433 136.151 77.0885 136.53C58.8845 138.047 42.1973 146.011 28.5443 159.285C16.0291 171.421 6.92714 187.729 2.75539 205.174C-1.79561 222.999 -0.657909 240.824 5.78934 255.994C-0.657909 271.164 -1.79561 288.989 2.75539 306.813C6.92714 324.259 16.0291 340.566 28.5443 352.703C42.1973 365.976 58.8845 373.94 77.0885 375.457C79.7433 375.837 82.3979 375.837 85.0527 375.837C112.738 375.837 139.285 363.701 166.971 338.291C174.176 331.465 181.003 323.88 187.829 316.674C201.862 301.125 215.135 286.334 231.822 279.887C232.201 279.887 232.202 279.887 232.202 279.887C232.202 279.887 232.581 279.887 232.581 280.266C232.581 280.645 232.581 280.645 232.581 280.645C226.513 297.332 211.722 310.606 195.794 324.638C188.208 331.085 180.624 337.912 174.176 345.497C146.491 375.458 134.355 405.039 137.01 435C138.527 453.204 146.491 469.891 159.765 483.544C171.901 496.059 188.209 505.161 205.654 509.333C212.86 511.229 219.687 511.987 226.892 511.987C237.132 511.987 247.372 510.091 256.474 506.299C265.576 510.091 275.436 511.987 286.055 511.987C293.261 511.987 300.087 511.229 307.293 509.333C324.739 505.161 341.046 496.059 353.182 483.544C366.456 469.891 374.42 453.204 375.937 435C378.592 404.66 366.456 375.458 338.771 345.497C331.945 338.291 324.359 331.465 317.154 324.638C301.604 310.606 286.814 297.332 280.366 280.645C280.366 280.266 280.366 280.266 280.366 280.266C280.366 279.887 280.746 279.887 280.746 279.887C280.746 279.887 280.746 279.887 281.125 279.887C297.812 285.955 311.086 300.745 325.118 316.674C331.565 324.259 338.392 331.844 345.977 338.291C373.283 363.701 400.21 375.837 427.895 375.837C430.55 375.837 433.204 375.837 435.859 375.457C454.063 373.94 470.75 365.976 484.403 352.703C496.918 340.566 506.02 324.259 510.192 306.813C514.743 288.989 513.605 271.164 507.158 255.994C513.226 240.824 514.364 222.999 510.192 205.174Z" fill="#0F0F0F"/>
</svg>
