<svg width="475" height="475" viewBox="0 0 475 475" fill="none" xmlns="http://www.w3.org/2000/svg">
<path d="M153.597 109.603V0H119.465V109.603L136.531 126.669L153.597 109.603Z" fill="#0F0F0F"/>
<path d="M163.834 153.596H310.603L327.67 136.53L310.603 119.464H163.834L146.768 136.53L163.834 153.596Z" fill="#0F0F0F"/>
<path d="M354.976 109.603V0H320.844V109.603L337.91 126.669L354.976 109.603Z" fill="#0F0F0F"/>
<path d="M109.603 119.464H0V153.596H109.603L126.669 136.53L109.603 119.464Z" fill="#0F0F0F"/>
<path d="M119.465 364.839V474.063H153.597V364.839L136.531 347.772L119.465 364.839Z" fill="#0F0F0F"/>
<path d="M364.836 354.976H474.06V320.844H364.836L347.77 337.91L364.836 354.976Z" fill="#0F0F0F"/>
<path d="M320.844 163.837V310.606L337.91 327.673L354.976 310.606V163.837L337.91 146.771L320.844 163.837Z" fill="#0F0F0F"/>
<path d="M474.06 119.464H364.836L347.77 136.53L364.836 153.596H474.06V119.464Z" fill="#0F0F0F"/>
<path d="M109.603 320.844H0V354.976H109.603L126.669 337.91L109.603 320.844Z" fill="#0F0F0F"/>
<path d="M153.597 310.606V163.837L136.531 146.771L119.465 163.837V310.606L136.531 327.673L153.597 310.606Z" fill="#0F0F0F"/>
<path d="M310.603 320.844H163.834L146.768 337.91L163.834 354.976H310.603L327.67 337.91L310.603 320.844Z" fill="#0F0F0F"/>
<path d="M320.844 364.839V474.063H354.976V364.839L337.91 347.772L320.844 364.839Z" fill="#0F0F0F"/>
</svg>
