<svg width="475" height="475" viewBox="0 0 475 475" fill="none" xmlns="http://www.w3.org/2000/svg">
<path d="M0 125.532V348.91C0 418.313 56.1289 474.442 125.532 474.442H348.91C418.313 474.442 474.442 418.313 474.442 348.91V125.532C474.442 56.129 418.313 0 348.91 0H125.532C56.1289 0.37925 0 56.5083 0 125.532ZM125.911 442.964C73.5743 442.964 31.0983 400.488 31.0983 348.152C31.0983 295.815 73.5743 253.339 125.911 253.339C178.247 253.339 220.723 295.815 220.723 348.152C220.723 400.488 178.247 442.964 125.911 442.964ZM125.911 221.103C73.5743 221.103 31.0983 178.627 31.0983 126.29C31.0983 73.9537 73.5743 31.4777 125.911 31.4777C178.247 31.4777 220.723 73.9537 220.723 126.29C220.723 178.627 178.247 221.103 125.911 221.103ZM347.772 442.964C295.436 442.964 252.96 400.488 252.96 348.152C252.96 295.815 295.436 253.339 347.772 253.339C400.109 253.339 442.585 295.815 442.585 348.152C442.585 400.488 400.109 442.964 347.772 442.964ZM347.772 221.103C295.436 221.103 252.96 178.627 252.96 126.29C252.96 73.9537 295.436 31.4777 347.772 31.4777C400.109 31.4777 442.585 73.9537 442.585 126.29C442.585 178.627 400.109 221.103 347.772 221.103Z" fill="#0F0F0F"/>
</svg>
