<svg width="475" height="475" viewBox="0 0 475 475" fill="none" xmlns="http://www.w3.org/2000/svg">
<path d="M0 282.92V397.454C0 408.452 13.2737 414.14 21.2379 406.176L135.771 291.643C143.735 283.679 138.047 270.405 127.049 270.405H12.1358C5.30932 270.405 0 275.714 0 282.92Z" fill="black"/>
<path d="M135.771 182.798L21.2379 68.2644C13.2737 60.3001 0 65.9889 0 76.9871V191.521C0 198.347 5.68847 204.036 12.515 204.036H127.049C138.047 204.036 143.356 190.762 135.771 182.798Z" fill="black"/>
<path d="M191.142 0.37793H76.6084C65.6101 0.37793 59.9212 13.6516 67.8854 21.6159L182.419 136.149C190.383 144.114 203.657 138.425 203.657 127.427V12.8932C203.657 5.68744 198.347 0.37793 191.142 0.37793Z" fill="black"/>
<path d="M270.023 12.5153V127.049C270.023 138.047 283.297 143.736 291.261 135.772L405.795 21.238C413.759 13.2738 408.07 0 397.072 0H282.539C275.333 0.37925 270.023 5.68876 270.023 12.5153Z" fill="black"/>
<path d="M337.91 291.643L452.444 406.176C460.408 414.14 473.682 408.452 473.682 397.454V282.92C473.682 276.093 467.993 270.405 461.167 270.405H346.633C335.635 270.405 330.325 283.679 337.91 291.643Z" fill="black"/>
<path d="M474.059 191.521V76.9871C474.059 65.9889 460.785 60.3001 452.821 68.2644L338.288 182.798C330.324 190.762 336.012 204.036 347.011 204.036H461.544C468.371 204.036 474.059 198.726 474.059 191.521Z" fill="black"/>
<path d="M270.023 347.392V461.926C270.023 468.752 275.712 474.441 282.539 474.441H397.072C408.07 474.441 413.759 461.167 405.795 453.203L291.261 338.669C283.297 330.705 270.023 336.015 270.023 347.392Z" fill="black"/>
<path d="M182.419 338.289L67.8854 452.823C59.9212 460.787 65.6101 474.061 76.6084 474.061H191.142C197.968 474.061 203.657 468.372 203.657 461.546V347.012C203.657 336.014 190.383 330.704 182.419 338.289Z" fill="black"/>
</svg>
