<svg width="470" height="502" viewBox="0 0 470 502" fill="none" xmlns="http://www.w3.org/2000/svg">
<path d="M234.374 494.162C301.609 494.162 356.114 439.657 356.114 372.422C356.114 305.188 301.609 250.683 234.374 250.683C167.139 250.683 112.635 305.188 112.635 372.422C112.635 439.657 167.139 494.162 234.374 494.162Z" stroke="black" stroke-width="15.17" stroke-miterlimit="10"/>
<path d="M234.374 251.063C301.609 251.063 356.114 196.559 356.114 129.324C356.114 62.0895 301.609 7.58496 234.374 7.58496C167.139 7.58496 112.635 62.0895 112.635 129.324C112.635 196.559 167.139 251.063 234.374 251.063Z" stroke="black" stroke-width="15.17" stroke-miterlimit="10"/>
<path d="M339.808 311.744C407.042 311.744 461.547 257.239 461.547 190.004C461.547 122.77 407.042 68.2651 339.808 68.2651C272.573 68.2651 218.068 122.77 218.068 190.004C218.068 257.239 272.573 311.744 339.808 311.744Z" stroke="black" stroke-width="15.17" stroke-miterlimit="10"/>
<path d="M129.325 433.481C196.56 433.481 251.064 378.977 251.064 311.742C251.064 244.507 196.56 190.003 129.325 190.003C62.0904 190.003 7.58594 244.507 7.58594 311.742C7.58594 378.977 62.0904 433.481 129.325 433.481Z" stroke="black" stroke-width="15.17" stroke-miterlimit="10"/>
<path d="M129.325 311.744C196.56 311.744 251.064 257.239 251.064 190.004C251.064 122.77 196.56 68.2651 129.325 68.2651C62.0904 68.2651 7.58594 122.77 7.58594 190.004C7.58594 257.239 62.0904 311.744 129.325 311.744Z" stroke="black" stroke-width="15.17" stroke-miterlimit="10"/>
<path d="M339.808 433.481C407.042 433.481 461.547 378.977 461.547 311.742C461.547 244.507 407.042 190.003 339.808 190.003C272.573 190.003 218.068 244.507 218.068 311.742C218.068 378.977 272.573 433.481 339.808 433.481Z" stroke="black" stroke-width="15.17" stroke-miterlimit="10"/>
</svg>
