<svg width="513" height="471" viewBox="0 0 513 471" fill="none" xmlns="http://www.w3.org/2000/svg">
<path d="M482.122 292.876C461.642 272.396 434.336 262.157 407.409 262.536C391.481 262.536 377.07 254.192 369.105 240.539L346.35 201.477C338.386 187.824 338.386 170.757 346.35 157.104C369.864 117.283 364.554 64.9466 330.042 30.4348C289.463 -10.1449 223.473 -10.1449 182.514 30.4348C148.002 64.9466 142.693 116.904 166.207 157.104C174.171 170.757 174.171 187.824 166.207 201.477L143.452 240.539C135.487 254.192 121.076 262.915 105.147 262.536C78.2206 262.157 50.9143 272.396 30.4348 292.876C-10.1449 333.456 -10.1449 399.445 30.4348 440.404C71.0146 480.984 137.004 480.984 177.963 440.404C184.79 433.578 190.478 425.993 195.029 418.028C202.994 404.375 217.405 395.653 233.334 395.653H278.464C294.393 395.653 309.184 403.996 316.769 418.028C321.32 425.993 327.008 433.578 333.835 440.404C374.415 480.984 440.404 480.984 481.363 440.404C522.701 399.445 522.701 333.456 482.122 292.876ZM194.65 268.983L217.405 229.92C225.37 215.888 240.16 207.924 256.468 207.924C256.847 207.924 257.226 207.924 257.606 207.924C273.534 207.924 288.325 216.267 296.669 229.92L319.424 268.983C327.388 282.636 327.388 299.702 319.044 313.355C318.665 313.735 318.665 314.114 318.665 314.493C310.701 328.525 295.91 337.248 279.982 337.248H234.851C218.922 337.248 204.132 328.525 196.167 314.493C196.167 314.114 195.788 313.735 195.788 313.355C186.686 300.082 186.686 283.015 194.65 268.983Z" fill="#0F0F0F"/>
</svg>
