<svg width="475" height="475" viewBox="0 0 475 475" fill="none" xmlns="http://www.w3.org/2000/svg">
<path d="M237.031 74.333C326.534 74.333 399.729 147.149 399.729 237.031C399.729 326.914 326.914 399.729 237.031 399.729C147.149 399.729 74.3329 326.914 74.3329 237.031C74.3329 147.149 147.149 74.333 237.031 74.333ZM237.031 0C106.19 0 0 106.19 0 237.031C0 367.873 106.19 474.062 237.031 474.062C367.872 474.062 474.062 367.873 474.062 237.031C474.062 106.19 367.872 0 237.031 0Z" fill="#0F0F0F"/>
<path d="M237.031 0C106.19 0 0 106.19 0 237.031H237.031V0Z" fill="#0F0F0F"/>
<path d="M237.031 473.685C367.872 473.685 474.062 367.495 474.062 236.653H237.031V473.685Z" fill="#0F0F0F"/>
</svg>
