<svg width="513" height="513" viewBox="0 0 513 513" fill="none" xmlns="http://www.w3.org/2000/svg">
<path d="M260.165 0.37793H252.58V187.727H260.165V0.37793Z" fill="black"/>
<path d="M260.165 325.019H252.58V512.368H260.165V325.019Z" fill="black"/>
<path d="M187.726 252.579H0.376953V260.164H187.726V252.579Z" fill="black"/>
<path d="M512.363 252.579H325.014V260.164H512.363V252.579Z" fill="black"/>
<path d="M256.371 431.964C159.283 431.964 80.3984 353.08 80.3984 255.992C80.3984 158.904 159.283 80.02 256.371 80.02C353.459 80.02 432.342 158.904 432.342 255.992C432.342 353.08 353.079 431.964 256.371 431.964ZM256.371 87.9842C163.454 87.9842 87.9834 163.455 87.9834 256.371C87.9834 349.287 163.454 424.758 256.371 424.758C349.287 424.758 424.757 349.287 424.757 256.371C424.757 163.455 348.908 87.9842 256.371 87.9842Z" fill="black"/>
<path d="M260.164 252.581H325.016C323.119 217.69 295.055 189.625 260.164 187.729V252.581Z" fill="black"/>
<path d="M252.581 252.581V187.729C217.69 189.625 189.625 217.69 187.729 252.581H252.581Z" fill="black"/>
<path d="M252.581 260.168H187.729C189.625 295.059 217.69 323.123 252.581 325.02V260.168Z" fill="black"/>
<path d="M260.164 260.168V325.02C295.055 323.123 323.119 295.059 325.016 260.168H260.164Z" fill="black"/>
</svg>
