<svg width="475" height="475" viewBox="0 0 475 475" fill="none" xmlns="http://www.w3.org/2000/svg">
<path d="M286.331 0H188.105C171.418 0 158.145 13.2738 158.145 29.9608V128.187C158.145 144.874 171.418 158.147 188.105 158.147H286.331C303.018 158.147 316.292 144.874 316.292 128.187V29.9608C316.292 13.2738 302.639 0 286.331 0Z" fill="#0F0F0F"/>
<path d="M188.105 474.062H286.331C303.018 474.062 316.292 460.788 316.292 444.101V345.875C316.292 329.188 303.018 315.915 286.331 315.915H188.105C171.418 315.915 158.145 329.188 158.145 345.875V444.101C158.145 460.409 171.798 474.062 188.105 474.062Z" fill="#0F0F0F"/>
<path d="M316.295 187.727V285.953C316.295 302.64 329.569 315.914 346.256 315.914H444.482C461.169 315.914 474.442 302.64 474.442 285.953V187.727C474.442 171.04 461.169 157.767 444.482 157.767H346.256C329.569 157.767 316.295 171.42 316.295 187.727Z" fill="#0F0F0F"/>
<path d="M0 187.727V285.953C0 302.64 13.2738 315.914 29.9608 315.914H128.187C144.874 315.914 158.148 302.64 158.148 285.953V187.727C158.148 171.04 144.874 157.767 128.187 157.767H29.9608C13.6531 157.767 0 171.42 0 187.727Z" fill="#0F0F0F"/>
</svg>
