<svg width="475" height="475" viewBox="0 0 475 475" fill="none" xmlns="http://www.w3.org/2000/svg">
<path d="M194.555 474.441H112.638C50.4405 474.441 0 424.001 0 361.804V279.886H41.3383V361.804C41.3383 400.866 73.1956 432.723 112.258 432.723H194.176V474.441H194.555Z" fill="black"/>
<path d="M361.807 474.441H279.889V433.103H361.807C400.869 433.103 432.727 401.246 432.727 362.183V279.886H474.064V361.804C474.444 423.621 423.624 474.441 361.807 474.441Z" fill="black"/>
<path d="M474.444 194.554H433.106V112.636C433.106 73.5733 401.248 41.7163 362.186 41.7163H279.889V0.37793H361.807C424.004 0.37793 474.444 50.8182 474.444 113.015V194.554Z" fill="black"/>
<path d="M41.7148 194.555H0.376953V112.637C0.376953 50.4403 50.817 0 113.014 0H194.932V41.3381H113.014C73.9513 41.3381 42.0945 73.1952 42.0945 112.258V194.555H41.7148Z" fill="black"/>
</svg>
